<ttFont>
    <TTGlyph name="A" xMin="0" yMin="0" xMax="1331" yMax="1468">
      <contour>
        <pt x="1018" y="0" on="1"/>
        <pt x="918" y="348" on="1"/>
        <pt x="414" y="348" on="1"/>
        <pt x="313" y="0" on="1"/>
        <pt x="0" y="0" on="1"/>
        <pt x="475" y="1468" on="1"/>
        <pt x="854" y="1468" on="1"/>
        <pt x="1331" y="0" on="1"/>
      </contour>
      <contour>
        <pt x="846" y="608" on="1"/>
        <pt x="752" y="928" on="1"/>
        <pt x="746" y="946" on="0"/>
        <pt x="722" y="1028" on="0"/>
        <pt x="695" y="1127" on="0"/>
        <pt x="671" y="1227" on="0"/>
        <pt x="666" y="1262" on="1"/>
        <pt x="662" y="1240" on="0"/>
        <pt x="649" y="1180" on="0"/>
        <pt x="632" y="1113" on="0"/>
        <pt x="614" y="1045" on="0"/>
        <pt x="598" y="985" on="0"/>
        <pt x="585" y="939" on="0"/>
        <pt x="582" y="928" on="1"/>
        <pt x="489" y="608" on="1"/>
      </contour>
    </TTGlyph>
    <TTGlyph name="AE" xMin="0" yMin="0" xMax="1767" yMax="1462">
      <contour>
        <pt x="1767" y="0" on="1"/>
        <pt x="926" y="0" on="1"/>
        <pt x="926" y="348" on="1"/>
        <pt x="465" y="348" on="1"/>
        <pt x="315" y="0" on="1"/>
        <pt x="0" y="0" on="1"/>
        <pt x="655" y="1462" on="1"/>
        <pt x="1767" y="1462" on="1"/>
        <pt x="1767" y="1208" on="1"/>
        <pt x="1235" y="1208" on="1"/>
        <pt x="1235" y="887" on="1"/>
        <pt x="1731" y="887" on="1"/>
        <pt x="1731" y="633" on="1"/>
        <pt x="1235" y="633" on="1"/>
        <pt x="1235" y="256" on="1"/>
        <pt x="1767" y="256" on="1"/>
      </contour>
      <contour>
        <pt x="578" y="608" on="1"/>
        <pt x="926" y="608" on="1"/>
        <pt x="926" y="1198" on="1"/>
        <pt x="829" y="1198" on="1"/>
      </contour>
    </TTGlyph>
    <TTGlyph name="Aacute" xMin="0" yMin="0" xMax="1331" yMax="1907">
      <component glyphName="A" x="0" y="0" flags="0x1204"/>
      <component glyphName="acute" x="162" y="338" flags="0x1004"/>
    </TTGlyph>
    <TTGlyph name="Acircumflex" xMin="0" yMin="0" xMax="1331" yMax="1907">
      <component glyphName="A" x="0" y="0" flags="0x1204"/>
      <component glyphName="circumflex" x="78" y="338" flags="0x1004"/>
    </TTGlyph>
    <TTGlyph name="Adieresis" xMin="0" yMin="0" xMax="1331" yMax="1878">
      <component glyphName="A" x="0" y="0" flags="0x1204"/>
      <component glyphName="dieresis" x="76" y="338" flags="0x1004"/>
    </TTGlyph>
    <TTGlyph name="Agrave" xMin="0" yMin="0" xMax="1331" yMax="1907">
      <component glyphName="A" x="0" y="0" flags="0x1204"/>
      <component glyphName="grave" x="-13" y="338" flags="0x1004"/>
    </TTGlyph>
    <TTGlyph name="Aring" xMin="0" yMin="0" xMax="1331" yMax="1802">
      <component glyphName="A" x="0" y="0" flags="0x1204"/>
      <component glyphName="ring" x="76" y="88" flags="0x1004"/>
    </TTGlyph>
    <TTGlyph name="Atilde" xMin="0" yMin="0" xMax="1331" yMax="1888">
      <component glyphName="A" x="0" y="0" flags="0x1204"/>
      <component glyphName="tilde" x="78" y="338" flags="0x1004"/>
    </TTGlyph>
    <TTGlyph name="B" xMin="184" yMin="0" xMax="1206" yMax="1462">
      <contour>
        <pt x="184" y="1462" on="1"/>
        <pt x="612" y="1462" on="1"/>
        <pt x="750" y="1462" on="0"/>
        <pt x="958" y="1423" on="0"/>
        <pt x="1098" y="1336" on="0"/>
        <pt x="1169" y="1195" on="0"/>
        <pt x="1169" y="1092" on="1"/>
        <pt x="1169" y="1030" on="0"/>
        <pt x="1139" y="922" on="0"/>
        <pt x="1081" y="840" on="0"/>
        <pt x="998" y="785" on="0"/>
        <pt x="944" y="776" on="1"/>
        <pt x="944" y="766" on="1"/>
        <pt x="999" y="754" on="0"/>
        <pt x="1094" y="709" on="0"/>
        <pt x="1165" y="630" on="0"/>
        <pt x="1206" y="510" on="0"/>
        <pt x="1206" y="424" on="1"/>
        <pt x="1206" y="324" on="0"/>
        <pt x="1136" y="167" on="0"/>
        <pt x="1005" y="58" on="0"/>
        <pt x="818" y="0" on="0"/>
        <pt x="700" y="0" on="1"/>
        <pt x="184" y="0" on="1"/>
      </contour>
      <contour>
        <pt x="494" y="883" on="1"/>
        <pt x="655" y="883" on="1"/>
        <pt x="713" y="883" on="0"/>
        <pt x="791" y="904" on="0"/>
        <pt x="839" y="946" on="0"/>
        <pt x="860" y="1009" on="0"/>
        <pt x="860" y="1051" on="1"/>
        <pt x="860" y="1135" on="0"/>
        <pt x="755" y="1208" on="0"/>
        <pt x="641" y="1208" on="1"/>
        <pt x="494" y="1208" on="1"/>
      </contour>
      <contour>
        <pt x="494" y="637" on="1"/>
        <pt x="494" y="256" on="1"/>
        <pt x="676" y="256" on="1"/>
        <pt x="737" y="256" on="0"/>
        <pt x="820" y="284" on="0"/>
        <pt x="871" y="336" on="0"/>
        <pt x="893" y="410" on="0"/>
        <pt x="893" y="455" on="1"/>
        <pt x="893" y="496" on="0"/>
        <pt x="871" y="563" on="0"/>
        <pt x="818" y="611" on="0"/>
        <pt x="732" y="637" on="0"/>
        <pt x="668" y="637" on="1"/>
      </contour>
    </TTGlyph>
    <TTGlyph name="C" xMin="119" yMin="-20" xMax="1233" yMax="1483">
      <contour>
        <pt x="805" y="1225" on="1"/>
        <pt x="716" y="1225" on="0"/>
        <pt x="579" y="1156" on="0"/>
        <pt x="486" y="1027" on="0"/>
        <pt x="438" y="842" on="0"/>
        <pt x="438" y="727" on="1"/>
        <pt x="438" y="610" on="0"/>
        <pt x="481" y="428" on="0"/>
        <pt x="570" y="303" on="0"/>
        <pt x="709" y="238" on="0"/>
        <pt x="805" y="238" on="1"/>
        <pt x="894" y="238" on="0"/>
        <pt x="1073" y="278" on="0"/>
        <pt x="1178" y="315" on="1"/>
        <pt x="1178" y="55" on="1"/>
        <pt x="1130" y="35" on="0"/>
        <pt x="1036" y="7" on="0"/>
        <pt x="938" y="-11" on="0"/>
        <pt x="835" y="-20" on="0"/>
        <pt x="776" y="-20" on="1"/>
        <pt x="607" y="-20" on="0"/>
        <pt x="359" y="88" on="0"/>
        <pt x="197" y="284" on="0"/>
        <pt x="119" y="560" on="0"/>
        <pt x="119" y="729" on="1"/>
        <pt x="119" y="895" on="0"/>
        <pt x="209" y="1172" on="0"/>
        <pt x="383" y="1372" on="0"/>
        <pt x="639" y="1483" on="0"/>
        <pt x="805" y="1483" on="1"/>
        <pt x="914" y="1483" on="0"/>
        <pt x="1133" y="1428" on="0"/>
        <pt x="1233" y="1380" on="1"/>
        <pt x="1133" y="1128" on="1"/>
        <pt x="1051" y="1167" on="0"/>
        <pt x="885" y="1225" on="0"/>
      </contour>
    </TTGlyph>
    <TTGlyph name="Ccedilla" xMin="119" yMin="-492" xMax="1233" yMax="1483">
      <component glyphName="C" x="0" y="0" flags="0x1204"/>
      <component glyphName="cedilla" x="508" y="0" flags="0x1004"/>
    </TTGlyph>
    <TTGlyph name="D" xMin="184" yMin="0" xMax="1315" yMax="1462">
      <contour>
        <pt x="1315" y="745" on="1"/>
        <pt x="1315" y="560" on="0"/>
        <pt x="1214" y="281" on="0"/>
        <pt x="1023" y="94" on="0"/>
        <pt x="746" y="0" on="0"/>
        <pt x="569" y="0" on="1"/>
        <pt x="184" y="0" on="1"/>
        <pt x="184" y="1462" on="1"/>
        <pt x="612" y="1462" on="1"/>
        <pt x="773" y="1462" on="0"/>
        <pt x="1032" y="1370" on="0"/>
        <pt x="1216" y="1189" on="0"/>
        <pt x="1315" y="921" on="0"/>
      </contour>
      <contour>
        <pt x="1001" y="737" on="1"/>
        <pt x="1001" y="859" on="0"/>
        <pt x="952" y="1036" on="0"/>
        <pt x="859" y="1152" on="0"/>
        <pt x="724" y="1208" on="0"/>
        <pt x="637" y="1208" on="1"/>
        <pt x="494" y="1208" on="1"/>
        <pt x="494" y="256" on="1"/>
        <pt x="608" y="256" on="1"/>
        <pt x="804" y="256" on="0"/>
        <pt x="1001" y="496" on="0"/>
      </contour>
    </TTGlyph>
    <TTGlyph name="E" xMin="184" yMin="0" xMax="1026" yMax="1462">
      <contour>
        <pt x="1026" y="0" on="1"/>
        <pt x="184" y="0" on="1"/>
        <pt x="184" y="1462" on="1"/>
        <pt x="1026" y="1462" on="1"/>
        <pt x="1026" y="1208" on="1"/>
        <pt x="494" y="1208" on="1"/>
        <pt x="494" y="887" on="1"/>
        <pt x="989" y="887" on="1"/>
        <pt x="989" y="633" on="1"/>
        <pt x="494" y="633" on="1"/>
        <pt x="494" y="256" on="1"/>
        <pt x="1026" y="256" on="1"/>
      </contour>
    </TTGlyph>
    <TTGlyph name="Eacute" xMin="184" yMin="0" xMax="1026" yMax="1907">
      <component glyphName="E" x="0" y="0" flags="0x1204"/>
      <component glyphName="acute" x="92" y="338" flags="0x1004"/>
    </TTGlyph>
    <TTGlyph name="Ecircumflex" xMin="184" yMin="0" xMax="1035" yMax="1907">
      <component glyphName="E" x="0" y="0" flags="0x1204"/>
      <component glyphName="circumflex" x="31" y="338" flags="0x1004"/>
    </TTGlyph>
    <TTGlyph name="Edieresis" xMin="184" yMin="0" xMax="1026" yMax="1878">
      <component glyphName="E" x="0" y="0" flags="0x1204"/>
      <component glyphName="dieresis" x="25" y="338" flags="0x1004"/>
    </TTGlyph>
    <TTGlyph name="Egrave" xMin="184" yMin="0" xMax="1026" yMax="1907">
      <component glyphName="E" x="0" y="0" flags="0x1204"/>
      <component glyphName="grave" x="-73" y="338" flags="0x1004"/>
    </TTGlyph>
    <TTGlyph name="Eth" xMin="47" yMin="0" xMax="1315" yMax="1462">
      <contour>
        <pt x="47" y="850" on="1"/>
        <pt x="184" y="850" on="1"/>
        <pt x="184" y="1462" on="1"/>
        <pt x="612" y="1462" on="1"/>
        <pt x="773" y="1462" on="0"/>
        <pt x="1032" y="1370" on="0"/>
        <pt x="1216" y="1189" on="0"/>
        <pt x="1315" y="921" on="0"/>
        <pt x="1315" y="745" on="1"/>
        <pt x="1315" y="560" on="0"/>
        <pt x="1214" y="281" on="0"/>
        <pt x="1023" y="94" on="0"/>
        <pt x="746" y="0" on="0"/>
        <pt x="569" y="0" on="1"/>
        <pt x="184" y="0" on="1"/>
        <pt x="184" y="596" on="1"/>
        <pt x="47" y="596" on="1"/>
      </contour>
      <contour>
        <pt x="1001" y="737" on="1"/>
        <pt x="1001" y="859" on="0"/>
        <pt x="952" y="1036" on="0"/>
        <pt x="859" y="1152" on="0"/>
        <pt x="724" y="1208" on="0"/>
        <pt x="637" y="1208" on="1"/>
        <pt x="494" y="1208" on="1"/>
        <pt x="494" y="850" on="1"/>
        <pt x="731" y="850" on="1"/>
        <pt x="731" y="596" on="1"/>
        <pt x="494" y="596" on="1"/>
        <pt x="494" y="256" on="1"/>
        <pt x="608" y="256" on="1"/>
        <pt x="804" y="256" on="0"/>
        <pt x="1001" y="496" on="0"/>
      </contour>
    </TTGlyph>
    <TTGlyph name="F" xMin="184" yMin="0" xMax="1022" yMax="1462">
      <contour>
        <pt x="489" y="0" on="1"/>
        <pt x="184" y="0" on="1"/>
        <pt x="184" y="1462" on="1"/>
        <pt x="1022" y="1462" on="1"/>
        <pt x="1022" y="1208" on="1"/>
        <pt x="489" y="1208" on="1"/>
        <pt x="489" y="831" on="1"/>
        <pt x="985" y="831" on="1"/>
        <pt x="985" y="578" on="1"/>
        <pt x="489" y="578" on="1"/>
      </contour>
    </TTGlyph>
    <TTGlyph name="G" xMin="119" yMin="-20" xMax="1319" yMax="1483">
      <contour>
        <pt x="739" y="821" on="1"/>
        <pt x="1319" y="821" on="1"/>
        <pt x="1319" y="63" on="1"/>
        <pt x="1261" y="44" on="0"/>
        <pt x="1143" y="13" on="0"/>
        <pt x="1016" y="-8" on="0"/>
        <pt x="877" y="-20" on="0"/>
        <pt x="799" y="-20" on="1"/>
        <pt x="635" y="-20" on="0"/>
        <pt x="382" y="77" on="0"/>
        <pt x="209" y="268" on="0"/>
        <pt x="119" y="549" on="0"/>
        <pt x="119" y="733" on="1"/>
        <pt x="119" y="905" on="0"/>
        <pt x="219" y="1183" on="0"/>
        <pt x="414" y="1378" on="0"/>
        <pt x="699" y="1483" on="0"/>
        <pt x="883" y="1483" on="1"/>
        <pt x="1000" y="1483" on="0"/>
        <pt x="1224" y="1433" on="0"/>
        <pt x="1317" y="1393" on="1"/>
        <pt x="1214" y="1145" on="1"/>
        <pt x="1146" y="1179" on="0"/>
        <pt x="975" y="1225" on="0"/>
        <pt x="881" y="1225" on="1"/>
        <pt x="779" y="1225" on="0"/>
        <pt x="616" y="1154" on="0"/>
        <pt x="500" y="1024" on="0"/>
        <pt x="438" y="840" on="0"/>
        <pt x="438" y="727" on="1"/>
        <pt x="438" y="619" on="0"/>
        <pt x="481" y="440" on="0"/>
        <pt x="573" y="310" on="0"/>
        <pt x="718" y="238" on="0"/>
        <pt x="819" y="238" on="1"/>
        <pt x="885" y="238" on="0"/>
        <pt x="976" y="250" on="0"/>
        <pt x="1016" y="258" on="1"/>
        <pt x="1016" y="563" on="1"/>
        <pt x="739" y="563" on="1"/>
      </contour>
    </TTGlyph>
    <TTGlyph name="H" xMin="184" yMin="0" xMax="1300" yMax="1462">
      <contour>
        <pt x="1300" y="0" on="1"/>
        <pt x="991" y="0" on="1"/>
        <pt x="991" y="631" on="1"/>
        <pt x="494" y="631" on="1"/>
        <pt x="494" y="0" on="1"/>
        <pt x="184" y="0" on="1"/>
        <pt x="184" y="1462" on="1"/>
        <pt x="494" y="1462" on="1"/>
        <pt x="494" y="889" on="1"/>
        <pt x="991" y="889" on="1"/>
        <pt x="991" y="1462" on="1"/>
        <pt x="1300" y="1462" on="1"/>
      </contour>
    </TTGlyph>
    <TTGlyph name="I" xMin="66" yMin="0" xMax="731" yMax="1462">
      <contour>
        <pt x="731" y="0" on="1"/>
        <pt x="66" y="0" on="1"/>
        <pt x="66" y="176" on="1"/>
        <pt x="244" y="258" on="1"/>
        <pt x="244" y="1204" on="1"/>
        <pt x="66" y="1286" on="1"/>
        <pt x="66" y="1462" on="1"/>
        <pt x="731" y="1462" on="1"/>
        <pt x="731" y="1286" on="1"/>
        <pt x="553" y="1204" on="1"/>
        <pt x="553" y="258" on="1"/>
        <pt x="731" y="176" on="1"/>
      </contour>
    </TTGlyph>
    <TTGlyph name="Iacute" xMin="66" yMin="0" xMax="753" yMax="1907">
      <component glyphName="I" x="0" y="0" flags="0x1204"/>
      <component glyphName="acute" x="-95" y="338" flags="0x1004"/>
    </TTGlyph>
    <TTGlyph name="Icircumflex" xMin="-16" yMin="0" xMax="812" yMax="1907">
      <component glyphName="I" x="0" y="0" flags="0x1204"/>
      <component glyphName="circumflex" x="-192" y="338" flags="0x1004"/>
    </TTGlyph>
    <TTGlyph name="Idieresis" xMin="54" yMin="0" xMax="740" yMax="1878">
      <component glyphName="I" x="0" y="0" flags="0x1204"/>
      <component glyphName="dieresis" x="-194" y="338" flags="0x1004"/>
    </TTGlyph>
    <TTGlyph name="Igrave" xMin="42" yMin="0" xMax="731" yMax="1907">
      <component glyphName="I" x="0" y="0" flags="0x1204"/>
      <component glyphName="grave" x="-290" y="338" flags="0x1004"/>
    </TTGlyph>
    <TTGlyph name="J" xMin="-199" yMin="-430" xMax="494" yMax="1462">
      <contour>
        <pt x="-2" y="-430" on="1"/>
        <pt x="-67" y="-430" on="0"/>
        <pt x="-165" y="-417" on="0"/>
        <pt x="-199" y="-408" on="1"/>
        <pt x="-199" y="-150" on="1"/>
        <pt x="-162" y="-158" on="0"/>
        <pt x="-81" y="-170" on="0"/>
        <pt x="-33" y="-170" on="1"/>
        <pt x="13" y="-170" on="0"/>
        <pt x="92" y="-150" on="0"/>
        <pt x="151" y="-101" on="0"/>
        <pt x="184" y="-19" on="0"/>
        <pt x="184" y="43" on="1"/>
        <pt x="184" y="1462" on="1"/>
        <pt x="494" y="1462" on="1"/>
        <pt x="494" y="53" on="1"/>
        <pt x="494" y="-73" on="0"/>
        <pt x="421" y="-255" on="0"/>
        <pt x="290" y="-374" on="0"/>
        <pt x="108" y="-430" on="0"/>
      </contour>
    </TTGlyph>
    <TTGlyph name="K" xMin="184" yMin="0" xMax="1298" yMax="1462">
      <contour>
        <pt x="1298" y="0" on="1"/>
        <pt x="946" y="0" on="1"/>
        <pt x="610" y="608" on="1"/>
        <pt x="494" y="522" on="1"/>
        <pt x="494" y="0" on="1"/>
        <pt x="184" y="0" on="1"/>
        <pt x="184" y="1462" on="1"/>
        <pt x="494" y="1462" on="1"/>
        <pt x="494" y="758" on="1"/>
        <pt x="616" y="965" on="1"/>
        <pt x="950" y="1462" on="1"/>
        <pt x="1294" y="1462" on="1"/>
        <pt x="827" y="803" on="1"/>
      </contour>
    </TTGlyph>
    <TTGlyph name="L" xMin="184" yMin="0" xMax="1026" yMax="1462">
      <contour>
        <pt x="184" y="0" on="1"/>
        <pt x="184" y="1462" on="1"/>
        <pt x="494" y="1462" on="1"/>
        <pt x="494" y="256" on="1"/>
        <pt x="1026" y="256" on="1"/>
        <pt x="1026" y="0" on="1"/>
      </contour>
    </TTGlyph>
    <TTGlyph name="M" xMin="184" yMin="0" xMax="1686" yMax="1462">
      <contour>
        <pt x="772" y="0" on="1"/>
        <pt x="451" y="1147" on="1"/>
        <pt x="442" y="1147" on="1"/>
        <pt x="448" y="1055" on="0"/>
        <pt x="452" y="969" on="1"/>
        <pt x="454" y="932" on="0"/>
        <pt x="457" y="854" on="0"/>
        <pt x="460" y="778" on="0"/>
        <pt x="461" y="708" on="0"/>
        <pt x="461" y="680" on="1"/>
        <pt x="461" y="0" on="1"/>
        <pt x="184" y="0" on="1"/>
        <pt x="184" y="1462" on="1"/>
        <pt x="606" y="1462" on="1"/>
        <pt x="922" y="344" on="1"/>
        <pt x="928" y="344" on="1"/>
        <pt x="1264" y="1462" on="1"/>
        <pt x="1686" y="1462" on="1"/>
        <pt x="1686" y="0" on="1"/>
        <pt x="1397" y="0" on="1"/>
        <pt x="1397" y="692" on="1"/>
        <pt x="1397" y="718" on="0"/>
        <pt x="1398" y="784" on="0"/>
        <pt x="1400" y="858" on="0"/>
        <pt x="1403" y="934" on="0"/>
        <pt x="1404" y="970" on="1"/>
        <pt x="1408" y="1054" on="0"/>
        <pt x="1411" y="1145" on="1"/>
        <pt x="1403" y="1145" on="1"/>
        <pt x="1057" y="0" on="1"/>
      </contour>
    </TTGlyph>
    <TTGlyph name="N" xMin="184" yMin="0" xMax="1419" yMax="1462">
      <contour>
        <pt x="1419" y="0" on="1"/>
        <pt x="1026" y="0" on="1"/>
        <pt x="451" y="1106" on="1"/>
        <pt x="442" y="1106" on="1"/>
        <pt x="448" y="1029" on="0"/>
        <pt x="452" y="953" on="1"/>
        <pt x="456" y="888" on="0"/>
        <pt x="461" y="745" on="0"/>
        <pt x="461" y="688" on="1"/>
        <pt x="461" y="0" on="1"/>
        <pt x="184" y="0" on="1"/>
        <pt x="184" y="1462" on="1"/>
        <pt x="575" y="1462" on="1"/>
        <pt x="1149" y="367" on="1"/>
        <pt x="1155" y="367" on="1"/>
        <pt x="1152" y="443" on="0"/>
        <pt x="1148" y="517" on="1"/>
        <pt x="1147" y="549" on="0"/>
        <pt x="1144" y="616" on="0"/>
        <pt x="1142" y="683" on="0"/>
        <pt x="1141" y="745" on="0"/>
        <pt x="1141" y="770" on="1"/>
        <pt x="1141" y="1462" on="1"/>
        <pt x="1419" y="1462" on="1"/>
      </contour>
    </TTGlyph>
    <TTGlyph name="Ntilde" xMin="184" yMin="0" xMax="1419" yMax="1888">
      <component glyphName="N" x="0" y="0" flags="0x1204"/>
      <component glyphName="tilde" x="197" y="338" flags="0x1004"/>
    </TTGlyph>
    <TTGlyph name="O" xMin="119" yMin="-20" xMax="1430" yMax="1485">
      <contour>
        <pt x="1430" y="733" on="1"/>
        <pt x="1430" y="564" on="0"/>
        <pt x="1351" y="286" on="0"/>
        <pt x="1189" y="88" on="0"/>
        <pt x="942" y="-20" on="0"/>
        <pt x="774" y="-20" on="1"/>
        <pt x="606" y="-20" on="0"/>
        <pt x="359" y="88" on="0"/>
        <pt x="198" y="286" on="0"/>
        <pt x="119" y="565" on="0"/>
        <pt x="119" y="735" on="1"/>
        <pt x="119" y="905" on="0"/>
        <pt x="198" y="1182" on="0"/>
        <pt x="360" y="1378" on="0"/>
        <pt x="607" y="1485" on="0"/>
        <pt x="776" y="1485" on="1"/>
        <pt x="944" y="1485" on="0"/>
        <pt x="1190" y="1378" on="0"/>
        <pt x="1351" y="1181" on="0"/>
        <pt x="1430" y="904" on="0"/>
      </contour>
      <contour>
        <pt x="438" y="733" on="1"/>
        <pt x="438" y="618" on="0"/>
        <pt x="478" y="435" on="0"/>
        <pt x="561" y="308" on="0"/>
        <pt x="687" y="240" on="0"/>
        <pt x="774" y="240" on="1"/>
        <pt x="863" y="240" on="0"/>
        <pt x="990" y="308" on="0"/>
        <pt x="1071" y="435" on="0"/>
        <pt x="1110" y="618" on="0"/>
        <pt x="1110" y="733" on="1"/>
        <pt x="1110" y="848" on="0"/>
        <pt x="1071" y="1031" on="0"/>
        <pt x="990" y="1159" on="0"/>
        <pt x="864" y="1227" on="0"/>
        <pt x="776" y="1227" on="1"/>
        <pt x="689" y="1227" on="0"/>
        <pt x="561" y="1159" on="0"/>
        <pt x="478" y="1031" on="0"/>
        <pt x="438" y="848" on="0"/>
      </contour>
    </TTGlyph>
    <TTGlyph name="Oacute" xMin="119" yMin="-20" xMax="1430" yMax="1907">
      <component glyphName="O" x="0" y="0" flags="0x1204"/>
      <component glyphName="acute" x="258" y="338" flags="0x1004"/>
    </TTGlyph>
    <TTGlyph name="Ocircumflex" xMin="119" yMin="-20" xMax="1430" yMax="1907">
      <component glyphName="O" x="0" y="0" flags="0x1204"/>
      <component glyphName="circumflex" x="174" y="338" flags="0x1004"/>
    </TTGlyph>
    <TTGlyph name="Odieresis" xMin="119" yMin="-20" xMax="1430" yMax="1878">
      <component glyphName="O" x="0" y="0" flags="0x1204"/>
      <component glyphName="dieresis" x="180" y="338" flags="0x1004"/>
    </TTGlyph>
    <TTGlyph name="Ograve" xMin="119" yMin="-20" xMax="1430" yMax="1907">
      <component glyphName="O" x="0" y="0" flags="0x1204"/>
      <component glyphName="grave" x="84" y="338" flags="0x1004"/>
    </TTGlyph>
    <TTGlyph name="Oslash" xMin="119" yMin="-76" xMax="1430" yMax="1532">
      <contour>
        <pt x="1430" y="733" on="1"/>
        <pt x="1430" y="564" on="0"/>
        <pt x="1351" y="286" on="0"/>
        <pt x="1189" y="88" on="0"/>
        <pt x="942" y="-20" on="0"/>
        <pt x="774" y="-20" on="1"/>
        <pt x="595" y="-20" on="0"/>
        <pt x="467" y="41" on="1"/>
        <pt x="395" y="-76" on="1"/>
        <pt x="227" y="18" on="1"/>
        <pt x="309" y="152" on="1"/>
        <pt x="212" y="252" on="0"/>
        <pt x="119" y="548" on="0"/>
        <pt x="119" y="735" on="1"/>
        <pt x="119" y="905" on="0"/>
        <pt x="198" y="1182" on="0"/>
        <pt x="360" y="1378" on="0"/>
        <pt x="607" y="1485" on="0"/>
        <pt x="776" y="1485" on="1"/>
        <pt x="867" y="1485" on="0"/>
        <pt x="1022" y="1452" on="0"/>
        <pt x="1087" y="1421" on="1"/>
        <pt x="1157" y="1532" on="1"/>
        <pt x="1323" y="1436" on="1"/>
        <pt x="1243" y="1307" on="1"/>
        <pt x="1337" y="1208" on="0"/>
        <pt x="1430" y="917" on="0"/>
      </contour>
      <contour>
        <pt x="438" y="733" on="1"/>
        <pt x="438" y="553" on="0"/>
        <pt x="485" y="438" on="1"/>
        <pt x="942" y="1184" on="1"/>
        <pt x="873" y="1227" on="0"/>
        <pt x="776" y="1227" on="1"/>
        <pt x="689" y="1227" on="0"/>
        <pt x="561" y="1159" on="0"/>
        <pt x="478" y="1031" on="0"/>
        <pt x="438" y="848" on="0"/>
      </contour>
      <contour>
        <pt x="1110" y="733" on="1"/>
        <pt x="1110" y="904" on="0"/>
        <pt x="1067" y="1020" on="1"/>
        <pt x="612" y="279" on="1"/>
        <pt x="646" y="260" on="0"/>
        <pt x="726" y="240" on="0"/>
        <pt x="774" y="240" on="1"/>
        <pt x="863" y="240" on="0"/>
        <pt x="990" y="308" on="0"/>
        <pt x="1071" y="435" on="0"/>
        <pt x="1110" y="618" on="0"/>
      </contour>
    </TTGlyph>
    <TTGlyph name="Otilde" xMin="119" yMin="-20" xMax="1430" yMax="1888">
      <component glyphName="O" x="0" y="0" flags="0x1204"/>
      <component glyphName="tilde" x="186" y="338" flags="0x1004"/>
    </TTGlyph>
    <TTGlyph name="P" xMin="184" yMin="0" xMax="1133" yMax="1462">
      <contour>
        <pt x="494" y="774" on="1"/>
        <pt x="555" y="774" on="1"/>
        <pt x="686" y="774" on="0"/>
        <pt x="819" y="878" on="0"/>
        <pt x="819" y="995" on="1"/>
        <pt x="819" y="1104" on="0"/>
        <pt x="700" y="1208" on="0"/>
        <pt x="573" y="1208" on="1"/>
        <pt x="494" y="1208" on="1"/>
      </contour>
      <contour>
        <pt x="1133" y="1006" on="1"/>
        <pt x="1133" y="910" on="0"/>
        <pt x="1075" y="734" on="0"/>
        <pt x="942" y="600" on="0"/>
        <pt x="725" y="520" on="0"/>
        <pt x="565" y="520" on="1"/>
        <pt x="494" y="520" on="1"/>
        <pt x="494" y="0" on="1"/>
        <pt x="184" y="0" on="1"/>
        <pt x="184" y="1462" on="1"/>
        <pt x="590" y="1462" on="1"/>
        <pt x="731" y="1462" on="0"/>
        <pt x="936" y="1399" on="0"/>
        <pt x="1069" y="1282" on="0"/>
        <pt x="1133" y="1113" on="0"/>
      </contour>
    </TTGlyph>
    <TTGlyph name="Q" xMin="119" yMin="-348" xMax="1473" yMax="1485">
      <contour>
        <pt x="1430" y="733" on="1"/>
        <pt x="1430" y="614" on="0"/>
        <pt x="1391" y="405" on="0"/>
        <pt x="1312" y="233" on="0"/>
        <pt x="1193" y="99" on="0"/>
        <pt x="1112" y="55" on="1"/>
        <pt x="1473" y="-348" on="1"/>
        <pt x="1075" y="-348" on="1"/>
        <pt x="807" y="-18" on="1"/>
        <pt x="800" y="-18" on="0"/>
        <pt x="794" y="-19" on="1"/>
        <pt x="789" y="-20" on="0"/>
        <pt x="778" y="-20" on="0"/>
        <pt x="774" y="-20" on="1"/>
        <pt x="606" y="-20" on="0"/>
        <pt x="359" y="88" on="0"/>
        <pt x="198" y="286" on="0"/>
        <pt x="119" y="565" on="0"/>
        <pt x="119" y="735" on="1"/>
        <pt x="119" y="905" on="0"/>
        <pt x="198" y="1182" on="0"/>
        <pt x="360" y="1378" on="0"/>
        <pt x="607" y="1485" on="0"/>
        <pt x="776" y="1485" on="1"/>
        <pt x="944" y="1485" on="0"/>
        <pt x="1190" y="1378" on="0"/>
        <pt x="1351" y="1181" on="0"/>
        <pt x="1430" y="904" on="0"/>
      </contour>
      <contour>
        <pt x="438" y="733" on="1"/>
        <pt x="438" y="618" on="0"/>
        <pt x="478" y="435" on="0"/>
        <pt x="561" y="308" on="0"/>
        <pt x="687" y="240" on="0"/>
        <pt x="774" y="240" on="1"/>
        <pt x="863" y="240" on="0"/>
        <pt x="990" y="308" on="0"/>
        <pt x="1071" y="435" on="0"/>
        <pt x="1110" y="618" on="0"/>
        <pt x="1110" y="733" on="1"/>
        <pt x="1110" y="848" on="0"/>
        <pt x="1071" y="1031" on="0"/>
        <pt x="990" y="1159" on="0"/>
        <pt x="864" y="1227" on="0"/>
        <pt x="776" y="1227" on="1"/>
        <pt x="689" y="1227" on="0"/>
        <pt x="561" y="1159" on="0"/>
        <pt x="478" y="1031" on="0"/>
        <pt x="438" y="848" on="0"/>
      </contour>
    </TTGlyph>
    <TTGlyph name="R" xMin="184" yMin="0" xMax="1290" yMax="1462">
      <contour>
        <pt x="494" y="813" on="1"/>
        <pt x="578" y="813" on="1"/>
        <pt x="707" y="813" on="0"/>
        <pt x="819" y="916" on="0"/>
        <pt x="819" y="1016" on="1"/>
        <pt x="819" y="1120" on="0"/>
        <pt x="699" y="1208" on="0"/>
        <pt x="573" y="1208" on="1"/>
        <pt x="494" y="1208" on="1"/>
      </contour>
      <contour>
        <pt x="494" y="561" on="1"/>
        <pt x="494" y="0" on="1"/>
        <pt x="184" y="0" on="1"/>
        <pt x="184" y="1462" on="1"/>
        <pt x="584" y="1462" on="1"/>
        <pt x="865" y="1462" on="0"/>
        <pt x="1133" y="1245" on="0"/>
        <pt x="1133" y="1024" on="1"/>
        <pt x="1133" y="949" on="0"/>
        <pt x="1093" y="827" on="0"/>
        <pt x="1026" y="732" on="0"/>
        <pt x="939" y="661" on="0"/>
        <pt x="891" y="637" on="1"/>
        <pt x="1002" y="459" on="0"/>
        <pt x="1090" y="319" on="1"/>
        <pt x="1128" y="259" on="0"/>
        <pt x="1199" y="145" on="0"/>
        <pt x="1255" y="55" on="0"/>
        <pt x="1273" y="28" on="1"/>
        <pt x="1290" y="0" on="1"/>
        <pt x="946" y="0" on="1"/>
        <pt x="629" y="561" on="1"/>
      </contour>
    </TTGlyph>
    <TTGlyph name="S" xMin="94" yMin="-20" xMax="985" yMax="1483">
      <contour>
        <pt x="985" y="406" on="1"/>
        <pt x="985" y="308" on="0"/>
        <pt x="918" y="151" on="0"/>
        <pt x="789" y="40" on="0"/>
        <pt x="602" y="-20" on="0"/>
        <pt x="481" y="-20" on="1"/>
        <pt x="375" y="-20" on="0"/>
        <pt x="178" y="24" on="0"/>
        <pt x="94" y="68" on="1"/>
        <pt x="94" y="356" on="1"/>
        <pt x="142" y="333" on="0"/>
        <pt x="240" y="290" on="0"/>
        <pt x="341" y="256" on="0"/>
        <pt x="442" y="236" on="0"/>
        <pt x="492" y="236" on="1"/>
        <pt x="543" y="236" on="0"/>
        <pt x="616" y="259" on="0"/>
        <pt x="661" y="300" on="0"/>
        <pt x="682" y="357" on="0"/>
        <pt x="682" y="391" on="1"/>
        <pt x="682" y="432" on="0"/>
        <pt x="647" y="495" on="0"/>
        <pt x="584" y="550" on="0"/>
        <pt x="495" y="602" on="0"/>
        <pt x="440" y="631" on="1"/>
        <pt x="394" y="655" on="0"/>
        <pt x="280" y="723" on="0"/>
        <pt x="179" y="824" on="0"/>
        <pt x="111" y="967" on="0"/>
        <pt x="111" y="1067" on="1"/>
        <pt x="111" y="1165" on="0"/>
        <pt x="176" y="1320" on="0"/>
        <pt x="296" y="1427" on="0"/>
        <pt x="467" y="1483" on="0"/>
        <pt x="573" y="1483" on="1"/>
        <pt x="626" y="1483" on="0"/>
        <pt x="727" y="1469" on="0"/>
        <pt x="826" y="1443" on="0"/>
        <pt x="926" y="1405" on="0"/>
        <pt x="979" y="1380" on="1"/>
        <pt x="879" y="1139" on="1"/>
        <pt x="834" y="1160" on="0"/>
        <pt x="756" y="1192" on="0"/>
        <pt x="682" y="1214" on="0"/>
        <pt x="611" y="1225" on="0"/>
        <pt x="575" y="1225" on="1"/>
        <pt x="497" y="1225" on="0"/>
        <pt x="414" y="1142" on="0"/>
        <pt x="414" y="1073" on="1"/>
        <pt x="414" y="1036" on="0"/>
        <pt x="439" y="979" on="0"/>
        <pt x="494" y="929" on="0"/>
        <pt x="581" y="877" on="0"/>
        <pt x="643" y="844" on="1"/>
        <pt x="718" y="804" on="0"/>
        <pt x="844" y="721" on="0"/>
        <pt x="935" y="620" on="0"/>
        <pt x="985" y="492" on="0"/>
      </contour>
    </TTGlyph>
    <TTGlyph name="T" xMin="41" yMin="0" xMax="1083" yMax="1462">
      <contour>
        <pt x="717" y="0" on="1"/>
        <pt x="408" y="0" on="1"/>
        <pt x="408" y="1204" on="1"/>
        <pt x="41" y="1204" on="1"/>
        <pt x="41" y="1462" on="1"/>
        <pt x="1083" y="1462" on="1"/>
        <pt x="1083" y="1204" on="1"/>
        <pt x="717" y="1204" on="1"/>
      </contour>
    </TTGlyph>
    <TTGlyph name="Thorn" xMin="184" yMin="0" xMax="1133" yMax="1462">
      <contour>
        <pt x="1133" y="770" on="1"/>
        <pt x="1133" y="676" on="0"/>
        <pt x="1082" y="504" on="0"/>
        <pt x="965" y="372" on="0"/>
        <pt x="774" y="293" on="0"/>
        <pt x="633" y="293" on="1"/>
        <pt x="494" y="293" on="1"/>
        <pt x="494" y="0" on="1"/>
        <pt x="184" y="0" on="1"/>
        <pt x="184" y="1462" on="1"/>
        <pt x="494" y="1462" on="1"/>
        <pt x="494" y="1233" on="1"/>
        <pt x="655" y="1233" on="1"/>
        <pt x="779" y="1233" on="0"/>
        <pt x="959" y="1167" on="0"/>
        <pt x="1076" y="1046" on="0"/>
        <pt x="1133" y="875" on="0"/>
      </contour>
      <contour>
        <pt x="494" y="543" on="1"/>
        <pt x="578" y="543" on="1"/>
        <pt x="699" y="543" on="0"/>
        <pt x="819" y="648" on="0"/>
        <pt x="819" y="770" on="1"/>
        <pt x="819" y="878" on="0"/>
        <pt x="713" y="981" on="0"/>
        <pt x="598" y="981" on="1"/>
        <pt x="494" y="981" on="1"/>
      </contour>
    </TTGlyph>
    <TTGlyph name="U" xMin="174" yMin="-20" xMax="1292" yMax="1462">
      <contour>
        <pt x="1292" y="1462" on="1"/>
        <pt x="1292" y="516" on="1"/>
        <pt x="1292" y="402" on="0"/>
        <pt x="1223" y="206" on="0"/>
        <pt x="1082" y="62" on="0"/>
        <pt x="870" y="-20" on="0"/>
        <pt x="727" y="-20" on="1"/>
        <pt x="592" y="-20" on="0"/>
        <pt x="385" y="57" on="0"/>
        <pt x="246" y="199" on="0"/>
        <pt x="174" y="398" on="0"/>
        <pt x="174" y="520" on="1"/>
        <pt x="174" y="1462" on="1"/>
        <pt x="483" y="1462" on="1"/>
        <pt x="483" y="543" on="1"/>
        <pt x="483" y="462" on="0"/>
        <pt x="515" y="347" on="0"/>
        <pt x="578" y="274" on="0"/>
        <pt x="672" y="240" on="0"/>
        <pt x="735" y="240" on="1"/>
        <pt x="866" y="240" on="0"/>
        <pt x="983" y="392" on="0"/>
        <pt x="983" y="545" on="1"/>
        <pt x="983" y="1462" on="1"/>
      </contour>
    </TTGlyph>
    <TTGlyph name="Uacute" xMin="174" yMin="-20" xMax="1292" yMax="1907">
      <component glyphName="U" x="0" y="0" flags="0x1204"/>
      <component glyphName="acute" x="238" y="338" flags="0x1004"/>
    </TTGlyph>
    <TTGlyph name="Ucircumflex" xMin="174" yMin="-20" xMax="1292" yMax="1907">
      <component glyphName="U" x="0" y="0" flags="0x1204"/>
      <component glyphName="circumflex" x="141" y="338" flags="0x1004"/>
    </TTGlyph>
    <TTGlyph name="Udieresis" xMin="174" yMin="-20" xMax="1292" yMax="1878">
      <component glyphName="U" x="0" y="0" flags="0x1204"/>
      <component glyphName="dieresis" x="145" y="338" flags="0x1004"/>
    </TTGlyph>
    <TTGlyph name="Ugrave" xMin="174" yMin="-20" xMax="1292" yMax="1907">
      <component glyphName="U" x="0" y="0" flags="0x1204"/>
      <component glyphName="grave" x="61" y="338" flags="0x1004"/>
    </TTGlyph>
    <TTGlyph name="V" xMin="0" yMin="0" xMax="1249" yMax="1462">
      <contour>
        <pt x="936" y="1462" on="1"/>
        <pt x="1249" y="1462" on="1"/>
        <pt x="793" y="0" on="1"/>
        <pt x="455" y="0" on="1"/>
        <pt x="0" y="1462" on="1"/>
        <pt x="313" y="1462" on="1"/>
        <pt x="561" y="582" on="1"/>
        <pt x="566" y="565" on="0"/>
        <pt x="583" y="485" on="0"/>
        <pt x="602" y="389" on="0"/>
        <pt x="620" y="293" on="0"/>
        <pt x="625" y="260" on="1"/>
        <pt x="630" y="293" on="0"/>
        <pt x="648" y="389" on="0"/>
        <pt x="668" y="484" on="0"/>
        <pt x="687" y="564" on="0"/>
        <pt x="692" y="582" on="1"/>
      </contour>
    </TTGlyph>
    <TTGlyph name="W" xMin="0" yMin="0" xMax="1898" yMax="1462">
      <contour>
        <pt x="1546" y="0" on="1"/>
        <pt x="1194" y="0" on="1"/>
        <pt x="1014" y="721" on="1"/>
        <pt x="1010" y="736" on="0"/>
        <pt x="999" y="790" on="0"/>
        <pt x="985" y="858" on="0"/>
        <pt x="971" y="932" on="0"/>
        <pt x="959" y="1002" on="0"/>
        <pt x="950" y="1061" on="0"/>
        <pt x="948" y="1079" on="1"/>
        <pt x="946" y="1061" on="0"/>
        <pt x="937" y="1002" on="0"/>
        <pt x="925" y="933" on="0"/>
        <pt x="912" y="859" on="0"/>
        <pt x="899" y="791" on="0"/>
        <pt x="887" y="735" on="0"/>
        <pt x="883" y="719" on="1"/>
        <pt x="705" y="0" on="1"/>
        <pt x="352" y="0" on="1"/>
        <pt x="0" y="1462" on="1"/>
        <pt x="305" y="1462" on="1"/>
        <pt x="471" y="664" on="1"/>
        <pt x="474" y="648" on="0"/>
        <pt x="485" y="587" on="0"/>
        <pt x="499" y="511" on="0"/>
        <pt x="514" y="427" on="0"/>
        <pt x="528" y="347" on="0"/>
        <pt x="540" y="278" on="0"/>
        <pt x="543" y="256" on="1"/>
        <pt x="546" y="278" on="0"/>
        <pt x="557" y="346" on="0"/>
        <pt x="569" y="423" on="0"/>
        <pt x="584" y="505" on="0"/>
        <pt x="596" y="576" on="0"/>
        <pt x="607" y="631" on="0"/>
        <pt x="610" y="643" on="1"/>
        <pt x="813" y="1462" on="1"/>
        <pt x="1085" y="1462" on="1"/>
        <pt x="1288" y="643" on="1"/>
        <pt x="1291" y="631" on="0"/>
        <pt x="1302" y="576" on="0"/>
        <pt x="1315" y="505" on="0"/>
        <pt x="1329" y="423" on="0"/>
        <pt x="1342" y="346" on="0"/>
        <pt x="1353" y="278" on="0"/>
        <pt x="1356" y="256" on="1"/>
        <pt x="1359" y="278" on="0"/>
        <pt x="1370" y="347" on="0"/>
        <pt x="1384" y="427" on="0"/>
        <pt x="1399" y="511" on="0"/>
        <pt x="1413" y="587" on="0"/>
        <pt x="1424" y="648" on="0"/>
        <pt x="1427" y="664" on="1"/>
        <pt x="1593" y="1462" on="1"/>
        <pt x="1898" y="1462" on="1"/>
      </contour>
    </TTGlyph>
    <TTGlyph name="X" xMin="0" yMin="0" xMax="1284" yMax="1462">
      <contour>
        <pt x="1284" y="0" on="1"/>
        <pt x="930" y="0" on="1"/>
        <pt x="631" y="553" on="1"/>
        <pt x="332" y="0" on="1"/>
        <pt x="0" y="0" on="1"/>
        <pt x="444" y="754" on="1"/>
        <pt x="31" y="1462" on="1"/>
        <pt x="373" y="1462" on="1"/>
        <pt x="647" y="936" on="1"/>
        <pt x="915" y="1462" on="1"/>
        <pt x="1249" y="1462" on="1"/>
        <pt x="831" y="737" on="1"/>
      </contour>
    </TTGlyph>
    <TTGlyph name="Y" xMin="0" yMin="0" xMax="1196" yMax="1462">
      <contour>
        <pt x="598" y="860" on="1"/>
        <pt x="862" y="1462" on="1"/>
        <pt x="1196" y="1462" on="1"/>
        <pt x="752" y="569" on="1"/>
        <pt x="752" y="0" on="1"/>
        <pt x="444" y="0" on="1"/>
        <pt x="444" y="559" on="1"/>
        <pt x="0" y="1462" on="1"/>
        <pt x="336" y="1462" on="1"/>
      </contour>
    </TTGlyph>
    <TTGlyph name="Yacute" xMin="0" yMin="0" xMax="1196" yMax="1907">
      <component glyphName="Y" x="0" y="0" flags="0x1204"/>
      <component glyphName="acute" x="90" y="338" flags="0x1004"/>
    </TTGlyph>
    <TTGlyph name="Z" xMin="49" yMin="0" xMax="1055" yMax="1462">
      <contour>
        <pt x="1055" y="0" on="1"/>
        <pt x="49" y="0" on="1"/>
        <pt x="49" y="201" on="1"/>
        <pt x="668" y="1206" on="1"/>
        <pt x="68" y="1206" on="1"/>
        <pt x="68" y="1462" on="1"/>
        <pt x="1036" y="1462" on="1"/>
        <pt x="1036" y="1262" on="1"/>
        <pt x="418" y="256" on="1"/>
        <pt x="1055" y="256" on="1"/>
      </contour>
    </TTGlyph>
    <TTGlyph name="a" xMin="86" yMin="-20" xMax="1022" yMax="1141">
      <contour>
        <pt x="809" y="0" on="1"/>
        <pt x="750" y="152" on="1"/>
        <pt x="741" y="152" on="1"/>
        <pt x="708" y="107" on="0"/>
        <pt x="642" y="42" on="0"/>
        <pt x="564" y="0" on="0"/>
        <pt x="467" y="-20" on="0"/>
        <pt x="403" y="-20" on="1"/>
        <pt x="335" y="-20" on="0"/>
        <pt x="219" y="23" on="0"/>
        <pt x="134" y="110" on="0"/>
        <pt x="86" y="243" on="0"/>
        <pt x="86" y="334" on="1"/>
        <pt x="86" y="512" on="0"/>
        <pt x="314" y="681" on="0"/>
        <pt x="541" y="690" on="1"/>
        <pt x="719" y="696" on="1"/>
        <pt x="719" y="780" on="1"/>
        <pt x="719" y="849" on="0"/>
        <pt x="639" y="915" on="0"/>
        <pt x="567" y="915" on="1"/>
        <pt x="495" y="915" on="0"/>
        <pt x="358" y="873" on="0"/>
        <pt x="289" y="838" on="1"/>
        <pt x="190" y="1040" on="1"/>
        <pt x="274" y="1087" on="0"/>
        <pt x="478" y="1141" on="0"/>
        <pt x="590" y="1141" on="1"/>
        <pt x="799" y="1141" on="0"/>
        <pt x="1022" y="945" on="0"/>
        <pt x="1022" y="745" on="1"/>
        <pt x="1022" y="0" on="1"/>
      </contour>
      <contour>
        <pt x="719" y="518" on="1"/>
        <pt x="618" y="514" on="1"/>
        <pt x="557" y="512" on="0"/>
        <pt x="473" y="484" on="0"/>
        <pt x="422" y="437" on="0"/>
        <pt x="399" y="372" on="0"/>
        <pt x="399" y="332" on="1"/>
        <pt x="399" y="262" on="0"/>
        <pt x="467" y="203" on="0"/>
        <pt x="522" y="203" on="1"/>
        <pt x="564" y="203" on="0"/>
        <pt x="636" y="232" on="0"/>
        <pt x="689" y="289" on="0"/>
        <pt x="719" y="372" on="0"/>
        <pt x="719" y="426" on="1"/>
      </contour>
    </TTGlyph>
    <TTGlyph name="aacute" xMin="86" yMin="-20" xMax="1022" yMax="1569">
      <component glyphName="a" x="0" y="0" flags="0x1204"/>
      <component glyphName="acute" x="109" y="0" flags="0x1004"/>
    </TTGlyph>
    <TTGlyph name="acircumflex" xMin="86" yMin="-20" xMax="1022" yMax="1568">
      <component glyphName="a" x="0" y="0" flags="0x1204"/>
      <component glyphName="circumflex" x="0" y="-1" flags="0x1004"/>
    </TTGlyph>
    <TTGlyph name="acute" xMin="332" yMin="1241" xMax="848" yMax="1569">
      <contour>
        <pt x="332" y="1241" on="1"/>
        <pt x="332" y="1268" on="1"/>
        <pt x="353" y="1297" on="0"/>
        <pt x="401" y="1373" on="0"/>
        <pt x="448" y="1454" on="0"/>
        <pt x="490" y="1535" on="0"/>
        <pt x="506" y="1569" on="1"/>
        <pt x="848" y="1569" on="1"/>
        <pt x="848" y="1548" on="1"/>
        <pt x="837" y="1530" on="0"/>
        <pt x="795" y="1481" on="0"/>
        <pt x="741" y="1425" on="0"/>
        <pt x="679" y="1366" on="0"/>
        <pt x="616" y="1310" on="0"/>
        <pt x="558" y="1260" on="0"/>
        <pt x="535" y="1241" on="1"/>
      </contour>
    </TTGlyph>
    <TTGlyph name="adieresis" xMin="86" yMin="-20" xMax="1022" yMax="1540">
      <component glyphName="a" x="0" y="0" flags="0x1204"/>
      <component glyphName="dieresis" x="6" y="0" flags="0x1004"/>
    </TTGlyph>
    <TTGlyph name="ae" xMin="86" yMin="-20" xMax="1708" yMax="1141">
      <contour>
        <pt x="1268" y="-20" on="1"/>
        <pt x="1137" y="-20" on="0"/>
        <pt x="923" y="81" on="0"/>
        <pt x="854" y="186" on="1"/>
        <pt x="811" y="132" on="0"/>
        <pt x="727" y="55" on="0"/>
        <pt x="629" y="4" on="0"/>
        <pt x="506" y="-20" on="0"/>
        <pt x="424" y="-20" on="1"/>
        <pt x="356" y="-20" on="0"/>
        <pt x="233" y="23" on="0"/>
        <pt x="140" y="110" on="0"/>
        <pt x="86" y="243" on="0"/>
        <pt x="86" y="334" on="1"/>
        <pt x="86" y="512" on="0"/>
        <pt x="314" y="681" on="0"/>
        <pt x="541" y="690" on="1"/>
        <pt x="719" y="696" on="1"/>
        <pt x="719" y="780" on="1"/>
        <pt x="719" y="849" on="0"/>
        <pt x="639" y="915" on="0"/>
        <pt x="567" y="915" on="1"/>
        <pt x="495" y="915" on="0"/>
        <pt x="358" y="873" on="0"/>
        <pt x="289" y="838" on="1"/>
        <pt x="190" y="1040" on="1"/>
        <pt x="274" y="1087" on="0"/>
        <pt x="478" y="1141" on="0"/>
        <pt x="590" y="1141" on="1"/>
        <pt x="804" y="1141" on="0"/>
        <pt x="913" y="1010" on="1"/>
        <pt x="1039" y="1139" on="0"/>
        <pt x="1227" y="1139" on="1"/>
        <pt x="1338" y="1139" on="0"/>
        <pt x="1517" y="1072" on="0"/>
        <pt x="1641" y="942" on="0"/>
        <pt x="1708" y="753" on="0"/>
        <pt x="1708" y="631" on="1"/>
        <pt x="1708" y="483" on="1"/>
        <pt x="1026" y="483" on="1"/>
        <pt x="1028" y="419" on="0"/>
        <pt x="1065" y="316" on="0"/>
        <pt x="1132" y="245" on="0"/>
        <pt x="1227" y="207" on="0"/>
        <pt x="1288" y="207" on="1"/>
        <pt x="1382" y="207" on="0"/>
        <pt x="1557" y="250" on="0"/>
        <pt x="1645" y="295" on="1"/>
        <pt x="1645" y="59" on="1"/>
        <pt x="1605" y="38" on="0"/>
        <pt x="1524" y="9" on="0"/>
        <pt x="1434" y="-11" on="0"/>
        <pt x="1330" y="-20" on="0"/>
      </contour>
      <contour>
        <pt x="719" y="518" on="1"/>
        <pt x="618" y="514" on="1"/>
        <pt x="557" y="512" on="0"/>
        <pt x="473" y="484" on="0"/>
        <pt x="422" y="437" on="0"/>
        <pt x="399" y="372" on="0"/>
        <pt x="399" y="332" on="1"/>
        <pt x="399" y="262" on="0"/>
        <pt x="467" y="203" on="0"/>
        <pt x="522" y="203" on="1"/>
        <pt x="564" y="203" on="0"/>
        <pt x="636" y="232" on="0"/>
        <pt x="689" y="289" on="0"/>
        <pt x="719" y="372" on="0"/>
        <pt x="719" y="426" on="1"/>
      </contour>
      <contour>
        <pt x="1229" y="922" on="1"/>
        <pt x="1147" y="922" on="0"/>
        <pt x="1040" y="808" on="0"/>
        <pt x="1032" y="686" on="1"/>
        <pt x="1421" y="686" on="1"/>
        <pt x="1420" y="737" on="0"/>
        <pt x="1396" y="823" on="0"/>
        <pt x="1349" y="886" on="0"/>
        <pt x="1277" y="922" on="0"/>
      </contour>
    </TTGlyph>
    <TTGlyph name="agrave" xMin="86" yMin="-20" xMax="1022" yMax="1569">
      <component glyphName="a" x="0" y="0" flags="0x1204"/>
      <component glyphName="grave" x="-93" y="0" flags="0x1004"/>
    </TTGlyph>
    <TTGlyph name="ampersand" xMin="82" yMin="-20" xMax="1475" yMax="1483">
      <contour>
        <pt x="1475" y="0" on="1"/>
        <pt x="1098" y="0" on="1"/>
        <pt x="1001" y="100" on="1"/>
        <pt x="921" y="45" on="0"/>
        <pt x="728" y="-20" on="0"/>
        <pt x="612" y="-20" on="1"/>
        <pt x="492" y="-20" on="0"/>
        <pt x="297" y="40" on="0"/>
        <pt x="158" y="149" on="0"/>
        <pt x="82" y="302" on="0"/>
        <pt x="82" y="395" on="1"/>
        <pt x="82" y="472" on="0"/>
        <pt x="119" y="593" on="0"/>
        <pt x="187" y="691" on="0"/>
        <pt x="284" y="771" on="0"/>
        <pt x="344" y="807" on="1"/>
        <pt x="306" y="853" on="0"/>
        <pt x="253" y="938" on="0"/>
        <pt x="221" y="1021" on="0"/>
        <pt x="207" y="1104" on="0"/>
        <pt x="207" y="1149" on="1"/>
        <pt x="207" y="1227" on="0"/>
        <pt x="268" y="1350" on="0"/>
        <pt x="377" y="1437" on="0"/>
        <pt x="528" y="1483" on="0"/>
        <pt x="618" y="1483" on="1"/>
        <pt x="704" y="1483" on="0"/>
        <pt x="849" y="1441" on="0"/>
        <pt x="954" y="1360" on="0"/>
        <pt x="1014" y="1241" on="0"/>
        <pt x="1014" y="1165" on="1"/>
        <pt x="1014" y="1096" on="0"/>
        <pt x="969" y="981" on="0"/>
        <pt x="893" y="883" on="0"/>
        <pt x="790" y="801" on="0"/>
        <pt x="731" y="766" on="1"/>
        <pt x="991" y="498" on="1"/>
        <pt x="1026" y="564" on="0"/>
        <pt x="1079" y="710" on="0"/>
        <pt x="1098" y="784" on="1"/>
        <pt x="1415" y="784" on="1"/>
        <pt x="1400" y="727" on="0"/>
        <pt x="1359" y="601" on="0"/>
        <pt x="1305" y="474" on="0"/>
        <pt x="1235" y="348" on="0"/>
        <pt x="1192" y="291" on="1"/>
      </contour>
      <contour>
        <pt x="403" y="424" on="1"/>
        <pt x="403" y="380" on="0"/>
        <pt x="435" y="310" on="0"/>
        <pt x="492" y="262" on="0"/>
        <pt x="569" y="236" on="0"/>
        <pt x="614" y="236" on="1"/>
        <pt x="674" y="236" on="0"/>
        <pt x="776" y="267" on="0"/>
        <pt x="819" y="295" on="1"/>
        <pt x="510" y="625" on="1"/>
        <pt x="459" y="583" on="0"/>
        <pt x="403" y="487" on="0"/>
      </contour>
      <contour>
        <pt x="731" y="1124" on="1"/>
        <pt x="731" y="1155" on="0"/>
        <pt x="711" y="1198" on="0"/>
        <pt x="678" y="1226" on="0"/>
        <pt x="637" y="1239" on="0"/>
        <pt x="616" y="1239" on="1"/>
        <pt x="594" y="1239" on="0"/>
        <pt x="549" y="1227" on="0"/>
        <pt x="512" y="1200" on="0"/>
        <pt x="489" y="1155" on="0"/>
        <pt x="489" y="1122" on="1"/>
        <pt x="489" y="1070" on="0"/>
        <pt x="535" y="978" on="0"/>
        <pt x="575" y="932" on="1"/>
        <pt x="652" y="976" on="0"/>
        <pt x="731" y="1064" on="0"/>
      </contour>
    </TTGlyph>
    <TTGlyph name="aring" xMin="86" yMin="-20" xMax="1022" yMax="1714">
      <component glyphName="a" x="0" y="0" flags="0x1204"/>
      <component glyphName="ring" x="0" y="0" flags="0x1004"/>
    </TTGlyph>
    <TTGlyph name="asciicircum" xMin="8" yMin="520" xMax="1085" yMax="1470">
      <contour>
        <pt x="8" y="520" on="1"/>
        <pt x="446" y="1470" on="1"/>
        <pt x="590" y="1470" on="1"/>
        <pt x="1085" y="520" on="1"/>
        <pt x="846" y="520" on="1"/>
        <pt x="524" y="1163" on="1"/>
        <pt x="455" y="1002" on="0"/>
        <pt x="312" y="676" on="0"/>
        <pt x="244" y="520" on="1"/>
      </contour>
    </TTGlyph>
    <TTGlyph name="asciitilde" xMin="88" yMin="551" xMax="1040" yMax="893">
      <contour>
        <pt x="528" y="616" on="1"/>
        <pt x="491" y="632" on="0"/>
        <pt x="434" y="654" on="0"/>
        <pt x="387" y="667" on="0"/>
        <pt x="345" y="672" on="0"/>
        <pt x="322" y="672" on="1"/>
        <pt x="293" y="672" on="0"/>
        <pt x="231" y="653" on="0"/>
        <pt x="171" y="620" on="0"/>
        <pt x="114" y="576" on="0"/>
        <pt x="88" y="551" on="1"/>
        <pt x="88" y="782" on="1"/>
        <pt x="139" y="836" on="0"/>
        <pt x="266" y="891" on="0"/>
        <pt x="344" y="891" on="1"/>
        <pt x="374" y="891" on="0"/>
        <pt x="425" y="886" on="0"/>
        <pt x="482" y="872" on="0"/>
        <pt x="552" y="847" on="0"/>
        <pt x="600" y="827" on="1"/>
        <pt x="638" y="811" on="0"/>
        <pt x="695" y="790" on="0"/>
        <pt x="743" y="777" on="0"/>
        <pt x="785" y="772" on="0"/>
        <pt x="807" y="772" on="1"/>
        <pt x="836" y="772" on="0"/>
        <pt x="898" y="791" on="0"/>
        <pt x="958" y="823" on="0"/>
        <pt x="1015" y="868" on="0"/>
        <pt x="1040" y="893" on="1"/>
        <pt x="1040" y="662" on="1"/>
        <pt x="939" y="553" on="0"/>
        <pt x="784" y="553" on="1"/>
        <pt x="754" y="553" on="0"/>
        <pt x="703" y="558" on="0"/>
        <pt x="646" y="571" on="0"/>
        <pt x="576" y="596" on="0"/>
      </contour>
    </TTGlyph>
    <TTGlyph name="asterisk" xMin="63" yMin="598" xMax="1053" yMax="1556">
      <contour>
        <pt x="688" y="1556" on="1"/>
        <pt x="647" y="1188" on="1"/>
        <pt x="1020" y="1292" on="1"/>
        <pt x="1053" y="1040" on="1"/>
        <pt x="713" y="1016" on="1"/>
        <pt x="936" y="719" on="1"/>
        <pt x="709" y="598" on="1"/>
        <pt x="553" y="911" on="1"/>
        <pt x="416" y="600" on="1"/>
        <pt x="180" y="719" on="1"/>
        <pt x="401" y="1016" on="1"/>
        <pt x="63" y="1042" on="1"/>
        <pt x="102" y="1292" on="1"/>
        <pt x="467" y="1188" on="1"/>
        <pt x="426" y="1556" on="1"/>
      </contour>
    </TTGlyph>
    <TTGlyph name="at" xMin="102" yMin="-154" xMax="1673" yMax="1481">
      <contour>
        <pt x="1673" y="752" on="1"/>
        <pt x="1673" y="657" on="0"/>
        <pt x="1628" y="471" on="0"/>
        <pt x="1536" y="324" on="0"/>
        <pt x="1397" y="233" on="0"/>
        <pt x="1303" y="233" on="1"/>
        <pt x="1265" y="233" on="0"/>
        <pt x="1198" y="252" on="0"/>
        <pt x="1142" y="287" on="0"/>
        <pt x="1101" y="334" on="0"/>
        <pt x="1090" y="362" on="1"/>
        <pt x="1075" y="362" on="1"/>
        <pt x="1056" y="337" on="0"/>
        <pt x="1006" y="290" on="0"/>
        <pt x="944" y="254" on="0"/>
        <pt x="869" y="233" on="0"/>
        <pt x="825" y="233" on="1"/>
        <pt x="742" y="233" on="0"/>
        <pt x="613" y="290" on="0"/>
        <pt x="525" y="395" on="0"/>
        <pt x="479" y="542" on="0"/>
        <pt x="479" y="631" on="1"/>
        <pt x="479" y="734" on="0"/>
        <pt x="541" y="906" on="0"/>
        <pt x="657" y="1031" on="0"/>
        <pt x="823" y="1100" on="0"/>
        <pt x="926" y="1100" on="1"/>
        <pt x="971" y="1100" on="0"/>
        <pt x="1067" y="1090" on="0"/>
        <pt x="1156" y="1074" on="0"/>
        <pt x="1234" y="1054" on="0"/>
        <pt x="1262" y="1044" on="1"/>
        <pt x="1241" y="625" on="1"/>
        <pt x="1239" y="603" on="0"/>
        <pt x="1239" y="561" on="0"/>
        <pt x="1239" y="555" on="1"/>
        <pt x="1239" y="513" on="0"/>
        <pt x="1252" y="459" on="0"/>
        <pt x="1273" y="428" on="0"/>
        <pt x="1300" y="416" on="0"/>
        <pt x="1315" y="416" on="1"/>
        <pt x="1350" y="416" on="0"/>
        <pt x="1402" y="470" on="0"/>
        <pt x="1436" y="562" on="0"/>
        <pt x="1454" y="685" on="0"/>
        <pt x="1454" y="754" on="1"/>
        <pt x="1454" y="882" on="0"/>
        <pt x="1378" y="1082" on="0"/>
        <pt x="1243" y="1220" on="0"/>
        <pt x="1057" y="1292" on="0"/>
        <pt x="948" y="1292" on="1"/>
        <pt x="795" y="1292" on="0"/>
        <pt x="562" y="1190" on="0"/>
        <pt x="405" y="1007" on="0"/>
        <pt x="324" y="757" on="0"/>
        <pt x="324" y="608" on="1"/>
        <pt x="324" y="470" on="0"/>
        <pt x="394" y="257" on="0"/>
        <pt x="532" y="112" on="0"/>
        <pt x="734" y="37" on="0"/>
        <pt x="866" y="37" on="1"/>
        <pt x="922" y="37" on="0"/>
        <pt x="1040" y="51" on="0"/>
        <pt x="1157" y="75" on="0"/>
        <pt x="1270" y="109" on="0"/>
        <pt x="1321" y="129" on="1"/>
        <pt x="1321" y="-63" on="1"/>
        <pt x="1227" y="-105" on="0"/>
        <pt x="998" y="-154" on="0"/>
        <pt x="868" y="-154" on="1"/>
        <pt x="687" y="-154" on="0"/>
        <pt x="402" y="-51" on="0"/>
        <pt x="206" y="143" on="0"/>
        <pt x="102" y="424" on="0"/>
        <pt x="102" y="602" on="1"/>
        <pt x="102" y="726" on="0"/>
        <pt x="156" y="953" on="0"/>
        <pt x="258" y="1148" on="0"/>
        <pt x="405" y="1307" on="0"/>
        <pt x="593" y="1420" on="0"/>
        <pt x="819" y="1481" on="0"/>
        <pt x="948" y="1481" on="1"/>
        <pt x="1106" y="1481" on="0"/>
        <pt x="1372" y="1380" on="0"/>
        <pt x="1565" y="1191" on="0"/>
        <pt x="1673" y="921" on="0"/>
      </contour>
      <contour>
        <pt x="711" y="627" on="1"/>
        <pt x="711" y="515" on="0"/>
        <pt x="787" y="416" on="0"/>
        <pt x="850" y="416" on="1"/>
        <pt x="892" y="416" on="0"/>
        <pt x="953" y="455" on="0"/>
        <pt x="992" y="526" on="0"/>
        <pt x="1013" y="625" on="0"/>
        <pt x="1016" y="686" on="1"/>
        <pt x="1028" y="907" on="1"/>
        <pt x="1008" y="912" on="0"/>
        <pt x="954" y="918" on="0"/>
        <pt x="926" y="918" on="1"/>
        <pt x="867" y="918" on="0"/>
        <pt x="785" y="868" on="0"/>
        <pt x="734" y="786" on="0"/>
        <pt x="711" y="681" on="0"/>
      </contour>
    </TTGlyph>
    <TTGlyph name="atilde" xMin="86" yMin="-20" xMax="1022" yMax="1550">
      <component glyphName="a" x="0" y="0" flags="0x1204"/>
      <component glyphName="tilde" x="-1" y="0" flags="0x1004"/>
    </TTGlyph>
    <TTGlyph name="b" xMin="160" yMin="-20" xMax="1143" yMax="1556">
      <contour>
        <pt x="756" y="1139" on="1"/>
        <pt x="842" y="1139" on="0"/>
        <pt x="984" y="1065" on="0"/>
        <pt x="1086" y="919" on="0"/>
        <pt x="1143" y="703" on="0"/>
        <pt x="1143" y="561" on="1"/>
        <pt x="1143" y="417" on="0"/>
        <pt x="1086" y="200" on="0"/>
        <pt x="982" y="54" on="0"/>
        <pt x="836" y="-20" on="0"/>
        <pt x="748" y="-20" on="1"/>
        <pt x="692" y="-20" on="0"/>
        <pt x="605" y="4" on="0"/>
        <pt x="537" y="44" on="0"/>
        <pt x="486" y="95" on="0"/>
        <pt x="465" y="123" on="1"/>
        <pt x="444" y="123" on="1"/>
        <pt x="393" y="0" on="1"/>
        <pt x="160" y="0" on="1"/>
        <pt x="160" y="1556" on="1"/>
        <pt x="465" y="1556" on="1"/>
        <pt x="465" y="1194" on="1"/>
        <pt x="465" y="1161" on="0"/>
        <pt x="461" y="1084" on="0"/>
        <pt x="459" y="1051" on="1"/>
        <pt x="456" y="1012" on="0"/>
        <pt x="453" y="973" on="1"/>
        <pt x="465" y="973" on="1"/>
        <pt x="486" y="1008" on="0"/>
        <pt x="540" y="1068" on="0"/>
        <pt x="611" y="1113" on="0"/>
        <pt x="701" y="1139" on="0"/>
      </contour>
      <contour>
        <pt x="653" y="895" on="1"/>
        <pt x="602" y="895" on="0"/>
        <pt x="531" y="858" on="0"/>
        <pt x="487" y="784" on="0"/>
        <pt x="467" y="671" on="0"/>
        <pt x="465" y="596" on="1"/>
        <pt x="465" y="563" on="1"/>
        <pt x="465" y="482" on="0"/>
        <pt x="484" y="356" on="0"/>
        <pt x="528" y="271" on="0"/>
        <pt x="601" y="227" on="0"/>
        <pt x="655" y="227" on="1"/>
        <pt x="746" y="227" on="0"/>
        <pt x="831" y="400" on="0"/>
        <pt x="831" y="565" on="1"/>
        <pt x="831" y="730" on="0"/>
        <pt x="746" y="895" on="0"/>
      </contour>
    </TTGlyph>
    <TTGlyph name="backslash" xMin="12" yMin="0" xMax="834" yMax="1462">
      <contour>
        <pt x="289" y="1462" on="1"/>
        <pt x="834" y="0" on="1"/>
        <pt x="557" y="0" on="1"/>
        <pt x="12" y="1462" on="1"/>
      </contour>
    </TTGlyph>
    <TTGlyph name="bar" xMin="455" yMin="-465" xMax="674" yMax="1550">
      <contour>
        <pt x="455" y="1550" on="1"/>
        <pt x="674" y="1550" on="1"/>
        <pt x="674" y="-465" on="1"/>
        <pt x="455" y="-465" on="1"/>
      </contour>
    </TTGlyph>
    <TTGlyph name="braceleft" xMin="31" yMin="-324" xMax="725" yMax="1462">
      <contour>
        <pt x="287" y="367" on="0"/>
        <pt x="156" y="449" on="0"/>
        <pt x="31" y="449" on="1"/>
        <pt x="31" y="688" on="1"/>
        <pt x="93" y="688" on="0"/>
        <pt x="190" y="707" on="0"/>
        <pt x="256" y="750" on="0"/>
        <pt x="289" y="818" on="0"/>
        <pt x="287" y="866" on="1"/>
        <pt x="287" y="1184" on="1"/>
        <pt x="287" y="1258" on="0"/>
        <pt x="325" y="1363" on="0"/>
        <pt x="424" y="1430" on="0"/>
        <pt x="594" y="1462" on="0"/>
        <pt x="725" y="1462" on="1"/>
        <pt x="725" y="1237" on="1"/>
        <pt x="685" y="1236" on="0"/>
        <pt x="620" y="1224" on="0"/>
        <pt x="575" y="1193" on="0"/>
        <pt x="551" y="1139" on="0"/>
        <pt x="551" y="1096" on="1"/>
        <pt x="551" y="797" on="1"/>
        <pt x="545" y="610" on="0"/>
        <pt x="317" y="575" on="1"/>
        <pt x="317" y="563" on="1"/>
        <pt x="432" y="546" on="0"/>
        <pt x="554" y="436" on="0"/>
        <pt x="551" y="342" on="1"/>
        <pt x="551" y="43" on="1"/>
        <pt x="551" y="0" on="0"/>
        <pt x="575" y="-54" on="0"/>
        <pt x="620" y="-85" on="0"/>
        <pt x="685" y="-97" on="0"/>
        <pt x="725" y="-98" on="1"/>
        <pt x="725" y="-324" on="1"/>
        <pt x="594" y="-324" on="0"/>
        <pt x="424" y="-292" on="0"/>
        <pt x="325" y="-225" on="0"/>
        <pt x="287" y="-119" on="0"/>
        <pt x="287" y="-45" on="1"/>
        <pt x="287" y="270" on="1"/>
      </contour>
    </TTGlyph>
    <TTGlyph name="braceright" xMin="31" yMin="-324" xMax="725" yMax="1462">
      <contour>
        <pt x="469" y="-45" on="1"/>
        <pt x="469" y="-119" on="0"/>
        <pt x="431" y="-225" on="0"/>
        <pt x="332" y="-292" on="0"/>
        <pt x="162" y="-324" on="0"/>
        <pt x="31" y="-324" on="1"/>
        <pt x="31" y="-98" on="1"/>
        <pt x="71" y="-97" on="0"/>
        <pt x="135" y="-85" on="0"/>
        <pt x="180" y="-54" on="0"/>
        <pt x="205" y="0" on="0"/>
        <pt x="205" y="43" on="1"/>
        <pt x="205" y="342" on="1"/>
        <pt x="202" y="436" on="0"/>
        <pt x="324" y="546" on="0"/>
        <pt x="438" y="563" on="1"/>
        <pt x="438" y="575" on="1"/>
        <pt x="211" y="610" on="0"/>
        <pt x="205" y="797" on="1"/>
        <pt x="205" y="1096" on="1"/>
        <pt x="205" y="1139" on="0"/>
        <pt x="180" y="1193" on="0"/>
        <pt x="135" y="1224" on="0"/>
        <pt x="71" y="1236" on="0"/>
        <pt x="31" y="1237" on="1"/>
        <pt x="31" y="1462" on="1"/>
        <pt x="162" y="1462" on="0"/>
        <pt x="332" y="1430" on="0"/>
        <pt x="431" y="1363" on="0"/>
        <pt x="469" y="1258" on="0"/>
        <pt x="469" y="1184" on="1"/>
        <pt x="469" y="866" on="1"/>
        <pt x="468" y="818" on="0"/>
        <pt x="500" y="750" on="0"/>
        <pt x="566" y="707" on="0"/>
        <pt x="663" y="688" on="0"/>
        <pt x="725" y="688" on="1"/>
        <pt x="725" y="449" on="1"/>
        <pt x="600" y="449" on="0"/>
        <pt x="469" y="367" on="0"/>
        <pt x="469" y="270" on="1"/>
      </contour>
    </TTGlyph>
    <TTGlyph name="bracketleft" xMin="143" yMin="-324" xMax="627" yMax="1462">
      <contour>
        <pt x="627" y="-324" on="1"/>
        <pt x="143" y="-324" on="1"/>
        <pt x="143" y="1462" on="1"/>
        <pt x="627" y="1462" on="1"/>
        <pt x="627" y="1251" on="1"/>
        <pt x="403" y="1251" on="1"/>
        <pt x="403" y="-113" on="1"/>
        <pt x="627" y="-113" on="1"/>
      </contour>
    </TTGlyph>
    <TTGlyph name="bracketright" xMin="51" yMin="-324" xMax="535" yMax="1462">
      <contour>
        <pt x="51" y="-113" on="1"/>
        <pt x="274" y="-113" on="1"/>
        <pt x="274" y="1251" on="1"/>
        <pt x="51" y="1251" on="1"/>
        <pt x="51" y="1462" on="1"/>
        <pt x="535" y="1462" on="1"/>
        <pt x="535" y="-324" on="1"/>
        <pt x="51" y="-324" on="1"/>
      </contour>
    </TTGlyph>
    <TTGlyph name="brokenbar" xMin="455" yMin="-465" xMax="674" yMax="1550">
      <contour>
        <pt x="455" y="1550" on="1"/>
        <pt x="674" y="1550" on="1"/>
        <pt x="674" y="735" on="1"/>
        <pt x="455" y="735" on="1"/>
      </contour>
      <contour>
        <pt x="455" y="350" on="1"/>
        <pt x="674" y="350" on="1"/>
        <pt x="674" y="-465" on="1"/>
        <pt x="455" y="-465" on="1"/>
      </contour>
    </TTGlyph>
    <TTGlyph name="bullet" xMin="98" yMin="430" xMax="672" yMax="1065">
      <contour>
        <pt x="98" y="748" on="1"/>
        <pt x="98" y="834" on="0"/>
        <pt x="142" y="954" on="0"/>
        <pt x="219" y="1030" on="0"/>
        <pt x="324" y="1065" on="0"/>
        <pt x="385" y="1065" on="1"/>
        <pt x="444" y="1065" on="0"/>
        <pt x="549" y="1030" on="0"/>
        <pt x="627" y="954" on="0"/>
        <pt x="672" y="834" on="0"/>
        <pt x="672" y="748" on="1"/>
        <pt x="672" y="663" on="0"/>
        <pt x="627" y="543" on="0"/>
        <pt x="549" y="466" on="0"/>
        <pt x="444" y="430" on="0"/>
        <pt x="385" y="430" on="1"/>
        <pt x="324" y="430" on="0"/>
        <pt x="219" y="466" on="0"/>
        <pt x="142" y="543" on="0"/>
        <pt x="98" y="663" on="0"/>
      </contour>
    </TTGlyph>
    <TTGlyph name="c" xMin="102" yMin="-20" xMax="956" yMax="1139">
      <contour>
        <pt x="625" y="-20" on="1"/>
        <pt x="505" y="-20" on="0"/>
        <pt x="312" y="46" on="0"/>
        <pt x="175" y="185" on="0"/>
        <pt x="102" y="402" on="0"/>
        <pt x="102" y="553" on="1"/>
        <pt x="102" y="720" on="0"/>
        <pt x="177" y="945" on="0"/>
        <pt x="314" y="1081" on="0"/>
        <pt x="507" y="1139" on="0"/>
        <pt x="625" y="1139" on="1"/>
        <pt x="711" y="1139" on="0"/>
        <pt x="881" y="1097" on="0"/>
        <pt x="956" y="1059" on="1"/>
        <pt x="868" y="827" on="1"/>
        <pt x="802" y="856" on="0"/>
        <pt x="680" y="893" on="0"/>
        <pt x="625" y="893" on="1"/>
        <pt x="514" y="893" on="0"/>
        <pt x="414" y="724" on="0"/>
        <pt x="414" y="555" on="1"/>
        <pt x="414" y="387" on="0"/>
        <pt x="514" y="227" on="0"/>
        <pt x="621" y="227" on="1"/>
        <pt x="708" y="227" on="0"/>
        <pt x="850" y="272" on="0"/>
        <pt x="924" y="307" on="1"/>
        <pt x="924" y="53" on="1"/>
        <pt x="887" y="35" on="0"/>
        <pt x="817" y="7" on="0"/>
        <pt x="746" y="-11" on="0"/>
        <pt x="669" y="-20" on="0"/>
      </contour>
    </TTGlyph>
    <TTGlyph name="ccedilla" xMin="102" yMin="-492" xMax="956" yMax="1139">
      <component glyphName="c" x="0" y="0" flags="0x1204"/>
      <component glyphName="cedilla" x="360" y="0" flags="0x1004"/>
    </TTGlyph>
    <TTGlyph name="cedilla" xMin="-37" yMin="-492" xMax="418" yMax="0">
      <contour>
        <pt x="418" y="-250" on="1"/>
        <pt x="418" y="-307" on="0"/>
        <pt x="387" y="-397" on="0"/>
        <pt x="315" y="-459" on="0"/>
        <pt x="196" y="-492" on="0"/>
        <pt x="109" y="-492" on="1"/>
        <pt x="64" y="-492" on="0"/>
        <pt x="-8" y="-480" on="0"/>
        <pt x="-37" y="-471" on="1"/>
        <pt x="-37" y="-303" on="1"/>
        <pt x="-22" y="-307" on="0"/>
        <pt x="15" y="-314" on="0"/>
        <pt x="54" y="-320" on="0"/>
        <pt x="91" y="-324" on="0"/>
        <pt x="106" y="-324" on="1"/>
        <pt x="135" y="-324" on="0"/>
        <pt x="178" y="-297" on="0"/>
        <pt x="178" y="-262" on="1"/>
        <pt x="178" y="-225" on="0"/>
        <pt x="104" y="-168" on="0"/>
        <pt x="12" y="-154" on="1"/>
        <pt x="90" y="0" on="1"/>
        <pt x="283" y="0" on="1"/>
        <pt x="256" y="-61" on="1"/>
        <pt x="287" y="-71" on="0"/>
        <pt x="345" y="-105" on="0"/>
        <pt x="390" y="-152" on="0"/>
        <pt x="418" y="-213" on="0"/>
      </contour>
    </TTGlyph>
    <TTGlyph name="cent" xMin="143" yMin="-20" xMax="993" yMax="1483">
      <contour>
        <pt x="543" y="-20" on="1"/>
        <pt x="543" y="186" on="1"/>
        <pt x="451" y="199" on="0"/>
        <pt x="303" y="274" on="0"/>
        <pt x="199" y="407" on="0"/>
        <pt x="143" y="606" on="0"/>
        <pt x="143" y="743" on="1"/>
        <pt x="143" y="884" on="0"/>
        <pt x="199" y="1087" on="0"/>
        <pt x="304" y="1223" on="0"/>
        <pt x="452" y="1298" on="0"/>
        <pt x="543" y="1311" on="1"/>
        <pt x="543" y="1483" on="1"/>
        <pt x="721" y="1483" on="1"/>
        <pt x="721" y="1319" on="1"/>
        <pt x="759" y="1318" on="0"/>
        <pt x="835" y="1307" on="0"/>
        <pt x="906" y="1291" on="0"/>
        <pt x="969" y="1271" on="0"/>
        <pt x="993" y="1260" on="1"/>
        <pt x="907" y="1034" on="1"/>
        <pt x="886" y="1044" on="0"/>
        <pt x="833" y="1063" on="0"/>
        <pt x="777" y="1078" on="0"/>
        <pt x="722" y="1087" on="0"/>
        <pt x="698" y="1087" on="1"/>
        <pt x="632" y="1087" on="0"/>
        <pt x="540" y="1047" on="0"/>
        <pt x="481" y="964" on="0"/>
        <pt x="455" y="837" on="0"/>
        <pt x="455" y="750" on="1"/>
        <pt x="455" y="579" on="0"/>
        <pt x="569" y="420" on="0"/>
        <pt x="698" y="420" on="1"/>
        <pt x="774" y="420" on="0"/>
        <pt x="915" y="457" on="0"/>
        <pt x="965" y="481" on="1"/>
        <pt x="965" y="242" on="1"/>
        <pt x="914" y="213" on="0"/>
        <pt x="790" y="182" on="0"/>
        <pt x="721" y="180" on="1"/>
        <pt x="721" y="-20" on="1"/>
      </contour>
    </TTGlyph>
    <TTGlyph name="circumflex" xMin="176" yMin="1241" xMax="1004" yMax="1569">
      <contour>
        <pt x="801" y="1241" on="1"/>
        <pt x="750" y="1275" on="0"/>
        <pt x="640" y="1361" on="0"/>
        <pt x="588" y="1417" on="1"/>
        <pt x="534" y="1361" on="0"/>
        <pt x="430" y="1275" on="0"/>
        <pt x="379" y="1241" on="1"/>
        <pt x="176" y="1241" on="1"/>
        <pt x="176" y="1268" on="1"/>
        <pt x="202" y="1297" on="0"/>
        <pt x="265" y="1373" on="0"/>
        <pt x="330" y="1454" on="0"/>
        <pt x="390" y="1535" on="0"/>
        <pt x="412" y="1569" on="1"/>
        <pt x="768" y="1569" on="1"/>
        <pt x="789" y="1535" on="0"/>
        <pt x="849" y="1454" on="0"/>
        <pt x="914" y="1373" on="0"/>
        <pt x="979" y="1297" on="0"/>
        <pt x="1004" y="1268" on="1"/>
        <pt x="1004" y="1241" on="1"/>
      </contour>
    </TTGlyph>
    <TTGlyph name="colon" xMin="117" yMin="-27" xMax="467" yMax="1139">
      <contour>
        <pt x="117" y="143" on="1"/>
        <pt x="117" y="190" on="0"/>
        <pt x="144" y="255" on="0"/>
        <pt x="192" y="295" on="0"/>
        <pt x="256" y="313" on="0"/>
        <pt x="293" y="313" on="1"/>
        <pt x="328" y="313" on="0"/>
        <pt x="391" y="295" on="0"/>
        <pt x="439" y="255" on="0"/>
        <pt x="467" y="190" on="0"/>
        <pt x="467" y="143" on="1"/>
        <pt x="467" y="98" on="0"/>
        <pt x="439" y="34" on="0"/>
        <pt x="391" y="-8" on="0"/>
        <pt x="328" y="-27" on="0"/>
        <pt x="293" y="-27" on="1"/>
        <pt x="256" y="-27" on="0"/>
        <pt x="192" y="-8" on="0"/>
        <pt x="144" y="34" on="0"/>
        <pt x="117" y="98" on="0"/>
      </contour>
      <contour>
        <pt x="117" y="969" on="1"/>
        <pt x="117" y="1016" on="0"/>
        <pt x="144" y="1081" on="0"/>
        <pt x="192" y="1121" on="0"/>
        <pt x="256" y="1139" on="0"/>
        <pt x="293" y="1139" on="1"/>
        <pt x="328" y="1139" on="0"/>
        <pt x="391" y="1121" on="0"/>
        <pt x="439" y="1081" on="0"/>
        <pt x="467" y="1016" on="0"/>
        <pt x="467" y="969" on="1"/>
        <pt x="467" y="924" on="0"/>
        <pt x="439" y="859" on="0"/>
        <pt x="391" y="818" on="0"/>
        <pt x="328" y="799" on="0"/>
        <pt x="293" y="799" on="1"/>
        <pt x="256" y="799" on="0"/>
        <pt x="192" y="818" on="0"/>
        <pt x="144" y="859" on="0"/>
        <pt x="117" y="924" on="0"/>
      </contour>
    </TTGlyph>
    <TTGlyph name="comma" xMin="63" yMin="-264" xMax="459" yMax="238">
      <contour>
        <pt x="459" y="215" on="1"/>
        <pt x="445" y="161" on="0"/>
        <pt x="406" y="39" on="0"/>
        <pt x="359" y="-85" on="0"/>
        <pt x="308" y="-208" on="0"/>
        <pt x="283" y="-264" on="1"/>
        <pt x="63" y="-264" on="1"/>
        <pt x="78" y="-203" on="0"/>
        <pt x="107" y="-71" on="0"/>
        <pt x="134" y="60" on="0"/>
        <pt x="156" y="185" on="0"/>
        <pt x="164" y="238" on="1"/>
        <pt x="444" y="238" on="1"/>
      </contour>
    </TTGlyph>
    <TTGlyph name="copyright" xMin="100" yMin="-20" xMax="1604" yMax="1483">
      <contour>
        <pt x="895" y="1010" on="1"/>
        <pt x="798" y="1010" on="0"/>
        <pt x="692" y="862" on="0"/>
        <pt x="692" y="731" on="1"/>
        <pt x="692" y="596" on="0"/>
        <pt x="788" y="451" on="0"/>
        <pt x="895" y="451" on="1"/>
        <pt x="952" y="451" on="0"/>
        <pt x="1084" y="481" on="0"/>
        <pt x="1141" y="510" on="1"/>
        <pt x="1141" y="319" on="1"/>
        <pt x="1084" y="292" on="0"/>
        <pt x="966" y="262" on="0"/>
        <pt x="889" y="262" on="1"/>
        <pt x="782" y="262" on="0"/>
        <pt x="622" y="330" on="0"/>
        <pt x="515" y="454" on="0"/>
        <pt x="461" y="627" on="0"/>
        <pt x="461" y="733" on="1"/>
        <pt x="461" y="836" on="0"/>
        <pt x="513" y="1007" on="0"/>
        <pt x="618" y="1130" on="0"/>
        <pt x="776" y="1198" on="0"/>
        <pt x="881" y="1198" on="1"/>
        <pt x="964" y="1198" on="0"/>
        <pt x="1118" y="1154" on="0"/>
        <pt x="1186" y="1120" on="1"/>
        <pt x="1112" y="952" on="1"/>
        <pt x="999" y="1010" on="0"/>
      </contour>
      <contour>
        <pt x="100" y="731" on="1"/>
        <pt x="100" y="835" on="0"/>
        <pt x="154" y="1027" on="0"/>
        <pt x="251" y="1194" on="0"/>
        <pt x="389" y="1332" on="0"/>
        <pt x="556" y="1429" on="0"/>
        <pt x="748" y="1483" on="0"/>
        <pt x="852" y="1483" on="1"/>
        <pt x="956" y="1483" on="0"/>
        <pt x="1148" y="1429" on="0"/>
        <pt x="1315" y="1332" on="0"/>
        <pt x="1453" y="1194" on="0"/>
        <pt x="1550" y="1027" on="0"/>
        <pt x="1604" y="835" on="0"/>
        <pt x="1604" y="731" on="1"/>
        <pt x="1604" y="627" on="0"/>
        <pt x="1550" y="435" on="0"/>
        <pt x="1453" y="268" on="0"/>
        <pt x="1315" y="131" on="0"/>
        <pt x="1148" y="33" on="0"/>
        <pt x="956" y="-20" on="0"/>
        <pt x="852" y="-20" on="1"/>
        <pt x="748" y="-20" on="0"/>
        <pt x="556" y="33" on="0"/>
        <pt x="389" y="131" on="0"/>
        <pt x="251" y="268" on="0"/>
        <pt x="154" y="435" on="0"/>
        <pt x="100" y="627" on="0"/>
      </contour>
      <contour>
        <pt x="242" y="731" on="1"/>
        <pt x="242" y="604" on="0"/>
        <pt x="338" y="382" on="0"/>
        <pt x="503" y="217" on="0"/>
        <pt x="725" y="121" on="0"/>
        <pt x="852" y="121" on="1"/>
        <pt x="979" y="121" on="0"/>
        <pt x="1201" y="217" on="0"/>
        <pt x="1366" y="382" on="0"/>
        <pt x="1462" y="604" on="0"/>
        <pt x="1462" y="731" on="1"/>
        <pt x="1462" y="858" on="0"/>
        <pt x="1366" y="1080" on="0"/>
        <pt x="1201" y="1245" on="0"/>
        <pt x="979" y="1341" on="0"/>
        <pt x="852" y="1341" on="1"/>
        <pt x="725" y="1341" on="0"/>
        <pt x="503" y="1245" on="0"/>
        <pt x="338" y="1080" on="0"/>
        <pt x="242" y="858" on="0"/>
      </contour>
    </TTGlyph>
    <TTGlyph name="currency" xMin="92" yMin="254" xMax="1036" yMax="1194">
      <contour>
        <pt x="168" y="723" on="1"/>
        <pt x="168" y="777" on="0"/>
        <pt x="196" y="876" on="0"/>
        <pt x="221" y="920" on="1"/>
        <pt x="92" y="1047" on="1"/>
        <pt x="240" y="1194" on="1"/>
        <pt x="367" y="1067" on="1"/>
        <pt x="410" y="1092" on="0"/>
        <pt x="512" y="1120" on="0"/>
        <pt x="563" y="1120" on="1"/>
        <pt x="617" y="1120" on="0"/>
        <pt x="713" y="1093" on="0"/>
        <pt x="760" y="1065" on="1"/>
        <pt x="887" y="1194" on="1"/>
        <pt x="1036" y="1051" on="1"/>
        <pt x="907" y="922" on="1"/>
        <pt x="932" y="880" on="0"/>
        <pt x="961" y="777" on="0"/>
        <pt x="961" y="723" on="1"/>
        <pt x="961" y="667" on="0"/>
        <pt x="933" y="569" on="0"/>
        <pt x="907" y="524" on="1"/>
        <pt x="1032" y="399" on="1"/>
        <pt x="887" y="254" on="1"/>
        <pt x="760" y="379" on="1"/>
        <pt x="716" y="356" on="0"/>
        <pt x="617" y="328" on="0"/>
        <pt x="563" y="328" on="1"/>
        <pt x="507" y="328" on="0"/>
        <pt x="408" y="353" on="0"/>
        <pt x="365" y="379" on="1"/>
        <pt x="240" y="256" on="1"/>
        <pt x="94" y="401" on="1"/>
        <pt x="221" y="526" on="1"/>
        <pt x="168" y="617" on="0"/>
      </contour>
      <contour>
        <pt x="375" y="723" on="1"/>
        <pt x="375" y="684" on="0"/>
        <pt x="405" y="615" on="0"/>
        <pt x="456" y="564" on="0"/>
        <pt x="524" y="535" on="0"/>
        <pt x="563" y="535" on="1"/>
        <pt x="603" y="535" on="0"/>
        <pt x="673" y="564" on="0"/>
        <pt x="726" y="615" on="0"/>
        <pt x="756" y="684" on="0"/>
        <pt x="756" y="723" on="1"/>
        <pt x="756" y="763" on="0"/>
        <pt x="726" y="832" on="0"/>
        <pt x="673" y="883" on="0"/>
        <pt x="603" y="913" on="0"/>
        <pt x="563" y="913" on="1"/>
        <pt x="524" y="913" on="0"/>
        <pt x="456" y="883" on="0"/>
        <pt x="405" y="832" on="0"/>
        <pt x="375" y="763" on="0"/>
      </contour>
    </TTGlyph>
    <TTGlyph name="d" xMin="102" yMin="-20" xMax="1085" yMax="1556">
      <contour>
        <pt x="489" y="-20" on="1"/>
        <pt x="403" y="-20" on="0"/>
        <pt x="261" y="54" on="0"/>
        <pt x="159" y="199" on="0"/>
        <pt x="102" y="415" on="0"/>
        <pt x="102" y="557" on="1"/>
        <pt x="102" y="701" on="0"/>
        <pt x="159" y="918" on="0"/>
        <pt x="264" y="1065" on="0"/>
        <pt x="410" y="1139" on="0"/>
        <pt x="498" y="1139" on="1"/>
        <pt x="552" y="1139" on="0"/>
        <pt x="642" y="1114" on="0"/>
        <pt x="714" y="1069" on="0"/>
        <pt x="771" y="1010" on="0"/>
        <pt x="793" y="975" on="1"/>
        <pt x="803" y="975" on="1"/>
        <pt x="797" y="1014" on="0"/>
        <pt x="792" y="1054" on="1"/>
        <pt x="787" y="1088" on="0"/>
        <pt x="780" y="1165" on="0"/>
        <pt x="780" y="1198" on="1"/>
        <pt x="780" y="1556" on="1"/>
        <pt x="1085" y="1556" on="1"/>
        <pt x="1085" y="0" on="1"/>
        <pt x="852" y="0" on="1"/>
        <pt x="793" y="145" on="1"/>
        <pt x="780" y="145" on="1"/>
        <pt x="759" y="111" on="0"/>
        <pt x="705" y="50" on="0"/>
        <pt x="634" y="6" on="0"/>
        <pt x="545" y="-20" on="0"/>
      </contour>
      <contour>
        <pt x="600" y="223" on="1"/>
        <pt x="654" y="223" on="0"/>
        <pt x="730" y="260" on="0"/>
        <pt x="777" y="335" on="0"/>
        <pt x="800" y="447" on="0"/>
        <pt x="801" y="522" on="1"/>
        <pt x="801" y="555" on="1"/>
        <pt x="801" y="636" on="0"/>
        <pt x="781" y="762" on="0"/>
        <pt x="735" y="847" on="0"/>
        <pt x="657" y="891" on="0"/>
        <pt x="598" y="891" on="1"/>
        <pt x="502" y="891" on="0"/>
        <pt x="412" y="718" on="0"/>
        <pt x="412" y="553" on="1"/>
        <pt x="412" y="388" on="0"/>
        <pt x="503" y="223" on="0"/>
      </contour>
    </TTGlyph>
    <TTGlyph name="degree" xMin="92" yMin="793" xMax="784" yMax="1483">
      <contour>
        <pt x="92" y="1137" on="1"/>
        <pt x="92" y="1208" on="0"/>
        <pt x="146" y="1334" on="0"/>
        <pt x="240" y="1428" on="0"/>
        <pt x="366" y="1483" on="0"/>
        <pt x="438" y="1483" on="1"/>
        <pt x="510" y="1483" on="0"/>
        <pt x="637" y="1428" on="0"/>
        <pt x="730" y="1334" on="0"/>
        <pt x="784" y="1208" on="0"/>
        <pt x="784" y="1137" on="1"/>
        <pt x="784" y="1065" on="0"/>
        <pt x="730" y="939" on="0"/>
        <pt x="637" y="846" on="0"/>
        <pt x="510" y="793" on="0"/>
        <pt x="438" y="793" on="1"/>
        <pt x="366" y="793" on="0"/>
        <pt x="240" y="846" on="0"/>
        <pt x="146" y="939" on="0"/>
        <pt x="92" y="1065" on="0"/>
      </contour>
      <contour>
        <pt x="283" y="1137" on="1"/>
        <pt x="283" y="1106" on="0"/>
        <pt x="307" y="1050" on="0"/>
        <pt x="349" y="1008" on="0"/>
        <pt x="406" y="983" on="0"/>
        <pt x="438" y="983" on="1"/>
        <pt x="470" y="983" on="0"/>
        <pt x="527" y="1008" on="0"/>
        <pt x="569" y="1050" on="0"/>
        <pt x="594" y="1106" on="0"/>
        <pt x="594" y="1137" on="1"/>
        <pt x="594" y="1169" on="0"/>
        <pt x="569" y="1226" on="0"/>
        <pt x="527" y="1269" on="0"/>
        <pt x="470" y="1294" on="0"/>
        <pt x="438" y="1294" on="1"/>
        <pt x="406" y="1294" on="0"/>
        <pt x="349" y="1269" on="0"/>
        <pt x="307" y="1226" on="0"/>
        <pt x="283" y="1169" on="0"/>
      </contour>
    </TTGlyph>
    <TTGlyph name="dieresis" xMin="248" yMin="1272" xMax="934" yMax="1540">
      <contour>
        <pt x="248" y="1405" on="1"/>
        <pt x="248" y="1440" on="0"/>
        <pt x="270" y="1491" on="0"/>
        <pt x="307" y="1524" on="0"/>
        <pt x="358" y="1540" on="0"/>
        <pt x="387" y="1540" on="1"/>
        <pt x="416" y="1540" on="0"/>
        <pt x="467" y="1524" on="0"/>
        <pt x="505" y="1491" on="0"/>
        <pt x="528" y="1440" on="0"/>
        <pt x="528" y="1405" on="1"/>
        <pt x="528" y="1371" on="0"/>
        <pt x="505" y="1321" on="0"/>
        <pt x="467" y="1288" on="0"/>
        <pt x="416" y="1272" on="0"/>
        <pt x="387" y="1272" on="1"/>
        <pt x="358" y="1272" on="0"/>
        <pt x="307" y="1288" on="0"/>
        <pt x="270" y="1321" on="0"/>
        <pt x="248" y="1371" on="0"/>
      </contour>
      <contour>
        <pt x="651" y="1405" on="1"/>
        <pt x="651" y="1440" on="0"/>
        <pt x="673" y="1491" on="0"/>
        <pt x="711" y="1524" on="0"/>
        <pt x="763" y="1540" on="0"/>
        <pt x="793" y="1540" on="1"/>
        <pt x="821" y="1540" on="0"/>
        <pt x="872" y="1524" on="0"/>
        <pt x="911" y="1491" on="0"/>
        <pt x="934" y="1440" on="0"/>
        <pt x="934" y="1405" on="1"/>
        <pt x="934" y="1371" on="0"/>
        <pt x="911" y="1321" on="0"/>
        <pt x="872" y="1288" on="0"/>
        <pt x="821" y="1272" on="0"/>
        <pt x="793" y="1272" on="1"/>
        <pt x="733" y="1272" on="0"/>
        <pt x="651" y="1338" on="0"/>
      </contour>
    </TTGlyph>
    <TTGlyph name="divide" xMin="88" yMin="221" xMax="1040" yMax="1223">
      <contour>
        <pt x="88" y="612" on="1"/>
        <pt x="88" y="831" on="1"/>
        <pt x="1040" y="831" on="1"/>
        <pt x="1040" y="612" on="1"/>
      </contour>
      <contour>
        <pt x="424" y="373" on="1"/>
        <pt x="424" y="415" on="0"/>
        <pt x="446" y="473" on="0"/>
        <pt x="484" y="508" on="0"/>
        <pt x="535" y="524" on="0"/>
        <pt x="563" y="524" on="1"/>
        <pt x="591" y="524" on="0"/>
        <pt x="641" y="508" on="0"/>
        <pt x="679" y="473" on="0"/>
        <pt x="702" y="415" on="0"/>
        <pt x="702" y="373" on="1"/>
        <pt x="702" y="333" on="0"/>
        <pt x="679" y="275" on="0"/>
        <pt x="641" y="238" on="0"/>
        <pt x="591" y="221" on="0"/>
        <pt x="563" y="221" on="1"/>
        <pt x="535" y="221" on="0"/>
        <pt x="484" y="238" on="0"/>
        <pt x="446" y="275" on="0"/>
        <pt x="424" y="333" on="0"/>
      </contour>
      <contour>
        <pt x="424" y="1071" on="1"/>
        <pt x="424" y="1113" on="0"/>
        <pt x="446" y="1171" on="0"/>
        <pt x="484" y="1207" on="0"/>
        <pt x="535" y="1223" on="0"/>
        <pt x="563" y="1223" on="1"/>
        <pt x="591" y="1223" on="0"/>
        <pt x="641" y="1207" on="0"/>
        <pt x="679" y="1171" on="0"/>
        <pt x="702" y="1113" on="0"/>
        <pt x="702" y="1071" on="1"/>
        <pt x="702" y="1031" on="0"/>
        <pt x="679" y="974" on="0"/>
        <pt x="641" y="937" on="0"/>
        <pt x="591" y="920" on="0"/>
        <pt x="563" y="920" on="1"/>
        <pt x="535" y="920" on="0"/>
        <pt x="484" y="937" on="0"/>
        <pt x="446" y="974" on="0"/>
        <pt x="424" y="1031" on="0"/>
      </contour>
    </TTGlyph>
    <TTGlyph name="dollar" xMin="98" yMin="-119" xMax="1061" yMax="1556">
      <contour>
        <pt x="1061" y="457" on="1"/>
        <pt x="1061" y="382" on="0"/>
        <pt x="1008" y="254" on="0"/>
        <pt x="903" y="158" on="0"/>
        <pt x="747" y="96" on="0"/>
        <pt x="645" y="86" on="1"/>
        <pt x="645" y="-119" on="1"/>
        <pt x="508" y="-119" on="1"/>
        <pt x="508" y="82" on="1"/>
        <pt x="442" y="84" on="0"/>
        <pt x="330" y="96" on="0"/>
        <pt x="232" y="118" on="0"/>
        <pt x="143" y="149" on="0"/>
        <pt x="100" y="168" on="1"/>
        <pt x="100" y="432" on="1"/>
        <pt x="142" y="411" on="0"/>
        <pt x="241" y="373" on="0"/>
        <pt x="347" y="342" on="0"/>
        <pt x="456" y="320" on="0"/>
        <pt x="508" y="317" on="1"/>
        <pt x="508" y="635" on="1"/>
        <pt x="500" y="638" on="0"/>
        <pt x="491" y="642" on="1"/>
        <pt x="483" y="645" on="0"/>
        <pt x="467" y="651" on="0"/>
        <pt x="461" y="653" on="1"/>
        <pt x="370" y="688" on="0"/>
        <pt x="234" y="764" on="0"/>
        <pt x="143" y="858" on="0"/>
        <pt x="98" y="972" on="0"/>
        <pt x="98" y="1044" on="1"/>
        <pt x="98" y="1119" on="0"/>
        <pt x="155" y="1242" on="0"/>
        <pt x="261" y="1333" on="0"/>
        <pt x="413" y="1390" on="0"/>
        <pt x="508" y="1399" on="1"/>
        <pt x="508" y="1556" on="1"/>
        <pt x="645" y="1556" on="1"/>
        <pt x="645" y="1405" on="1"/>
        <pt x="732" y="1400" on="0"/>
        <pt x="914" y="1360" on="0"/>
        <pt x="1014" y="1317" on="1"/>
        <pt x="913" y="1083" on="1"/>
        <pt x="848" y="1109" on="0"/>
        <pt x="707" y="1150" on="0"/>
        <pt x="645" y="1155" on="1"/>
        <pt x="645" y="862" on="1"/>
        <pt x="684" y="848" on="1"/>
        <pt x="779" y="813" on="0"/>
        <pt x="921" y="739" on="0"/>
        <pt x="1015" y="647" on="0"/>
        <pt x="1061" y="533" on="0"/>
      </contour>
      <contour>
        <pt x="760" y="451" on="1"/>
        <pt x="760" y="475" on="0"/>
        <pt x="747" y="511" on="0"/>
        <pt x="719" y="541" on="0"/>
        <pt x="676" y="566" on="0"/>
        <pt x="645" y="580" on="1"/>
        <pt x="645" y="328" on="1"/>
        <pt x="704" y="337" on="0"/>
        <pt x="760" y="397" on="0"/>
      </contour>
      <contour>
        <pt x="399" y="1051" on="1"/>
        <pt x="399" y="1004" on="0"/>
        <pt x="451" y="941" on="0"/>
        <pt x="508" y="920" on="1"/>
        <pt x="508" y="1153" on="1"/>
        <pt x="454" y="1147" on="0"/>
        <pt x="399" y="1099" on="0"/>
      </contour>
    </TTGlyph>
    <TTGlyph name="dotlessi" xMin="160" yMin="0" xMax="465" yMax="1118">
      <contour>
        <pt x="465" y="0" on="1"/>
        <pt x="160" y="0" on="1"/>
        <pt x="160" y="1118" on="1"/>
        <pt x="465" y="1118" on="1"/>
      </contour>
    </TTGlyph>
    <TTGlyph name="e" xMin="102" yMin="-20" xMax="1092" yMax="1139">
      <contour>
        <pt x="612" y="922" on="1"/>
        <pt x="531" y="922" on="0"/>
        <pt x="424" y="808" on="0"/>
        <pt x="416" y="686" on="1"/>
        <pt x="805" y="686" on="1"/>
        <pt x="804" y="737" on="0"/>
        <pt x="780" y="823" on="0"/>
        <pt x="732" y="886" on="0"/>
        <pt x="660" y="922" on="0"/>
      </contour>
      <contour>
        <pt x="651" y="-20" on="1"/>
        <pt x="531" y="-20" on="0"/>
        <pt x="329" y="50" on="0"/>
        <pt x="183" y="191" on="0"/>
        <pt x="102" y="406" on="0"/>
        <pt x="102" y="551" on="1"/>
        <pt x="102" y="698" on="0"/>
        <pt x="176" y="918" on="0"/>
        <pt x="309" y="1065" on="0"/>
        <pt x="496" y="1139" on="0"/>
        <pt x="610" y="1139" on="1"/>
        <pt x="721" y="1139" on="0"/>
        <pt x="900" y="1072" on="0"/>
        <pt x="1025" y="942" on="0"/>
        <pt x="1092" y="753" on="0"/>
        <pt x="1092" y="631" on="1"/>
        <pt x="1092" y="483" on="1"/>
        <pt x="410" y="483" on="1"/>
        <pt x="412" y="419" on="0"/>
        <pt x="449" y="316" on="0"/>
        <pt x="516" y="245" on="0"/>
        <pt x="611" y="207" on="0"/>
        <pt x="672" y="207" on="1"/>
        <pt x="723" y="207" on="0"/>
        <pt x="814" y="218" on="0"/>
        <pt x="900" y="240" on="0"/>
        <pt x="984" y="273" on="0"/>
        <pt x="1028" y="295" on="1"/>
        <pt x="1028" y="59" on="1"/>
        <pt x="988" y="38" on="0"/>
        <pt x="907" y="9" on="0"/>
        <pt x="817" y="-11" on="0"/>
        <pt x="713" y="-20" on="0"/>
      </contour>
    </TTGlyph>
    <TTGlyph name="eacute" xMin="102" yMin="-20" xMax="1092" yMax="1569">
      <component glyphName="e" x="0" y="0" flags="0x1204"/>
      <component glyphName="acute" x="115" y="0" flags="0x1004"/>
    </TTGlyph>
    <TTGlyph name="ecircumflex" xMin="102" yMin="-20" xMax="1092" yMax="1569">
      <component glyphName="e" x="0" y="0" flags="0x1204"/>
      <component glyphName="circumflex" x="18" y="0" flags="0x1004"/>
    </TTGlyph>
    <TTGlyph name="edieresis" xMin="102" yMin="-20" xMax="1092" yMax="1540">
      <component glyphName="e" x="0" y="0" flags="0x1204"/>
      <component glyphName="dieresis" x="18" y="0" flags="0x1004"/>
    </TTGlyph>
    <TTGlyph name="egrave" xMin="102" yMin="-20" xMax="1092" yMax="1569">
      <component glyphName="e" x="0" y="0" flags="0x1204"/>
      <component glyphName="grave" x="-67" y="0" flags="0x1004"/>
    </TTGlyph>
    <TTGlyph name="eight" xMin="72" yMin="-20" xMax="1057" yMax="1481">
      <contour>
        <pt x="565" y="1481" on="1"/>
        <pt x="656" y="1481" on="0"/>
        <pt x="818" y="1437" on="0"/>
        <pt x="940" y="1349" on="0"/>
        <pt x="1012" y="1217" on="0"/>
        <pt x="1012" y="1128" on="1"/>
        <pt x="1012" y="1062" on="0"/>
        <pt x="972" y="955" on="0"/>
        <pt x="902" y="868" on="0"/>
        <pt x="806" y="800" on="0"/>
        <pt x="750" y="772" on="1"/>
        <pt x="808" y="741" on="0"/>
        <pt x="919" y="665" on="0"/>
        <pt x="1005" y="570" on="0"/>
        <pt x="1057" y="452" on="0"/>
        <pt x="1057" y="379" on="1"/>
        <pt x="1057" y="288" on="0"/>
        <pt x="985" y="140" on="0"/>
        <pt x="855" y="36" on="0"/>
        <pt x="674" y="-20" on="0"/>
        <pt x="565" y="-20" on="1"/>
        <pt x="447" y="-20" on="0"/>
        <pt x="263" y="34" on="0"/>
        <pt x="137" y="134" on="0"/>
        <pt x="72" y="280" on="0"/>
        <pt x="72" y="371" on="1"/>
        <pt x="72" y="446" on="0"/>
        <pt x="116" y="566" on="0"/>
        <pt x="192" y="662" on="0"/>
        <pt x="294" y="736" on="0"/>
        <pt x="352" y="764" on="1"/>
        <pt x="303" y="795" on="0"/>
        <pt x="217" y="868" on="0"/>
        <pt x="154" y="957" on="0"/>
        <pt x="117" y="1065" on="0"/>
        <pt x="117" y="1130" on="1"/>
        <pt x="117" y="1217" on="0"/>
        <pt x="190" y="1348" on="0"/>
        <pt x="314" y="1437" on="0"/>
        <pt x="476" y="1481" on="0"/>
      </contour>
      <contour>
        <pt x="358" y="389" on="1"/>
        <pt x="358" y="349" on="0"/>
        <pt x="384" y="282" on="0"/>
        <pt x="435" y="234" on="0"/>
        <pt x="511" y="207" on="0"/>
        <pt x="561" y="207" on="1"/>
        <pt x="666" y="207" on="0"/>
        <pt x="770" y="306" on="0"/>
        <pt x="770" y="387" on="1"/>
        <pt x="770" y="429" on="0"/>
        <pt x="735" y="496" on="0"/>
        <pt x="680" y="553" on="0"/>
        <pt x="610" y="601" on="0"/>
        <pt x="575" y="623" on="1"/>
        <pt x="553" y="637" on="1"/>
        <pt x="509" y="615" on="0"/>
        <pt x="437" y="564" on="0"/>
        <pt x="386" y="503" on="0"/>
        <pt x="358" y="431" on="0"/>
      </contour>
      <contour>
        <pt x="563" y="1255" on="1"/>
        <pt x="530" y="1255" on="0"/>
        <pt x="473" y="1235" on="0"/>
        <pt x="432" y="1197" on="0"/>
        <pt x="408" y="1141" on="0"/>
        <pt x="408" y="1106" on="1"/>
        <pt x="408" y="1064" on="0"/>
        <pt x="433" y="1003" on="0"/>
        <pt x="476" y="956" on="0"/>
        <pt x="533" y="919" on="0"/>
        <pt x="565" y="901" on="1"/>
        <pt x="596" y="917" on="0"/>
        <pt x="652" y="955" on="0"/>
        <pt x="695" y="1004" on="0"/>
        <pt x="721" y="1066" on="0"/>
        <pt x="721" y="1106" on="1"/>
        <pt x="721" y="1141" on="0"/>
        <pt x="697" y="1197" on="0"/>
        <pt x="655" y="1235" on="0"/>
        <pt x="597" y="1255" on="0"/>
      </contour>
    </TTGlyph>
    <TTGlyph name="emdash" xMin="82" yMin="436" xMax="1966" yMax="666">
      <contour>
        <pt x="82" y="436" on="1"/>
        <pt x="82" y="666" on="1"/>
        <pt x="1966" y="666" on="1"/>
        <pt x="1966" y="436" on="1"/>
      </contour>
    </TTGlyph>
    <TTGlyph name="endash" xMin="82" yMin="436" xMax="942" yMax="666">
      <contour>
        <pt x="82" y="436" on="1"/>
        <pt x="82" y="666" on="1"/>
        <pt x="942" y="666" on="1"/>
        <pt x="942" y="436" on="1"/>
      </contour>
    </TTGlyph>
    <TTGlyph name="equal" xMin="88" yMin="418" xMax="1040" yMax="1024">
      <contour>
        <pt x="88" y="807" on="1"/>
        <pt x="88" y="1024" on="1"/>
        <pt x="1040" y="1024" on="1"/>
        <pt x="1040" y="807" on="1"/>
      </contour>
      <contour>
        <pt x="88" y="418" on="1"/>
        <pt x="88" y="637" on="1"/>
        <pt x="1040" y="637" on="1"/>
        <pt x="1040" y="418" on="1"/>
      </contour>
    </TTGlyph>
    <TTGlyph name="eth" xMin="74" yMin="-20" xMax="1096" yMax="1571">
      <contour>
        <pt x="457" y="1309" on="1"/>
        <pt x="423" y="1330" on="0"/>
        <pt x="345" y="1378" on="0"/>
        <pt x="303" y="1401" on="1"/>
        <pt x="399" y="1571" on="1"/>
        <pt x="472" y="1537" on="0"/>
        <pt x="600" y="1468" on="0"/>
        <pt x="657" y="1430" on="1"/>
        <pt x="883" y="1569" on="1"/>
        <pt x="983" y="1415" on="1"/>
        <pt x="809" y="1309" on="1"/>
        <pt x="881" y="1240" on="0"/>
        <pt x="989" y="1084" on="0"/>
        <pt x="1060" y="902" on="0"/>
        <pt x="1096" y="694" on="0"/>
        <pt x="1096" y="573" on="1"/>
        <pt x="1096" y="431" on="0"/>
        <pt x="1024" y="211" on="0"/>
        <pt x="890" y="59" on="0"/>
        <pt x="700" y="-20" on="0"/>
        <pt x="582" y="-20" on="1"/>
        <pt x="471" y="-20" on="0"/>
        <pt x="285" y="48" on="0"/>
        <pt x="150" y="178" on="0"/>
        <pt x="74" y="367" on="0"/>
        <pt x="74" y="489" on="1"/>
        <pt x="74" y="611" on="0"/>
        <pt x="139" y="799" on="0"/>
        <pt x="256" y="928" on="0"/>
        <pt x="419" y="995" on="0"/>
        <pt x="516" y="995" on="1"/>
        <pt x="612" y="995" on="0"/>
        <pt x="748" y="932" on="0"/>
        <pt x="780" y="883" on="1"/>
        <pt x="801" y="885" on="1"/>
        <pt x="773" y="973" on="0"/>
        <pt x="672" y="1128" on="0"/>
        <pt x="606" y="1184" on="1"/>
        <pt x="375" y="1040" on="1"/>
        <pt x="274" y="1196" on="1"/>
      </contour>
      <contour>
        <pt x="784" y="532" on="1"/>
        <pt x="784" y="579" on="0"/>
        <pt x="761" y="665" on="0"/>
        <pt x="712" y="731" on="0"/>
        <pt x="637" y="770" on="0"/>
        <pt x="586" y="770" on="1"/>
        <pt x="478" y="770" on="0"/>
        <pt x="385" y="629" on="0"/>
        <pt x="385" y="487" on="1"/>
        <pt x="385" y="424" on="0"/>
        <pt x="408" y="320" on="0"/>
        <pt x="457" y="246" on="0"/>
        <pt x="533" y="205" on="0"/>
        <pt x="586" y="205" on="1"/>
        <pt x="692" y="205" on="0"/>
        <pt x="784" y="368" on="0"/>
      </contour>
    </TTGlyph>
    <TTGlyph name="exclam" xMin="117" yMin="-27" xMax="467" yMax="1462">
      <contour>
        <pt x="416" y="485" on="1"/>
        <pt x="172" y="485" on="1"/>
        <pt x="121" y="1462" on="1"/>
        <pt x="467" y="1462" on="1"/>
      </contour>
      <contour>
        <pt x="117" y="143" on="1"/>
        <pt x="117" y="190" on="0"/>
        <pt x="144" y="255" on="0"/>
        <pt x="192" y="295" on="0"/>
        <pt x="256" y="313" on="0"/>
        <pt x="293" y="313" on="1"/>
        <pt x="328" y="313" on="0"/>
        <pt x="391" y="295" on="0"/>
        <pt x="439" y="255" on="0"/>
        <pt x="467" y="190" on="0"/>
        <pt x="467" y="143" on="1"/>
        <pt x="467" y="98" on="0"/>
        <pt x="439" y="34" on="0"/>
        <pt x="391" y="-8" on="0"/>
        <pt x="328" y="-27" on="0"/>
        <pt x="293" y="-27" on="1"/>
        <pt x="256" y="-27" on="0"/>
        <pt x="192" y="-8" on="0"/>
        <pt x="144" y="34" on="0"/>
        <pt x="117" y="98" on="0"/>
      </contour>
    </TTGlyph>
    <TTGlyph name="exclamdown" xMin="117" yMin="-369" xMax="467" yMax="1118">
      <contour>
        <pt x="168" y="606" on="1"/>
        <pt x="412" y="606" on="1"/>
        <pt x="463" y="-369" on="1"/>
        <pt x="117" y="-369" on="1"/>
      </contour>
      <contour>
        <pt x="467" y="948" on="1"/>
        <pt x="467" y="901" on="0"/>
        <pt x="440" y="836" on="0"/>
        <pt x="392" y="796" on="0"/>
        <pt x="328" y="778" on="0"/>
        <pt x="291" y="778" on="1"/>
        <pt x="256" y="778" on="0"/>
        <pt x="193" y="796" on="0"/>
        <pt x="145" y="836" on="0"/>
        <pt x="117" y="901" on="0"/>
        <pt x="117" y="948" on="1"/>
        <pt x="117" y="993" on="0"/>
        <pt x="145" y="1058" on="0"/>
        <pt x="193" y="1099" on="0"/>
        <pt x="256" y="1118" on="0"/>
        <pt x="291" y="1118" on="1"/>
        <pt x="328" y="1118" on="0"/>
        <pt x="392" y="1099" on="0"/>
        <pt x="440" y="1058" on="0"/>
        <pt x="467" y="993" on="0"/>
      </contour>
    </TTGlyph>
    <TTGlyph name="f" xMin="41" yMin="0" xMax="840" yMax="1567">
      <contour>
        <pt x="741" y="889" on="1"/>
        <pt x="514" y="889" on="1"/>
        <pt x="514" y="0" on="1"/>
        <pt x="209" y="0" on="1"/>
        <pt x="209" y="889" on="1"/>
        <pt x="41" y="889" on="1"/>
        <pt x="41" y="1036" on="1"/>
        <pt x="209" y="1118" on="1"/>
        <pt x="209" y="1200" on="1"/>
        <pt x="209" y="1307" on="0"/>
        <pt x="261" y="1448" on="0"/>
        <pt x="357" y="1532" on="0"/>
        <pt x="493" y="1567" on="0"/>
        <pt x="578" y="1567" on="1"/>
        <pt x="670" y="1567" on="0"/>
        <pt x="796" y="1538" on="0"/>
        <pt x="840" y="1520" on="1"/>
        <pt x="768" y="1296" on="1"/>
        <pt x="737" y="1307" on="0"/>
        <pt x="669" y="1325" on="0"/>
        <pt x="623" y="1325" on="1"/>
        <pt x="563" y="1325" on="0"/>
        <pt x="514" y="1248" on="0"/>
        <pt x="514" y="1188" on="1"/>
        <pt x="514" y="1118" on="1"/>
        <pt x="741" y="1118" on="1"/>
      </contour>
    </TTGlyph>
    <TTGlyph name="five" xMin="86" yMin="-20" xMax="1042" yMax="1462">
      <contour>
        <pt x="598" y="934" on="1"/>
        <pt x="692" y="934" on="0"/>
        <pt x="854" y="876" on="0"/>
        <pt x="974" y="764" on="0"/>
        <pt x="1042" y="597" on="0"/>
        <pt x="1042" y="489" on="1"/>
        <pt x="1042" y="370" on="0"/>
        <pt x="968" y="181" on="0"/>
        <pt x="824" y="50" on="0"/>
        <pt x="611" y="-20" on="0"/>
        <pt x="473" y="-20" on="1"/>
        <pt x="418" y="-20" on="0"/>
        <pt x="310" y="-10" on="0"/>
        <pt x="211" y="9" on="0"/>
        <pt x="122" y="39" on="0"/>
        <pt x="86" y="59" on="1"/>
        <pt x="86" y="326" on="1"/>
        <pt x="121" y="306" on="0"/>
        <pt x="213" y="271" on="0"/>
        <pt x="312" y="246" on="0"/>
        <pt x="412" y="231" on="0"/>
        <pt x="457" y="231" on="1"/>
        <pt x="591" y="231" on="0"/>
        <pt x="731" y="342" on="0"/>
        <pt x="731" y="463" on="1"/>
        <pt x="731" y="571" on="0"/>
        <pt x="594" y="684" on="0"/>
        <pt x="451" y="684" on="1"/>
        <pt x="425" y="684" on="0"/>
        <pt x="366" y="678" on="0"/>
        <pt x="309" y="668" on="0"/>
        <pt x="257" y="657" on="0"/>
        <pt x="238" y="651" on="1"/>
        <pt x="115" y="717" on="1"/>
        <pt x="170" y="1462" on="1"/>
        <pt x="942" y="1462" on="1"/>
        <pt x="942" y="1200" on="1"/>
        <pt x="438" y="1200" on="1"/>
        <pt x="414" y="913" on="1"/>
        <pt x="446" y="920" on="0"/>
        <pt x="531" y="934" on="0"/>
      </contour>
    </TTGlyph>
    <TTGlyph name="four" xMin="4" yMin="0" xMax="1085" yMax="1462">
      <contour>
        <pt x="1085" y="303" on="1"/>
        <pt x="909" y="303" on="1"/>
        <pt x="909" y="0" on="1"/>
        <pt x="608" y="0" on="1"/>
        <pt x="608" y="303" on="1"/>
        <pt x="4" y="303" on="1"/>
        <pt x="4" y="518" on="1"/>
        <pt x="625" y="1462" on="1"/>
        <pt x="909" y="1462" on="1"/>
        <pt x="909" y="543" on="1"/>
        <pt x="1085" y="543" on="1"/>
      </contour>
      <contour>
        <pt x="608" y="543" on="1"/>
        <pt x="608" y="791" on="1"/>
        <pt x="608" y="804" on="0"/>
        <pt x="609" y="853" on="0"/>
        <pt x="611" y="915" on="0"/>
        <pt x="614" y="981" on="0"/>
        <pt x="617" y="1041" on="0"/>
        <pt x="620" y="1086" on="0"/>
        <pt x="621" y="1096" on="1"/>
        <pt x="612" y="1096" on="1"/>
        <pt x="594" y="1054" on="0"/>
        <pt x="549" y="960" on="0"/>
        <pt x="520" y="913" on="1"/>
        <pt x="276" y="543" on="1"/>
      </contour>
    </TTGlyph>
    <TTGlyph name="foursuperior" xMin="12" yMin="586" xMax="758" yMax="1468">
      <contour>
        <pt x="758" y="737" on="1"/>
        <pt x="633" y="737" on="1"/>
        <pt x="633" y="586" on="1"/>
        <pt x="395" y="586" on="1"/>
        <pt x="395" y="737" on="1"/>
        <pt x="12" y="737" on="1"/>
        <pt x="12" y="891" on="1"/>
        <pt x="397" y="1468" on="1"/>
        <pt x="633" y="1468" on="1"/>
        <pt x="633" y="905" on="1"/>
        <pt x="758" y="905" on="1"/>
      </contour>
      <contour>
        <pt x="395" y="905" on="1"/>
        <pt x="395" y="1069" on="1"/>
        <pt x="395" y="1111" on="0"/>
        <pt x="398" y="1204" on="0"/>
        <pt x="401" y="1253" on="1"/>
        <pt x="396" y="1240" on="0"/>
        <pt x="377" y="1197" on="0"/>
        <pt x="355" y="1152" on="0"/>
        <pt x="333" y="1110" on="0"/>
        <pt x="324" y="1096" on="1"/>
        <pt x="197" y="905" on="1"/>
      </contour>
    </TTGlyph>
    <TTGlyph name="fraction" xMin="-393" yMin="0" xMax="657" yMax="1462">
      <contour>
        <pt x="657" y="1462" on="1"/>
        <pt x="-154" y="0" on="1"/>
        <pt x="-393" y="0" on="1"/>
        <pt x="418" y="1462" on="1"/>
      </contour>
    </TTGlyph>
    <TTGlyph name="g" xMin="20" yMin="-492" xMax="1085" yMax="1139">
      <contour>
        <pt x="1085" y="1116" on="1"/>
        <pt x="1085" y="950" on="1"/>
        <pt x="922" y="899" on="1"/>
        <pt x="942" y="865" on="0"/>
        <pt x="958" y="792" on="0"/>
        <pt x="958" y="750" on="1"/>
        <pt x="958" y="665" on="0"/>
        <pt x="904" y="524" on="0"/>
        <pt x="798" y="424" on="0"/>
        <pt x="638" y="369" on="0"/>
        <pt x="532" y="369" on="1"/>
        <pt x="509" y="369" on="0"/>
        <pt x="455" y="374" on="0"/>
        <pt x="442" y="377" on="1"/>
        <pt x="422" y="360" on="0"/>
        <pt x="399" y="323" on="0"/>
        <pt x="399" y="297" on="1"/>
        <pt x="399" y="276" on="0"/>
        <pt x="425" y="251" on="0"/>
        <pt x="467" y="236" on="0"/>
        <pt x="523" y="231" on="0"/>
        <pt x="553" y="231" on="1"/>
        <pt x="727" y="231" on="1"/>
        <pt x="808" y="231" on="0"/>
        <pt x="936" y="194" on="0"/>
        <pt x="1025" y="118" on="0"/>
        <pt x="1073" y="1" on="0"/>
        <pt x="1073" y="-80" on="1"/>
        <pt x="1073" y="-175" on="0"/>
        <pt x="997" y="-328" on="0"/>
        <pt x="846" y="-435" on="0"/>
        <pt x="622" y="-492" on="0"/>
        <pt x="475" y="-492" on="1"/>
        <pt x="361" y="-492" on="0"/>
        <pt x="191" y="-449" on="0"/>
        <pt x="77" y="-368" on="0"/>
        <pt x="20" y="-254" on="0"/>
        <pt x="20" y="-182" on="1"/>
        <pt x="20" y="-121" on="0"/>
        <pt x="62" y="-31" on="0"/>
        <pt x="132" y="33" on="0"/>
        <pt x="221" y="73" on="0"/>
        <pt x="268" y="84" on="1"/>
        <pt x="247" y="93" on="0"/>
        <pt x="206" y="125" on="0"/>
        <pt x="173" y="167" on="0"/>
        <pt x="152" y="218" on="0"/>
        <pt x="152" y="246" on="1"/>
        <pt x="152" y="278" on="0"/>
        <pt x="171" y="330" on="0"/>
        <pt x="207" y="375" on="0"/>
        <pt x="261" y="415" on="0"/>
        <pt x="295" y="436" on="1"/>
        <pt x="207" y="474" on="0"/>
        <pt x="104" y="642" on="0"/>
        <pt x="104" y="756" on="1"/>
        <pt x="104" y="846" on="0"/>
        <pt x="160" y="988" on="0"/>
        <pt x="268" y="1087" on="0"/>
        <pt x="428" y="1139" on="0"/>
        <pt x="532" y="1139" on="1"/>
        <pt x="552" y="1139" on="0"/>
        <pt x="602" y="1134" on="0"/>
        <pt x="651" y="1127" on="0"/>
        <pt x="693" y="1119" on="0"/>
        <pt x="705" y="1116" on="1"/>
      </contour>
      <contour>
        <pt x="285" y="-158" on="1"/>
        <pt x="285" y="-183" on="0"/>
        <pt x="306" y="-230" on="0"/>
        <pt x="354" y="-266" on="0"/>
        <pt x="432" y="-287" on="0"/>
        <pt x="489" y="-287" on="1"/>
        <pt x="645" y="-287" on="0"/>
        <pt x="803" y="-199" on="0"/>
        <pt x="803" y="-125" on="1"/>
        <pt x="803" y="-62" on="0"/>
        <pt x="705" y="-20" on="0"/>
        <pt x="602" y="-20" on="1"/>
        <pt x="461" y="-20" on="1"/>
        <pt x="434" y="-20" on="0"/>
        <pt x="372" y="-33" on="0"/>
        <pt x="320" y="-65" on="0"/>
        <pt x="285" y="-118" on="0"/>
      </contour>
      <contour>
        <pt x="395" y="752" on="1"/>
        <pt x="395" y="661" on="0"/>
        <pt x="463" y="561" on="0"/>
        <pt x="532" y="561" on="1"/>
        <pt x="604" y="561" on="0"/>
        <pt x="668" y="661" on="0"/>
        <pt x="668" y="752" on="1"/>
        <pt x="668" y="842" on="0"/>
        <pt x="605" y="948" on="0"/>
        <pt x="532" y="948" on="1"/>
        <pt x="395" y="948" on="0"/>
      </contour>
    </TTGlyph>
    <TTGlyph name="germandbls" xMin="160" yMin="-20" xMax="1323" yMax="1567">
      <contour>
        <pt x="1188" y="1241" on="1"/>
        <pt x="1188" y="1177" on="0"/>
        <pt x="1145" y="1080" on="0"/>
        <pt x="1082" y="1004" on="0"/>
        <pt x="1007" y="946" on="0"/>
        <pt x="944" y="898" on="0"/>
        <pt x="901" y="856" on="0"/>
        <pt x="901" y="834" on="1"/>
        <pt x="901" y="814" on="0"/>
        <pt x="926" y="780" on="0"/>
        <pt x="979" y="740" on="0"/>
        <pt x="1061" y="689" on="0"/>
        <pt x="1118" y="651" on="1"/>
        <pt x="1167" y="620" on="0"/>
        <pt x="1243" y="555" on="0"/>
        <pt x="1296" y="478" on="0"/>
        <pt x="1323" y="386" on="0"/>
        <pt x="1323" y="326" on="1"/>
        <pt x="1323" y="154" on="0"/>
        <pt x="1089" y="-20" on="0"/>
        <pt x="862" y="-20" on="1"/>
        <pt x="764" y="-20" on="0"/>
        <pt x="619" y="9" on="0"/>
        <pt x="559" y="43" on="1"/>
        <pt x="559" y="285" on="1"/>
        <pt x="583" y="269" on="0"/>
        <pt x="652" y="238" on="0"/>
        <pt x="728" y="214" on="0"/>
        <pt x="808" y="199" on="0"/>
        <pt x="842" y="199" on="1"/>
        <pt x="922" y="199" on="0"/>
        <pt x="1010" y="260" on="0"/>
        <pt x="1010" y="322" on="1"/>
        <pt x="1010" y="349" on="0"/>
        <pt x="996" y="391" on="0"/>
        <pt x="955" y="433" on="0"/>
        <pt x="881" y="482" on="0"/>
        <pt x="821" y="516" on="1"/>
        <pt x="758" y="552" on="0"/>
        <pt x="673" y="616" on="0"/>
        <pt x="620" y="679" on="0"/>
        <pt x="598" y="748" on="0"/>
        <pt x="598" y="788" on="1"/>
        <pt x="598" y="841" on="0"/>
        <pt x="639" y="919" on="0"/>
        <pt x="701" y="981" on="0"/>
        <pt x="774" y="1033" on="0"/>
        <pt x="836" y="1086" on="0"/>
        <pt x="877" y="1148" on="0"/>
        <pt x="877" y="1188" on="1"/>
        <pt x="877" y="1251" on="0"/>
        <pt x="777" y="1329" on="0"/>
        <pt x="680" y="1329" on="1"/>
        <pt x="572" y="1329" on="0"/>
        <pt x="465" y="1232" on="0"/>
        <pt x="465" y="1128" on="1"/>
        <pt x="465" y="0" on="1"/>
        <pt x="160" y="0" on="1"/>
        <pt x="160" y="1139" on="1"/>
        <pt x="160" y="1248" on="0"/>
        <pt x="234" y="1409" on="0"/>
        <pt x="371" y="1515" on="0"/>
        <pt x="563" y="1567" on="0"/>
        <pt x="680" y="1567" on="1"/>
        <pt x="795" y="1567" on="0"/>
        <pt x="983" y="1524" on="0"/>
        <pt x="1116" y="1441" on="0"/>
        <pt x="1188" y="1319" on="0"/>
      </contour>
    </TTGlyph>
    <TTGlyph name="grave" xMin="332" yMin="1241" xMax="848" yMax="1569">
      <contour>
        <pt x="645" y="1241" on="1"/>
        <pt x="611" y="1269" on="0"/>
        <pt x="516" y="1352" on="0"/>
        <pt x="424" y="1440" on="0"/>
        <pt x="348" y="1521" on="0"/>
        <pt x="332" y="1548" on="1"/>
        <pt x="332" y="1569" on="1"/>
        <pt x="674" y="1569" on="1"/>
        <pt x="690" y="1535" on="0"/>
        <pt x="733" y="1454" on="0"/>
        <pt x="779" y="1373" on="0"/>
        <pt x="827" y="1297" on="0"/>
        <pt x="848" y="1268" on="1"/>
        <pt x="848" y="1241" on="1"/>
      </contour>
    </TTGlyph>
    <TTGlyph name="greater" xMin="88" yMin="203" xMax="1040" yMax="1280">
      <contour>
        <pt x="88" y="442" on="1"/>
        <pt x="731" y="723" on="1"/>
        <pt x="88" y="1040" on="1"/>
        <pt x="88" y="1280" on="1"/>
        <pt x="1040" y="784" on="1"/>
        <pt x="1040" y="641" on="1"/>
        <pt x="88" y="203" on="1"/>
      </contour>
    </TTGlyph>
    <TTGlyph name="guillemotleft" xMin="82" yMin="94" xMax="1116" yMax="1028">
      <contour>
        <pt x="82" y="573" on="1"/>
        <pt x="391" y="1028" on="1"/>
        <pt x="610" y="909" on="1"/>
        <pt x="393" y="561" on="1"/>
        <pt x="610" y="213" on="1"/>
        <pt x="391" y="94" on="1"/>
        <pt x="82" y="547" on="1"/>
      </contour>
      <contour>
        <pt x="588" y="573" on="1"/>
        <pt x="897" y="1028" on="1"/>
        <pt x="1116" y="909" on="1"/>
        <pt x="899" y="561" on="1"/>
        <pt x="1116" y="213" on="1"/>
        <pt x="897" y="94" on="1"/>
        <pt x="588" y="547" on="1"/>
      </contour>
    </TTGlyph>
    <TTGlyph name="guillemotright" xMin="84" yMin="94" xMax="1118" yMax="1028">
      <contour>
        <pt x="1118" y="547" on="1"/>
        <pt x="809" y="94" on="1"/>
        <pt x="590" y="213" on="1"/>
        <pt x="807" y="561" on="1"/>
        <pt x="590" y="909" on="1"/>
        <pt x="809" y="1028" on="1"/>
        <pt x="1118" y="573" on="1"/>
      </contour>
      <contour>
        <pt x="612" y="547" on="1"/>
        <pt x="303" y="94" on="1"/>
        <pt x="84" y="213" on="1"/>
        <pt x="301" y="561" on="1"/>
        <pt x="84" y="909" on="1"/>
        <pt x="303" y="1028" on="1"/>
        <pt x="612" y="573" on="1"/>
      </contour>
    </TTGlyph>
    <TTGlyph name="guilsinglleft" xMin="82" yMin="94" xMax="610" yMax="1028">
      <contour>
        <pt x="82" y="573" on="1"/>
        <pt x="391" y="1028" on="1"/>
        <pt x="610" y="909" on="1"/>
        <pt x="393" y="561" on="1"/>
        <pt x="610" y="213" on="1"/>
        <pt x="391" y="94" on="1"/>
        <pt x="82" y="547" on="1"/>
      </contour>
    </TTGlyph>
    <TTGlyph name="guilsinglright" xMin="82" yMin="94" xMax="610" yMax="1028">
      <contour>
        <pt x="610" y="547" on="1"/>
        <pt x="301" y="94" on="1"/>
        <pt x="82" y="213" on="1"/>
        <pt x="299" y="561" on="1"/>
        <pt x="82" y="909" on="1"/>
        <pt x="301" y="1028" on="1"/>
        <pt x="610" y="573" on="1"/>
      </contour>
    </TTGlyph>
    <TTGlyph name="h" xMin="160" yMin="0" xMax="1130" yMax="1556">
      <contour>
        <pt x="1130" y="0" on="1"/>
        <pt x="825" y="0" on="1"/>
        <pt x="825" y="653" on="1"/>
        <pt x="825" y="774" on="0"/>
        <pt x="750" y="895" on="0"/>
        <pt x="672" y="895" on="1"/>
        <pt x="613" y="895" on="0"/>
        <pt x="533" y="847" on="0"/>
        <pt x="485" y="753" on="0"/>
        <pt x="465" y="615" on="0"/>
        <pt x="465" y="526" on="1"/>
        <pt x="465" y="0" on="1"/>
        <pt x="160" y="0" on="1"/>
        <pt x="160" y="1556" on="1"/>
        <pt x="465" y="1556" on="1"/>
        <pt x="465" y="1239" on="1"/>
        <pt x="465" y="1197" on="0"/>
        <pt x="461" y="1104" on="0"/>
        <pt x="458" y="1065" on="1"/>
        <pt x="454" y="1019" on="0"/>
        <pt x="451" y="975" on="1"/>
        <pt x="467" y="975" on="1"/>
        <pt x="516" y="1062" on="0"/>
        <pt x="668" y="1139" on="0"/>
        <pt x="764" y="1139" on="1"/>
        <pt x="847" y="1139" on="0"/>
        <pt x="982" y="1092" on="0"/>
        <pt x="1078" y="992" on="0"/>
        <pt x="1130" y="837" on="0"/>
        <pt x="1130" y="729" on="1"/>
      </contour>
    </TTGlyph>
    <TTGlyph name="hyphen" xMin="61" yMin="424" xMax="598" yMax="674">
      <contour>
        <pt x="61" y="424" on="1"/>
        <pt x="61" y="674" on="1"/>
        <pt x="598" y="674" on="1"/>
        <pt x="598" y="424" on="1"/>
      </contour>
    </TTGlyph>
    <TTGlyph name="i" xMin="147" yMin="0" xMax="479" yMax="1556">
      <contour>
        <pt x="147" y="1407" on="1"/>
        <pt x="147" y="1450" on="0"/>
        <pt x="173" y="1507" on="0"/>
        <pt x="218" y="1542" on="0"/>
        <pt x="279" y="1556" on="0"/>
        <pt x="313" y="1556" on="1"/>
        <pt x="347" y="1556" on="0"/>
        <pt x="407" y="1542" on="0"/>
        <pt x="452" y="1507" on="0"/>
        <pt x="479" y="1450" on="0"/>
        <pt x="479" y="1407" on="1"/>
        <pt x="479" y="1365" on="0"/>
        <pt x="452" y="1307" on="0"/>
        <pt x="407" y="1272" on="0"/>
        <pt x="347" y="1257" on="0"/>
        <pt x="313" y="1257" on="1"/>
        <pt x="279" y="1257" on="0"/>
        <pt x="218" y="1272" on="0"/>
        <pt x="173" y="1307" on="0"/>
        <pt x="147" y="1365" on="0"/>
      </contour>
      <contour>
        <pt x="465" y="0" on="1"/>
        <pt x="160" y="0" on="1"/>
        <pt x="160" y="1118" on="1"/>
        <pt x="465" y="1118" on="1"/>
      </contour>
    </TTGlyph>
    <TTGlyph name="iacute" xMin="145" yMin="0" xMax="661" yMax="1569">
      <component glyphName="dotlessi" x="0" y="0" flags="0x1204"/>
      <component glyphName="acute" x="-187" y="0" flags="0x1004"/>
    </TTGlyph>
    <TTGlyph name="icircumflex" xMin="-104" yMin="0" xMax="724" yMax="1569">
      <component glyphName="dotlessi" x="0" y="0" flags="0x1204"/>
      <component glyphName="circumflex" x="-280" y="0" flags="0x1004"/>
    </TTGlyph>
    <TTGlyph name="idieresis" xMin="-32" yMin="0" xMax="654" yMax="1540">
      <component glyphName="dotlessi" x="0" y="0" flags="0x1204"/>
      <component glyphName="dieresis" x="-280" y="0" flags="0x1004"/>
    </TTGlyph>
    <TTGlyph name="igrave" xMin="-44" yMin="0" xMax="472" yMax="1569">
      <component glyphName="dotlessi" x="0" y="0" flags="0x1204"/>
      <component glyphName="grave" x="-376" y="0" flags="0x1004"/>
    </TTGlyph>
    <TTGlyph name="j" xMin="-82" yMin="-492" xMax="479" yMax="1556">
      <contour>
        <pt x="102" y="-492" on="1"/>
        <pt x="54" y="-492" on="0"/>
        <pt x="-48" y="-478" on="0"/>
        <pt x="-82" y="-467" on="1"/>
        <pt x="-82" y="-227" on="1"/>
        <pt x="-51" y="-237" on="0"/>
        <pt x="3" y="-246" on="0"/>
        <pt x="37" y="-246" on="1"/>
        <pt x="62" y="-246" on="0"/>
        <pt x="107" y="-231" on="0"/>
        <pt x="140" y="-192" on="0"/>
        <pt x="160" y="-127" on="0"/>
        <pt x="160" y="-76" on="1"/>
        <pt x="160" y="1118" on="1"/>
        <pt x="465" y="1118" on="1"/>
        <pt x="465" y="-121" on="1"/>
        <pt x="465" y="-198" on="0"/>
        <pt x="426" y="-333" on="0"/>
        <pt x="339" y="-434" on="0"/>
        <pt x="201" y="-492" on="0"/>
      </contour>
      <contour>
        <pt x="147" y="1407" on="1"/>
        <pt x="147" y="1450" on="0"/>
        <pt x="173" y="1507" on="0"/>
        <pt x="218" y="1542" on="0"/>
        <pt x="279" y="1556" on="0"/>
        <pt x="313" y="1556" on="1"/>
        <pt x="347" y="1556" on="0"/>
        <pt x="407" y="1542" on="0"/>
        <pt x="452" y="1507" on="0"/>
        <pt x="479" y="1450" on="0"/>
        <pt x="479" y="1407" on="1"/>
        <pt x="479" y="1365" on="0"/>
        <pt x="452" y="1307" on="0"/>
        <pt x="407" y="1272" on="0"/>
        <pt x="347" y="1257" on="0"/>
        <pt x="313" y="1257" on="1"/>
        <pt x="279" y="1257" on="0"/>
        <pt x="218" y="1272" on="0"/>
        <pt x="173" y="1307" on="0"/>
        <pt x="147" y="1365" on="0"/>
      </contour>
    </TTGlyph>
    <TTGlyph name="k" xMin="160" yMin="0" xMax="1208" yMax="1556">
      <contour>
        <pt x="453" y="608" on="1"/>
        <pt x="565" y="778" on="1"/>
        <pt x="838" y="1118" on="1"/>
        <pt x="1182" y="1118" on="1"/>
        <pt x="778" y="633" on="1"/>
        <pt x="1208" y="0" on="1"/>
        <pt x="856" y="0" on="1"/>
        <pt x="584" y="430" on="1"/>
        <pt x="465" y="348" on="1"/>
        <pt x="465" y="0" on="1"/>
        <pt x="160" y="0" on="1"/>
        <pt x="160" y="1556" on="1"/>
        <pt x="465" y="1556" on="1"/>
        <pt x="465" y="862" on="1"/>
        <pt x="449" y="608" on="1"/>
      </contour>
    </TTGlyph>
    <TTGlyph name="l" xMin="160" yMin="0" xMax="465" yMax="1556">
      <contour>
        <pt x="465" y="0" on="1"/>
        <pt x="160" y="0" on="1"/>
        <pt x="160" y="1556" on="1"/>
        <pt x="465" y="1556" on="1"/>
      </contour>
    </TTGlyph>
    <TTGlyph name="less" xMin="88" yMin="203" xMax="1040" yMax="1280">
      <contour>
        <pt x="1040" y="203" on="1"/>
        <pt x="88" y="641" on="1"/>
        <pt x="88" y="784" on="1"/>
        <pt x="1040" y="1280" on="1"/>
        <pt x="1040" y="1040" on="1"/>
        <pt x="397" y="723" on="1"/>
        <pt x="1040" y="442" on="1"/>
      </contour>
    </TTGlyph>
    <TTGlyph name="logicalnot" xMin="88" yMin="248" xMax="1040" yMax="831">
      <contour>
        <pt x="1040" y="248" on="1"/>
        <pt x="821" y="248" on="1"/>
        <pt x="821" y="612" on="1"/>
        <pt x="88" y="612" on="1"/>
        <pt x="88" y="831" on="1"/>
        <pt x="1040" y="831" on="1"/>
      </contour>
    </TTGlyph>
    <TTGlyph name="m" xMin="160" yMin="0" xMax="1776" yMax="1139">
      <contour>
        <pt x="1120" y="0" on="1"/>
        <pt x="815" y="0" on="1"/>
        <pt x="815" y="653" on="1"/>
        <pt x="815" y="774" on="0"/>
        <pt x="743" y="895" on="0"/>
        <pt x="666" y="895" on="1"/>
        <pt x="608" y="895" on="0"/>
        <pt x="531" y="847" on="0"/>
        <pt x="485" y="753" on="0"/>
        <pt x="465" y="615" on="0"/>
        <pt x="465" y="526" on="1"/>
        <pt x="465" y="0" on="1"/>
        <pt x="160" y="0" on="1"/>
        <pt x="160" y="1118" on="1"/>
        <pt x="393" y="1118" on="1"/>
        <pt x="434" y="975" on="1"/>
        <pt x="451" y="975" on="1"/>
        <pt x="475" y="1018" on="0"/>
        <pt x="542" y="1080" on="0"/>
        <pt x="622" y="1120" on="0"/>
        <pt x="712" y="1139" on="0"/>
        <pt x="758" y="1139" on="1"/>
        <pt x="873" y="1139" on="0"/>
        <pt x="1034" y="1060" on="0"/>
        <pt x="1077" y="975" on="1"/>
        <pt x="1102" y="975" on="1"/>
        <pt x="1126" y="1018" on="0"/>
        <pt x="1194" y="1080" on="0"/>
        <pt x="1276" y="1120" on="0"/>
        <pt x="1367" y="1139" on="0"/>
        <pt x="1413" y="1139" on="1"/>
        <pt x="1593" y="1139" on="0"/>
        <pt x="1776" y="944" on="0"/>
        <pt x="1776" y="729" on="1"/>
        <pt x="1776" y="0" on="1"/>
        <pt x="1470" y="0" on="1"/>
        <pt x="1470" y="653" on="1"/>
        <pt x="1470" y="774" on="0"/>
        <pt x="1398" y="895" on="0"/>
        <pt x="1321" y="895" on="1"/>
        <pt x="1212" y="895" on="0"/>
        <pt x="1120" y="722" on="0"/>
        <pt x="1120" y="561" on="1"/>
      </contour>
    </TTGlyph>
    <TTGlyph name="mu" xMin="160" yMin="-492" xMax="1130" yMax="1118">
      <contour>
        <pt x="465" y="465" on="1"/>
        <pt x="465" y="344" on="0"/>
        <pt x="540" y="223" on="0"/>
        <pt x="621" y="223" on="1"/>
        <pt x="679" y="223" on="0"/>
        <pt x="757" y="271" on="0"/>
        <pt x="805" y="365" on="0"/>
        <pt x="825" y="503" on="0"/>
        <pt x="825" y="592" on="1"/>
        <pt x="825" y="1118" on="1"/>
        <pt x="1130" y="1118" on="1"/>
        <pt x="1130" y="0" on="1"/>
        <pt x="897" y="0" on="1"/>
        <pt x="854" y="150" on="1"/>
        <pt x="842" y="150" on="1"/>
        <pt x="807" y="65" on="0"/>
        <pt x="702" y="-20" on="0"/>
        <pt x="627" y="-20" on="1"/>
        <pt x="573" y="-20" on="0"/>
        <pt x="483" y="26" on="0"/>
        <pt x="455" y="70" on="1"/>
        <pt x="457" y="28" on="0"/>
        <pt x="460" y="-15" on="1"/>
        <pt x="462" y="-52" on="0"/>
        <pt x="465" y="-136" on="0"/>
        <pt x="465" y="-172" on="1"/>
        <pt x="465" y="-492" on="1"/>
        <pt x="160" y="-492" on="1"/>
        <pt x="160" y="1118" on="1"/>
        <pt x="465" y="1118" on="1"/>
      </contour>
    </TTGlyph>
    <TTGlyph name="multiply" xMin="109" yMin="268" xMax="1020" yMax="1178">
      <contour>
        <pt x="408" y="723" on="1"/>
        <pt x="109" y="1024" on="1"/>
        <pt x="260" y="1178" on="1"/>
        <pt x="561" y="879" on="1"/>
        <pt x="866" y="1178" on="1"/>
        <pt x="1020" y="1028" on="1"/>
        <pt x="715" y="723" on="1"/>
        <pt x="1016" y="420" on="1"/>
        <pt x="866" y="268" on="1"/>
        <pt x="561" y="569" on="1"/>
        <pt x="260" y="270" on="1"/>
        <pt x="111" y="422" on="1"/>
      </contour>
    </TTGlyph>
    <TTGlyph name="n" xMin="160" yMin="0" xMax="1130" yMax="1139">
      <contour>
        <pt x="1130" y="0" on="1"/>
        <pt x="825" y="0" on="1"/>
        <pt x="825" y="653" on="1"/>
        <pt x="825" y="774" on="0"/>
        <pt x="752" y="895" on="0"/>
        <pt x="672" y="895" on="1"/>
        <pt x="612" y="895" on="0"/>
        <pt x="532" y="847" on="0"/>
        <pt x="485" y="753" on="0"/>
        <pt x="465" y="615" on="0"/>
        <pt x="465" y="526" on="1"/>
        <pt x="465" y="0" on="1"/>
        <pt x="160" y="0" on="1"/>
        <pt x="160" y="1118" on="1"/>
        <pt x="393" y="1118" on="1"/>
        <pt x="434" y="975" on="1"/>
        <pt x="451" y="975" on="1"/>
        <pt x="475" y="1018" on="0"/>
        <pt x="544" y="1080" on="0"/>
        <pt x="626" y="1120" on="0"/>
        <pt x="718" y="1139" on="0"/>
        <pt x="766" y="1139" on="1"/>
        <pt x="848" y="1139" on="0"/>
        <pt x="982" y="1092" on="0"/>
        <pt x="1078" y="992" on="0"/>
        <pt x="1130" y="837" on="0"/>
        <pt x="1130" y="729" on="1"/>
      </contour>
    </TTGlyph>
    <TTGlyph name="nine" xMin="63" yMin="-20" xMax="1055" yMax="1479">
      <contour>
        <pt x="1055" y="838" on="1"/>
        <pt x="1055" y="733" on="0"/>
        <pt x="1032" y="524" on="0"/>
        <pt x="973" y="334" on="0"/>
        <pt x="872" y="169" on="0"/>
        <pt x="717" y="49" on="0"/>
        <pt x="500" y="-20" on="0"/>
        <pt x="354" y="-20" on="1"/>
        <pt x="333" y="-20" on="0"/>
        <pt x="283" y="-18" on="0"/>
        <pt x="232" y="-15" on="0"/>
        <pt x="184" y="-10" on="0"/>
        <pt x="166" y="-6" on="1"/>
        <pt x="166" y="242" on="1"/>
        <pt x="203" y="232" on="0"/>
        <pt x="288" y="221" on="0"/>
        <pt x="332" y="221" on="1"/>
        <pt x="467" y="221" on="0"/>
        <pt x="641" y="288" on="0"/>
        <pt x="743" y="409" on="0"/>
        <pt x="786" y="577" on="0"/>
        <pt x="791" y="678" on="1"/>
        <pt x="778" y="678" on="1"/>
        <pt x="758" y="642" on="0"/>
        <pt x="702" y="580" on="0"/>
        <pt x="626" y="534" on="0"/>
        <pt x="530" y="508" on="0"/>
        <pt x="471" y="508" on="1"/>
        <pt x="376" y="508" on="0"/>
        <pt x="224" y="570" on="0"/>
        <pt x="119" y="688" on="0"/>
        <pt x="63" y="860" on="0"/>
        <pt x="63" y="971" on="1"/>
        <pt x="63" y="1090" on="0"/>
        <pt x="130" y="1278" on="0"/>
        <pt x="254" y="1409" on="0"/>
        <pt x="431" y="1479" on="0"/>
        <pt x="541" y="1479" on="1"/>
        <pt x="649" y="1479" on="0"/>
        <pt x="837" y="1402" on="0"/>
        <pt x="975" y="1244" on="0"/>
        <pt x="1055" y="1002" on="0"/>
      </contour>
      <contour>
        <pt x="547" y="1231" on="1"/>
        <pt x="506" y="1231" on="0"/>
        <pt x="438" y="1201" on="0"/>
        <pt x="389" y="1138" on="0"/>
        <pt x="362" y="1041" on="0"/>
        <pt x="362" y="975" on="1"/>
        <pt x="362" y="869" on="0"/>
        <pt x="452" y="745" on="0"/>
        <pt x="543" y="745" on="1"/>
        <pt x="589" y="745" on="0"/>
        <pt x="665" y="781" on="0"/>
        <pt x="719" y="839" on="0"/>
        <pt x="748" y="911" on="0"/>
        <pt x="748" y="948" on="1"/>
        <pt x="748" y="999" on="0"/>
        <pt x="723" y="1100" on="0"/>
        <pt x="672" y="1181" on="0"/>
        <pt x="597" y="1231" on="0"/>
      </contour>
    </TTGlyph>
    <TTGlyph name="ntilde" xMin="160" yMin="0" xMax="1130" yMax="1550">
      <component glyphName="n" x="0" y="0" flags="0x1204"/>
      <component glyphName="tilde" x="51" y="0" flags="0x1004"/>
    </TTGlyph>
    <TTGlyph name="numbersign" xMin="45" yMin="0" xMax="1278" yMax="1460">
      <contour>
        <pt x="999" y="844" on="1"/>
        <pt x="952" y="612" on="1"/>
        <pt x="1210" y="612" on="1"/>
        <pt x="1210" y="406" on="1"/>
        <pt x="913" y="406" on="1"/>
        <pt x="836" y="0" on="1"/>
        <pt x="616" y="0" on="1"/>
        <pt x="694" y="406" on="1"/>
        <pt x="500" y="406" on="1"/>
        <pt x="424" y="0" on="1"/>
        <pt x="209" y="0" on="1"/>
        <pt x="283" y="406" on="1"/>
        <pt x="45" y="406" on="1"/>
        <pt x="45" y="612" on="1"/>
        <pt x="322" y="612" on="1"/>
        <pt x="369" y="844" on="1"/>
        <pt x="117" y="844" on="1"/>
        <pt x="117" y="1053" on="1"/>
        <pt x="406" y="1053" on="1"/>
        <pt x="483" y="1460" on="1"/>
        <pt x="702" y="1460" on="1"/>
        <pt x="625" y="1053" on="1"/>
        <pt x="823" y="1053" on="1"/>
        <pt x="901" y="1460" on="1"/>
        <pt x="1116" y="1460" on="1"/>
        <pt x="1038" y="1053" on="1"/>
        <pt x="1278" y="1053" on="1"/>
        <pt x="1278" y="844" on="1"/>
      </contour>
      <contour>
        <pt x="539" y="612" on="1"/>
        <pt x="735" y="612" on="1"/>
        <pt x="782" y="844" on="1"/>
        <pt x="586" y="844" on="1"/>
      </contour>
    </TTGlyph>
    <TTGlyph name="o" xMin="102" yMin="-20" xMax="1124" yMax="1139">
      <contour>
        <pt x="414" y="561" on="1"/>
        <pt x="414" y="394" on="0"/>
        <pt x="508" y="225" on="0"/>
        <pt x="614" y="225" on="1"/>
        <pt x="719" y="225" on="0"/>
        <pt x="813" y="395" on="0"/>
        <pt x="813" y="561" on="1"/>
        <pt x="813" y="728" on="0"/>
        <pt x="719" y="893" on="0"/>
        <pt x="612" y="893" on="1"/>
        <pt x="507" y="893" on="0"/>
        <pt x="414" y="728" on="0"/>
      </contour>
      <contour>
        <pt x="1124" y="561" on="1"/>
        <pt x="1124" y="421" on="0"/>
        <pt x="1053" y="205" on="0"/>
        <pt x="920" y="57" on="0"/>
        <pt x="729" y="-20" on="0"/>
        <pt x="610" y="-20" on="1"/>
        <pt x="499" y="-20" on="0"/>
        <pt x="313" y="57" on="0"/>
        <pt x="178" y="205" on="0"/>
        <pt x="102" y="421" on="0"/>
        <pt x="102" y="561" on="1"/>
        <pt x="102" y="700" on="0"/>
        <pt x="173" y="916" on="0"/>
        <pt x="306" y="1063" on="0"/>
        <pt x="496" y="1139" on="0"/>
        <pt x="616" y="1139" on="1"/>
        <pt x="727" y="1139" on="0"/>
        <pt x="913" y="1063" on="0"/>
        <pt x="1048" y="916" on="0"/>
        <pt x="1124" y="700" on="0"/>
      </contour>
    </TTGlyph>
    <TTGlyph name="oacute" xMin="102" yMin="-20" xMax="1124" yMax="1569">
      <component glyphName="o" x="0" y="0" flags="0x1204"/>
      <component glyphName="acute" x="102" y="0" flags="0x1004"/>
    </TTGlyph>
    <TTGlyph name="ocircumflex" xMin="102" yMin="-20" xMax="1124" yMax="1569">
      <component glyphName="o" x="0" y="0" flags="0x1204"/>
      <component glyphName="circumflex" x="20" y="0" flags="0x1004"/>
    </TTGlyph>
    <TTGlyph name="odieresis" xMin="102" yMin="-20" xMax="1124" yMax="1540">
      <component glyphName="o" x="0" y="0" flags="0x1204"/>
      <component glyphName="dieresis" x="18" y="0" flags="0x1004"/>
    </TTGlyph>
    <TTGlyph name="ograve" xMin="102" yMin="-20" xMax="1124" yMax="1569">
      <component glyphName="o" x="0" y="0" flags="0x1204"/>
      <component glyphName="grave" x="-60" y="0" flags="0x1004"/>
    </TTGlyph>
    <TTGlyph name="one" xMin="92" yMin="0" xMax="817" yMax="1462">
      <contour>
        <pt x="817" y="0" on="1"/>
        <pt x="508" y="0" on="1"/>
        <pt x="508" y="846" on="1"/>
        <pt x="508" y="872" on="0"/>
        <pt x="509" y="945" on="0"/>
        <pt x="512" y="1024" on="0"/>
        <pt x="515" y="1104" on="0"/>
        <pt x="516" y="1137" on="1"/>
        <pt x="511" y="1131" on="0"/>
        <pt x="487" y="1107" on="0"/>
        <pt x="457" y="1078" on="0"/>
        <pt x="425" y="1048" on="0"/>
        <pt x="410" y="1036" on="1"/>
        <pt x="242" y="901" on="1"/>
        <pt x="92" y="1087" on="1"/>
        <pt x="563" y="1462" on="1"/>
        <pt x="817" y="1462" on="1"/>
      </contour>
    </TTGlyph>
    <TTGlyph name="onehalf" xMin="46" yMin="0" xMax="1716" yMax="1462">
      <component glyphName="fraction" x="713" y="0" flags="0x1004"/>
      <component glyphName="onesuperior" x="-46" y="0" flags="0x1004"/>
      <component glyphName="twosuperior" x="1014" y="-585" flags="0x1004"/>
    </TTGlyph>
    <TTGlyph name="onequarter" xMin="46" yMin="0" xMax="1682" yMax="1462">
      <component glyphName="fraction" x="713" y="0" flags="0x1004"/>
      <component glyphName="onesuperior" x="-46" y="0" flags="0x1004"/>
      <component glyphName="foursuperior" x="924" y="-585" flags="0x1004"/>
    </TTGlyph>
    <TTGlyph name="onesuperior" xMin="92" yMin="586" xMax="584" yMax="1462">
      <contour>
        <pt x="584" y="586" on="1"/>
        <pt x="346" y="586" on="1"/>
        <pt x="346" y="1032" on="1"/>
        <pt x="346" y="1052" on="0"/>
        <pt x="347" y="1113" on="0"/>
        <pt x="350" y="1175" on="0"/>
        <pt x="353" y="1227" on="0"/>
        <pt x="354" y="1239" on="1"/>
        <pt x="348" y="1231" on="0"/>
        <pt x="329" y="1210" on="0"/>
        <pt x="308" y="1188" on="0"/>
        <pt x="287" y="1168" on="0"/>
        <pt x="279" y="1161" on="1"/>
        <pt x="201" y="1100" on="1"/>
        <pt x="92" y="1227" on="1"/>
        <pt x="393" y="1462" on="1"/>
        <pt x="584" y="1462" on="1"/>
      </contour>
    </TTGlyph>
    <TTGlyph name="ordfeminine" xMin="47" yMin="752" xMax="655" yMax="1479">
      <contour>
        <pt x="520" y="764" on="1"/>
        <pt x="489" y="874" on="1"/>
        <pt x="449" y="816" on="0"/>
        <pt x="336" y="752" on="0"/>
        <pt x="268" y="752" on="1"/>
        <pt x="218" y="752" on="0"/>
        <pt x="137" y="779" on="0"/>
        <pt x="79" y="834" on="0"/>
        <pt x="47" y="918" on="0"/>
        <pt x="47" y="975" on="1"/>
        <pt x="47" y="1035" on="0"/>
        <pt x="90" y="1118" on="0"/>
        <pt x="171" y="1171" on="0"/>
        <pt x="290" y="1198" on="0"/>
        <pt x="365" y="1202" on="1"/>
        <pt x="455" y="1206" on="1"/>
        <pt x="455" y="1269" on="0"/>
        <pt x="396" y="1323" on="0"/>
        <pt x="342" y="1323" on="1"/>
        <pt x="302" y="1323" on="0"/>
        <pt x="204" y="1289" on="0"/>
        <pt x="152" y="1262" on="1"/>
        <pt x="86" y="1397" on="1"/>
        <pt x="148" y="1429" on="0"/>
        <pt x="296" y="1479" on="0"/>
        <pt x="387" y="1479" on="1"/>
        <pt x="455" y="1479" on="0"/>
        <pt x="556" y="1440" on="0"/>
        <pt x="622" y="1369" on="0"/>
        <pt x="655" y="1268" on="0"/>
        <pt x="655" y="1206" on="1"/>
        <pt x="655" y="764" on="1"/>
      </contour>
      <contour>
        <pt x="373" y="1081" on="1"/>
        <pt x="335" y="1078" on="0"/>
        <pt x="288" y="1058" on="0"/>
        <pt x="261" y="1029" on="0"/>
        <pt x="252" y="995" on="0"/>
        <pt x="252" y="977" on="1"/>
        <pt x="252" y="939" on="0"/>
        <pt x="290" y="903" on="0"/>
        <pt x="317" y="903" on="1"/>
        <pt x="349" y="903" on="0"/>
        <pt x="400" y="925" on="0"/>
        <pt x="436" y="964" on="0"/>
        <pt x="455" y="1019" on="0"/>
        <pt x="455" y="1051" on="1"/>
        <pt x="455" y="1087" on="1"/>
      </contour>
    </TTGlyph>
    <TTGlyph name="ordmasculine" xMin="57" yMin="752" xMax="696" yMax="1479">
      <contour>
        <pt x="696" y="1116" on="1"/>
        <pt x="696" y="1029" on="0"/>
        <pt x="651" y="894" on="0"/>
        <pt x="567" y="801" on="0"/>
        <pt x="449" y="752" on="0"/>
        <pt x="375" y="752" on="1"/>
        <pt x="306" y="752" on="0"/>
        <pt x="189" y="801" on="0"/>
        <pt x="104" y="894" on="0"/>
        <pt x="57" y="1029" on="0"/>
        <pt x="57" y="1116" on="1"/>
        <pt x="57" y="1203" on="0"/>
        <pt x="102" y="1338" on="0"/>
        <pt x="185" y="1431" on="0"/>
        <pt x="304" y="1479" on="0"/>
        <pt x="379" y="1479" on="1"/>
        <pt x="447" y="1479" on="0"/>
        <pt x="562" y="1431" on="0"/>
        <pt x="648" y="1338" on="0"/>
        <pt x="696" y="1203" on="0"/>
      </contour>
      <contour>
        <pt x="260" y="1116" on="1"/>
        <pt x="260" y="1016" on="0"/>
        <pt x="315" y="915" on="0"/>
        <pt x="377" y="915" on="1"/>
        <pt x="437" y="915" on="0"/>
        <pt x="492" y="1016" on="0"/>
        <pt x="492" y="1116" on="1"/>
        <pt x="492" y="1216" on="0"/>
        <pt x="437" y="1315" on="0"/>
        <pt x="377" y="1315" on="1"/>
        <pt x="315" y="1315" on="0"/>
        <pt x="260" y="1216" on="0"/>
      </contour>
    </TTGlyph>
    <TTGlyph name="oslash" xMin="102" yMin="-76" xMax="1124" yMax="1169">
      <contour>
        <pt x="1124" y="561" on="1"/>
        <pt x="1124" y="421" on="0"/>
        <pt x="1053" y="205" on="0"/>
        <pt x="920" y="57" on="0"/>
        <pt x="729" y="-20" on="0"/>
        <pt x="610" y="-20" on="1"/>
        <pt x="553" y="-20" on="0"/>
        <pt x="449" y="0" on="0"/>
        <pt x="401" y="18" on="1"/>
        <pt x="344" y="-76" on="1"/>
        <pt x="182" y="14" on="1"/>
        <pt x="250" y="125" on="1"/>
        <pt x="181" y="199" on="0"/>
        <pt x="102" y="418" on="0"/>
        <pt x="102" y="561" on="1"/>
        <pt x="102" y="700" on="0"/>
        <pt x="173" y="916" on="0"/>
        <pt x="306" y="1063" on="0"/>
        <pt x="496" y="1139" on="0"/>
        <pt x="616" y="1139" on="1"/>
        <pt x="678" y="1139" on="0"/>
        <pt x="793" y="1113" on="0"/>
        <pt x="844" y="1090" on="1"/>
        <pt x="893" y="1169" on="1"/>
        <pt x="1053" y="1073" on="1"/>
        <pt x="991" y="975" on="1"/>
        <pt x="1054" y="903" on="0"/>
        <pt x="1124" y="694" on="0"/>
      </contour>
      <contour>
        <pt x="414" y="561" on="1"/>
        <pt x="414" y="475" on="0"/>
        <pt x="426" y="410" on="1"/>
        <pt x="709" y="868" on="1"/>
        <pt x="669" y="893" on="0"/>
        <pt x="612" y="893" on="1"/>
        <pt x="507" y="893" on="0"/>
        <pt x="414" y="728" on="0"/>
      </contour>
      <contour>
        <pt x="813" y="561" on="1"/>
        <pt x="813" y="625" on="0"/>
        <pt x="807" y="674" on="1"/>
        <pt x="539" y="240" on="1"/>
        <pt x="556" y="232" on="0"/>
        <pt x="593" y="225" on="0"/>
        <pt x="614" y="225" on="1"/>
        <pt x="719" y="225" on="0"/>
        <pt x="813" y="395" on="0"/>
      </contour>
    </TTGlyph>
    <TTGlyph name="otilde" xMin="102" yMin="-20" xMax="1124" yMax="1550">
      <component glyphName="o" x="0" y="0" flags="0x1204"/>
      <component glyphName="tilde" x="18" y="0" flags="0x1004"/>
    </TTGlyph>
    <TTGlyph name="overscore" xMin="-6" yMin="1556" xMax="1030" yMax="1757">
      <contour>
        <pt x="1030" y="1556" on="1"/>
        <pt x="-6" y="1556" on="1"/>
        <pt x="-6" y="1757" on="1"/>
        <pt x="1030" y="1757" on="1"/>
      </contour>
    </TTGlyph>
    <TTGlyph name="p" xMin="160" yMin="-492" xMax="1143" yMax="1139">
      <contour>
        <pt x="748" y="-20" on="1"/>
        <pt x="693" y="-20" on="0"/>
        <pt x="606" y="4" on="0"/>
        <pt x="538" y="44" on="0"/>
        <pt x="486" y="95" on="0"/>
        <pt x="465" y="123" on="1"/>
        <pt x="449" y="123" on="1"/>
        <pt x="453" y="88" on="0"/>
        <pt x="457" y="57" on="1"/>
        <pt x="460" y="31" on="0"/>
        <pt x="465" y="-24" on="0"/>
        <pt x="465" y="-39" on="1"/>
        <pt x="465" y="-492" on="1"/>
        <pt x="160" y="-492" on="1"/>
        <pt x="160" y="1118" on="1"/>
        <pt x="408" y="1118" on="1"/>
        <pt x="451" y="973" on="1"/>
        <pt x="465" y="973" on="1"/>
        <pt x="486" y="1007" on="0"/>
        <pt x="540" y="1067" on="0"/>
        <pt x="611" y="1112" on="0"/>
        <pt x="701" y="1139" on="0"/>
        <pt x="756" y="1139" on="1"/>
        <pt x="843" y="1139" on="0"/>
        <pt x="985" y="1065" on="0"/>
        <pt x="1087" y="919" on="0"/>
        <pt x="1143" y="703" on="0"/>
        <pt x="1143" y="561" on="1"/>
        <pt x="1143" y="418" on="0"/>
        <pt x="1085" y="201" on="0"/>
        <pt x="980" y="54" on="0"/>
        <pt x="835" y="-20" on="0"/>
      </contour>
      <contour>
        <pt x="653" y="895" on="1"/>
        <pt x="602" y="895" on="0"/>
        <pt x="531" y="858" on="0"/>
        <pt x="487" y="784" on="0"/>
        <pt x="467" y="671" on="0"/>
        <pt x="465" y="596" on="1"/>
        <pt x="465" y="563" on="1"/>
        <pt x="465" y="482" on="0"/>
        <pt x="484" y="356" on="0"/>
        <pt x="528" y="271" on="0"/>
        <pt x="601" y="227" on="0"/>
        <pt x="655" y="227" on="1"/>
        <pt x="746" y="227" on="0"/>
        <pt x="831" y="400" on="0"/>
        <pt x="831" y="565" on="1"/>
        <pt x="831" y="730" on="0"/>
        <pt x="746" y="895" on="0"/>
      </contour>
    </TTGlyph>
    <TTGlyph name="paragraph" xMin="113" yMin="-260" xMax="1167" yMax="1556">
      <contour>
        <pt x="1167" y="-260" on="1"/>
        <pt x="1006" y="-260" on="1"/>
        <pt x="1006" y="1356" on="1"/>
        <pt x="840" y="1356" on="1"/>
        <pt x="840" y="-260" on="1"/>
        <pt x="678" y="-260" on="1"/>
        <pt x="678" y="559" on="1"/>
        <pt x="617" y="541" on="0"/>
        <pt x="532" y="541" on="1"/>
        <pt x="437" y="541" on="0"/>
        <pt x="282" y="592" on="0"/>
        <pt x="173" y="710" on="0"/>
        <pt x="113" y="902" on="0"/>
        <pt x="113" y="1042" on="1"/>
        <pt x="113" y="1189" on="0"/>
        <pt x="178" y="1386" on="0"/>
        <pt x="297" y="1506" on="0"/>
        <pt x="463" y="1556" on="0"/>
        <pt x="563" y="1556" on="1"/>
        <pt x="1167" y="1556" on="1"/>
      </contour>
    </TTGlyph>
    <TTGlyph name="parenleft" xMin="82" yMin="-324" xMax="633" yMax="1462">
      <contour>
        <pt x="82" y="561" on="1"/>
        <pt x="82" y="686" on="0"/>
        <pt x="118" y="929" on="0"/>
        <pt x="192" y="1158" on="0"/>
        <pt x="305" y="1369" on="0"/>
        <pt x="383" y="1462" on="1"/>
        <pt x="633" y="1462" on="1"/>
        <pt x="492" y="1269" on="0"/>
        <pt x="348" y="807" on="0"/>
        <pt x="348" y="563" on="1"/>
        <pt x="348" y="444" on="0"/>
        <pt x="384" y="208" on="0"/>
        <pt x="456" y="-18" on="0"/>
        <pt x="562" y="-230" on="0"/>
        <pt x="631" y="-324" on="1"/>
        <pt x="383" y="-324" on="1"/>
        <pt x="305" y="-234" on="0"/>
        <pt x="192" y="-28" on="0"/>
        <pt x="118" y="197" on="0"/>
        <pt x="82" y="437" on="0"/>
      </contour>
    </TTGlyph>
    <TTGlyph name="parenright" xMin="61" yMin="-324" xMax="612" yMax="1462">
      <contour>
        <pt x="612" y="561" on="1"/>
        <pt x="612" y="437" on="0"/>
        <pt x="576" y="197" on="0"/>
        <pt x="502" y="-28" on="0"/>
        <pt x="389" y="-234" on="0"/>
        <pt x="311" y="-324" on="1"/>
        <pt x="63" y="-324" on="1"/>
        <pt x="132" y="-230" on="0"/>
        <pt x="238" y="-18" on="0"/>
        <pt x="310" y="208" on="0"/>
        <pt x="346" y="444" on="0"/>
        <pt x="346" y="563" on="1"/>
        <pt x="346" y="807" on="0"/>
        <pt x="202" y="1269" on="0"/>
        <pt x="61" y="1462" on="1"/>
        <pt x="311" y="1462" on="1"/>
        <pt x="389" y="1369" on="0"/>
        <pt x="502" y="1158" on="0"/>
        <pt x="576" y="929" on="0"/>
        <pt x="612" y="686" on="0"/>
      </contour>
    </TTGlyph>
    <TTGlyph name="percent" xMin="63" yMin="-18" xMax="1741" yMax="1483">
      <contour>
        <pt x="315" y="1024" on="1"/>
        <pt x="315" y="897" on="0"/>
        <pt x="360" y="772" on="0"/>
        <pt x="410" y="772" on="1"/>
        <pt x="459" y="772" on="0"/>
        <pt x="506" y="896" on="0"/>
        <pt x="506" y="1024" on="1"/>
        <pt x="506" y="1274" on="0"/>
        <pt x="410" y="1274" on="1"/>
        <pt x="360" y="1274" on="0"/>
        <pt x="315" y="1151" on="0"/>
      </contour>
      <contour>
        <pt x="758" y="1026" on="1"/>
        <pt x="758" y="918" on="0"/>
        <pt x="717" y="746" on="0"/>
        <pt x="631" y="628" on="0"/>
        <pt x="499" y="565" on="0"/>
        <pt x="408" y="565" on="1"/>
        <pt x="323" y="565" on="0"/>
        <pt x="194" y="628" on="0"/>
        <pt x="107" y="746" on="0"/>
        <pt x="63" y="918" on="0"/>
        <pt x="63" y="1026" on="1"/>
        <pt x="63" y="1134" on="0"/>
        <pt x="103" y="1304" on="0"/>
        <pt x="188" y="1421" on="0"/>
        <pt x="318" y="1483" on="0"/>
        <pt x="408" y="1483" on="1"/>
        <pt x="494" y="1483" on="0"/>
        <pt x="625" y="1421" on="0"/>
        <pt x="713" y="1304" on="0"/>
        <pt x="758" y="1134" on="0"/>
      </contour>
      <contour>
        <pt x="1425" y="1462" on="1"/>
        <pt x="614" y="0" on="1"/>
        <pt x="375" y="0" on="1"/>
        <pt x="1186" y="1462" on="1"/>
      </contour>
      <contour>
        <pt x="1298" y="440" on="1"/>
        <pt x="1298" y="313" on="0"/>
        <pt x="1343" y="188" on="0"/>
        <pt x="1393" y="188" on="1"/>
        <pt x="1442" y="188" on="0"/>
        <pt x="1489" y="312" on="0"/>
        <pt x="1489" y="440" on="1"/>
        <pt x="1489" y="690" on="0"/>
        <pt x="1393" y="690" on="1"/>
        <pt x="1343" y="690" on="0"/>
        <pt x="1298" y="567" on="0"/>
      </contour>
      <contour>
        <pt x="1741" y="442" on="1"/>
        <pt x="1741" y="334" on="0"/>
        <pt x="1700" y="163" on="0"/>
        <pt x="1614" y="45" on="0"/>
        <pt x="1482" y="-18" on="0"/>
        <pt x="1391" y="-18" on="1"/>
        <pt x="1306" y="-18" on="0"/>
        <pt x="1178" y="45" on="0"/>
        <pt x="1091" y="163" on="0"/>
        <pt x="1047" y="334" on="0"/>
        <pt x="1047" y="442" on="1"/>
        <pt x="1047" y="550" on="0"/>
        <pt x="1087" y="720" on="0"/>
        <pt x="1171" y="837" on="0"/>
        <pt x="1301" y="899" on="0"/>
        <pt x="1391" y="899" on="1"/>
        <pt x="1477" y="899" on="0"/>
        <pt x="1608" y="837" on="0"/>
        <pt x="1696" y="720" on="0"/>
        <pt x="1741" y="550" on="0"/>
      </contour>
    </TTGlyph>
    <TTGlyph name="period" xMin="117" yMin="-27" xMax="467" yMax="313">
      <contour>
        <pt x="117" y="143" on="1"/>
        <pt x="117" y="190" on="0"/>
        <pt x="144" y="255" on="0"/>
        <pt x="192" y="295" on="0"/>
        <pt x="256" y="313" on="0"/>
        <pt x="293" y="313" on="1"/>
        <pt x="328" y="313" on="0"/>
        <pt x="391" y="295" on="0"/>
        <pt x="439" y="255" on="0"/>
        <pt x="467" y="190" on="0"/>
        <pt x="467" y="143" on="1"/>
        <pt x="467" y="98" on="0"/>
        <pt x="439" y="34" on="0"/>
        <pt x="391" y="-8" on="0"/>
        <pt x="328" y="-27" on="0"/>
        <pt x="293" y="-27" on="1"/>
        <pt x="256" y="-27" on="0"/>
        <pt x="192" y="-8" on="0"/>
        <pt x="144" y="34" on="0"/>
        <pt x="117" y="98" on="0"/>
      </contour>
    </TTGlyph>
    <TTGlyph name="periodcentered" xMin="117" yMin="553" xMax="467" yMax="893">
      <contour>
        <pt x="117" y="723" on="1"/>
        <pt x="117" y="770" on="0"/>
        <pt x="144" y="835" on="0"/>
        <pt x="192" y="875" on="0"/>
        <pt x="256" y="893" on="0"/>
        <pt x="293" y="893" on="1"/>
        <pt x="328" y="893" on="0"/>
        <pt x="391" y="875" on="0"/>
        <pt x="439" y="835" on="0"/>
        <pt x="467" y="770" on="0"/>
        <pt x="467" y="723" on="1"/>
        <pt x="467" y="678" on="0"/>
        <pt x="439" y="613" on="0"/>
        <pt x="391" y="572" on="0"/>
        <pt x="328" y="553" on="0"/>
        <pt x="293" y="553" on="1"/>
        <pt x="256" y="553" on="0"/>
        <pt x="192" y="572" on="0"/>
        <pt x="144" y="613" on="0"/>
        <pt x="117" y="678" on="0"/>
      </contour>
    </TTGlyph>
    <TTGlyph name="plus" xMin="88" yMin="248" xMax="1040" yMax="1200">
      <contour>
        <pt x="455" y="612" on="1"/>
        <pt x="88" y="612" on="1"/>
        <pt x="88" y="831" on="1"/>
        <pt x="455" y="831" on="1"/>
        <pt x="455" y="1200" on="1"/>
        <pt x="674" y="1200" on="1"/>
        <pt x="674" y="831" on="1"/>
        <pt x="1040" y="831" on="1"/>
        <pt x="1040" y="612" on="1"/>
        <pt x="674" y="612" on="1"/>
        <pt x="674" y="248" on="1"/>
        <pt x="455" y="248" on="1"/>
      </contour>
    </TTGlyph>
    <TTGlyph name="plusminus" xMin="88" yMin="0" xMax="1040" yMax="1262">
      <contour>
        <pt x="455" y="674" on="1"/>
        <pt x="88" y="674" on="1"/>
        <pt x="88" y="893" on="1"/>
        <pt x="455" y="893" on="1"/>
        <pt x="455" y="1262" on="1"/>
        <pt x="674" y="1262" on="1"/>
        <pt x="674" y="893" on="1"/>
        <pt x="1040" y="893" on="1"/>
        <pt x="1040" y="674" on="1"/>
        <pt x="674" y="674" on="1"/>
        <pt x="674" y="309" on="1"/>
        <pt x="455" y="309" on="1"/>
      </contour>
      <contour>
        <pt x="88" y="0" on="1"/>
        <pt x="88" y="219" on="1"/>
        <pt x="1040" y="219" on="1"/>
        <pt x="1040" y="0" on="1"/>
      </contour>
    </TTGlyph>
    <TTGlyph name="q" xMin="102" yMin="-492" xMax="1085" yMax="1139">
      <contour>
        <pt x="602" y="219" on="1"/>
        <pt x="657" y="219" on="0"/>
        <pt x="732" y="256" on="0"/>
        <pt x="778" y="330" on="0"/>
        <pt x="800" y="443" on="0"/>
        <pt x="801" y="518" on="1"/>
        <pt x="801" y="555" on="1"/>
        <pt x="801" y="636" on="0"/>
        <pt x="782" y="762" on="0"/>
        <pt x="735" y="847" on="0"/>
        <pt x="658" y="891" on="0"/>
        <pt x="600" y="891" on="1"/>
        <pt x="504" y="891" on="0"/>
        <pt x="414" y="718" on="0"/>
        <pt x="414" y="553" on="1"/>
        <pt x="414" y="385" on="0"/>
        <pt x="505" y="219" on="0"/>
      </contour>
      <contour>
        <pt x="489" y="-20" on="1"/>
        <pt x="402" y="-20" on="0"/>
        <pt x="260" y="54" on="0"/>
        <pt x="158" y="199" on="0"/>
        <pt x="102" y="415" on="0"/>
        <pt x="102" y="557" on="1"/>
        <pt x="102" y="700" on="0"/>
        <pt x="159" y="917" on="0"/>
        <pt x="264" y="1064" on="0"/>
        <pt x="410" y="1139" on="0"/>
        <pt x="498" y="1139" on="1"/>
        <pt x="554" y="1139" on="0"/>
        <pt x="644" y="1114" on="0"/>
        <pt x="717" y="1069" on="0"/>
        <pt x="773" y="1010" on="0"/>
        <pt x="795" y="975" on="1"/>
        <pt x="803" y="975" on="1"/>
        <pt x="827" y="1118" on="1"/>
        <pt x="1085" y="1118" on="1"/>
        <pt x="1085" y="-492" on="1"/>
        <pt x="780" y="-492" on="1"/>
        <pt x="780" y="-23" on="1"/>
        <pt x="780" y="-4" on="0"/>
        <pt x="785" y="53" on="0"/>
        <pt x="787" y="80" on="1"/>
        <pt x="790" y="112" on="0"/>
        <pt x="793" y="145" on="1"/>
        <pt x="780" y="145" on="1"/>
        <pt x="760" y="111" on="0"/>
        <pt x="706" y="50" on="0"/>
        <pt x="635" y="6" on="0"/>
        <pt x="545" y="-20" on="0"/>
      </contour>
    </TTGlyph>
    <TTGlyph name="question" xMin="25" yMin="-27" xMax="885" yMax="1483">
      <contour>
        <pt x="264" y="485" on="1"/>
        <pt x="264" y="559" on="1"/>
        <pt x="264" y="610" on="0"/>
        <pt x="285" y="693" on="0"/>
        <pt x="328" y="768" on="0"/>
        <pt x="396" y="839" on="0"/>
        <pt x="444" y="877" on="1"/>
        <pt x="486" y="910" on="0"/>
        <pt x="544" y="962" on="0"/>
        <pt x="580" y="1013" on="0"/>
        <pt x="596" y="1069" on="0"/>
        <pt x="596" y="1106" on="1"/>
        <pt x="596" y="1163" on="0"/>
        <pt x="519" y="1237" on="0"/>
        <pt x="440" y="1237" on="1"/>
        <pt x="371" y="1237" on="0"/>
        <pt x="212" y="1179" on="0"/>
        <pt x="127" y="1137" on="1"/>
        <pt x="25" y="1358" on="1"/>
        <pt x="68" y="1383" on="0"/>
        <pt x="169" y="1428" on="0"/>
        <pt x="278" y="1463" on="0"/>
        <pt x="390" y="1483" on="0"/>
        <pt x="444" y="1483" on="1"/>
        <pt x="546" y="1483" on="0"/>
        <pt x="710" y="1434" on="0"/>
        <pt x="824" y="1340" on="0"/>
        <pt x="885" y="1206" on="0"/>
        <pt x="885" y="1120" on="1"/>
        <pt x="885" y="1057" on="0"/>
        <pt x="857" y="958" on="0"/>
        <pt x="802" y="873" on="0"/>
        <pt x="719" y="794" on="0"/>
        <pt x="664" y="750" on="1"/>
        <pt x="622" y="717" on="0"/>
        <pt x="569" y="668" on="0"/>
        <pt x="539" y="624" on="0"/>
        <pt x="528" y="577" on="0"/>
        <pt x="528" y="545" on="1"/>
        <pt x="528" y="485" on="1"/>
      </contour>
      <contour>
        <pt x="231" y="143" on="1"/>
        <pt x="231" y="190" on="0"/>
        <pt x="258" y="255" on="0"/>
        <pt x="306" y="295" on="0"/>
        <pt x="371" y="313" on="0"/>
        <pt x="408" y="313" on="1"/>
        <pt x="443" y="313" on="0"/>
        <pt x="506" y="295" on="0"/>
        <pt x="554" y="255" on="0"/>
        <pt x="582" y="190" on="0"/>
        <pt x="582" y="143" on="1"/>
        <pt x="582" y="98" on="0"/>
        <pt x="554" y="34" on="0"/>
        <pt x="506" y="-8" on="0"/>
        <pt x="443" y="-27" on="0"/>
        <pt x="408" y="-27" on="1"/>
        <pt x="371" y="-27" on="0"/>
        <pt x="306" y="-8" on="0"/>
        <pt x="258" y="34" on="0"/>
        <pt x="231" y="98" on="0"/>
      </contour>
    </TTGlyph>
    <TTGlyph name="questiondown" xMin="66" yMin="-391" xMax="926" yMax="1118">
      <contour>
        <pt x="686" y="606" on="1"/>
        <pt x="686" y="532" on="1"/>
        <pt x="686" y="481" on="0"/>
        <pt x="665" y="398" on="0"/>
        <pt x="622" y="323" on="0"/>
        <pt x="554" y="253" on="0"/>
        <pt x="506" y="215" on="1"/>
        <pt x="464" y="182" on="0"/>
        <pt x="406" y="130" on="0"/>
        <pt x="370" y="79" on="0"/>
        <pt x="354" y="23" on="0"/>
        <pt x="354" y="-14" on="1"/>
        <pt x="354" y="-71" on="0"/>
        <pt x="432" y="-145" on="0"/>
        <pt x="510" y="-145" on="1"/>
        <pt x="579" y="-145" on="0"/>
        <pt x="739" y="-86" on="0"/>
        <pt x="823" y="-45" on="1"/>
        <pt x="926" y="-266" on="1"/>
        <pt x="883" y="-292" on="0"/>
        <pt x="781" y="-337" on="0"/>
        <pt x="672" y="-371" on="0"/>
        <pt x="560" y="-391" on="0"/>
        <pt x="506" y="-391" on="1"/>
        <pt x="404" y="-391" on="0"/>
        <pt x="241" y="-342" on="0"/>
        <pt x="127" y="-249" on="0"/>
        <pt x="66" y="-114" on="0"/>
        <pt x="66" y="-29" on="1"/>
        <pt x="66" y="34" on="0"/>
        <pt x="93" y="133" on="0"/>
        <pt x="149" y="218" on="0"/>
        <pt x="232" y="298" on="0"/>
        <pt x="287" y="342" on="1"/>
        <pt x="328" y="375" on="0"/>
        <pt x="381" y="424" on="0"/>
        <pt x="411" y="468" on="0"/>
        <pt x="422" y="516" on="0"/>
        <pt x="422" y="547" on="1"/>
        <pt x="422" y="606" on="1"/>
      </contour>
      <contour>
        <pt x="719" y="948" on="1"/>
        <pt x="719" y="901" on="0"/>
        <pt x="692" y="836" on="0"/>
        <pt x="644" y="796" on="0"/>
        <pt x="580" y="778" on="0"/>
        <pt x="543" y="778" on="1"/>
        <pt x="508" y="778" on="0"/>
        <pt x="445" y="796" on="0"/>
        <pt x="397" y="836" on="0"/>
        <pt x="369" y="901" on="0"/>
        <pt x="369" y="948" on="1"/>
        <pt x="369" y="993" on="0"/>
        <pt x="397" y="1058" on="0"/>
        <pt x="445" y="1099" on="0"/>
        <pt x="508" y="1118" on="0"/>
        <pt x="543" y="1118" on="1"/>
        <pt x="580" y="1118" on="0"/>
        <pt x="644" y="1099" on="0"/>
        <pt x="692" y="1058" on="0"/>
        <pt x="719" y="993" on="0"/>
      </contour>
    </TTGlyph>
    <TTGlyph name="quotedbl" xMin="133" yMin="934" xMax="834" yMax="1462">
      <contour>
        <pt x="412" y="1462" on="1"/>
        <pt x="371" y="934" on="1"/>
        <pt x="174" y="934" on="1"/>
        <pt x="133" y="1462" on="1"/>
      </contour>
      <contour>
        <pt x="834" y="1462" on="1"/>
        <pt x="793" y="934" on="1"/>
        <pt x="596" y="934" on="1"/>
        <pt x="555" y="1462" on="1"/>
      </contour>
    </TTGlyph>
    <TTGlyph name="quotedblbase" xMin="63" yMin="-264" xMax="926" yMax="238">
      <contour>
        <pt x="459" y="215" on="1"/>
        <pt x="445" y="161" on="0"/>
        <pt x="406" y="39" on="0"/>
        <pt x="359" y="-85" on="0"/>
        <pt x="308" y="-208" on="0"/>
        <pt x="283" y="-264" on="1"/>
        <pt x="63" y="-264" on="1"/>
        <pt x="78" y="-203" on="0"/>
        <pt x="107" y="-71" on="0"/>
        <pt x="134" y="60" on="0"/>
        <pt x="156" y="185" on="0"/>
        <pt x="164" y="238" on="1"/>
        <pt x="444" y="238" on="1"/>
      </contour>
      <contour>
        <pt x="926" y="215" on="1"/>
        <pt x="912" y="161" on="0"/>
        <pt x="873" y="39" on="0"/>
        <pt x="826" y="-85" on="0"/>
        <pt x="775" y="-208" on="0"/>
        <pt x="750" y="-264" on="1"/>
        <pt x="530" y="-264" on="1"/>
        <pt x="545" y="-203" on="0"/>
        <pt x="574" y="-71" on="0"/>
        <pt x="601" y="60" on="0"/>
        <pt x="623" y="185" on="0"/>
        <pt x="631" y="238" on="1"/>
        <pt x="911" y="238" on="1"/>
      </contour>
    </TTGlyph>
    <TTGlyph name="quotedblleft" xMin="23" yMin="961" xMax="885" yMax="1462">
      <contour>
        <pt x="489" y="983" on="1"/>
        <pt x="503" y="1037" on="0"/>
        <pt x="543" y="1159" on="0"/>
        <pt x="589" y="1283" on="0"/>
        <pt x="641" y="1406" on="0"/>
        <pt x="666" y="1462" on="1"/>
        <pt x="885" y="1462" on="1"/>
        <pt x="870" y="1401" on="0"/>
        <pt x="841" y="1269" on="0"/>
        <pt x="814" y="1138" on="0"/>
        <pt x="792" y="1014" on="0"/>
        <pt x="784" y="961" on="1"/>
        <pt x="504" y="961" on="1"/>
      </contour>
      <contour>
        <pt x="23" y="983" on="1"/>
        <pt x="37" y="1037" on="0"/>
        <pt x="76" y="1159" on="0"/>
        <pt x="122" y="1283" on="0"/>
        <pt x="174" y="1406" on="0"/>
        <pt x="199" y="1462" on="1"/>
        <pt x="418" y="1462" on="1"/>
        <pt x="403" y="1401" on="0"/>
        <pt x="374" y="1269" on="0"/>
        <pt x="347" y="1138" on="0"/>
        <pt x="325" y="1014" on="0"/>
        <pt x="317" y="961" on="1"/>
        <pt x="37" y="961" on="1"/>
      </contour>
    </TTGlyph>
    <TTGlyph name="quotedblright" xMin="23" yMin="961" xMax="885" yMax="1462">
      <contour>
        <pt x="418" y="1440" on="1"/>
        <pt x="404" y="1385" on="0"/>
        <pt x="365" y="1264" on="0"/>
        <pt x="318" y="1139" on="0"/>
        <pt x="267" y="1017" on="0"/>
        <pt x="242" y="961" on="1"/>
        <pt x="23" y="961" on="1"/>
        <pt x="37" y="1021" on="0"/>
        <pt x="66" y="1153" on="0"/>
        <pt x="93" y="1285" on="0"/>
        <pt x="115" y="1409" on="0"/>
        <pt x="123" y="1462" on="1"/>
        <pt x="403" y="1462" on="1"/>
      </contour>
      <contour>
        <pt x="885" y="1440" on="1"/>
        <pt x="871" y="1385" on="0"/>
        <pt x="832" y="1264" on="0"/>
        <pt x="785" y="1139" on="0"/>
        <pt x="734" y="1017" on="0"/>
        <pt x="709" y="961" on="1"/>
        <pt x="489" y="961" on="1"/>
        <pt x="504" y="1021" on="0"/>
        <pt x="533" y="1153" on="0"/>
        <pt x="560" y="1285" on="0"/>
        <pt x="582" y="1409" on="0"/>
        <pt x="590" y="1462" on="1"/>
        <pt x="870" y="1462" on="1"/>
      </contour>
    </TTGlyph>
    <TTGlyph name="quoteleft" xMin="23" yMin="961" xMax="418" yMax="1462">
      <contour>
        <pt x="37" y="961" on="1"/>
        <pt x="23" y="983" on="1"/>
        <pt x="37" y="1037" on="0"/>
        <pt x="76" y="1159" on="0"/>
        <pt x="122" y="1283" on="0"/>
        <pt x="174" y="1406" on="0"/>
        <pt x="199" y="1462" on="1"/>
        <pt x="418" y="1462" on="1"/>
        <pt x="403" y="1401" on="0"/>
        <pt x="374" y="1269" on="0"/>
        <pt x="347" y="1138" on="0"/>
        <pt x="325" y="1014" on="0"/>
        <pt x="317" y="961" on="1"/>
      </contour>
    </TTGlyph>
    <TTGlyph name="quoteright" xMin="23" yMin="961" xMax="418" yMax="1462">
      <contour>
        <pt x="403" y="1462" on="1"/>
        <pt x="418" y="1440" on="1"/>
        <pt x="404" y="1385" on="0"/>
        <pt x="365" y="1264" on="0"/>
        <pt x="318" y="1139" on="0"/>
        <pt x="267" y="1017" on="0"/>
        <pt x="242" y="961" on="1"/>
        <pt x="23" y="961" on="1"/>
        <pt x="37" y="1021" on="0"/>
        <pt x="66" y="1153" on="0"/>
        <pt x="93" y="1285" on="0"/>
        <pt x="115" y="1409" on="0"/>
        <pt x="123" y="1462" on="1"/>
      </contour>
    </TTGlyph>
    <TTGlyph name="quotesinglbase" xMin="63" yMin="-264" xMax="459" yMax="238">
      <contour>
        <pt x="459" y="215" on="1"/>
        <pt x="445" y="161" on="0"/>
        <pt x="406" y="39" on="0"/>
        <pt x="359" y="-85" on="0"/>
        <pt x="308" y="-208" on="0"/>
        <pt x="283" y="-264" on="1"/>
        <pt x="63" y="-264" on="1"/>
        <pt x="78" y="-203" on="0"/>
        <pt x="107" y="-71" on="0"/>
        <pt x="134" y="60" on="0"/>
        <pt x="156" y="185" on="0"/>
        <pt x="164" y="238" on="1"/>
        <pt x="444" y="238" on="1"/>
      </contour>
    </TTGlyph>
    <TTGlyph name="quotesingle" xMin="133" yMin="934" xMax="412" yMax="1462">
      <contour>
        <pt x="412" y="1462" on="1"/>
        <pt x="371" y="934" on="1"/>
        <pt x="174" y="934" on="1"/>
        <pt x="133" y="1462" on="1"/>
      </contour>
    </TTGlyph>
    <TTGlyph name="r" xMin="160" yMin="0" xMax="840" yMax="1139">
      <contour>
        <pt x="743" y="1139" on="1"/>
        <pt x="755" y="1139" on="0"/>
        <pt x="784" y="1138" on="0"/>
        <pt x="811" y="1135" on="0"/>
        <pt x="834" y="1132" on="0"/>
        <pt x="840" y="1130" on="1"/>
        <pt x="840" y="844" on="1"/>
        <pt x="832" y="846" on="0"/>
        <pt x="804" y="850" on="0"/>
        <pt x="773" y="853" on="0"/>
        <pt x="743" y="854" on="0"/>
        <pt x="733" y="854" on="1"/>
        <pt x="674" y="854" on="0"/>
        <pt x="575" y="824" on="0"/>
        <pt x="504" y="757" on="0"/>
        <pt x="465" y="648" on="0"/>
        <pt x="465" y="569" on="1"/>
        <pt x="465" y="0" on="1"/>
        <pt x="160" y="0" on="1"/>
        <pt x="160" y="1118" on="1"/>
        <pt x="391" y="1118" on="1"/>
        <pt x="436" y="950" on="1"/>
        <pt x="451" y="950" on="1"/>
        <pt x="475" y="993" on="0"/>
        <pt x="531" y="1063" on="0"/>
        <pt x="600" y="1112" on="0"/>
        <pt x="687" y="1139" on="0"/>
      </contour>
    </TTGlyph>
    <TTGlyph name="registered" xMin="100" yMin="-20" xMax="1604" yMax="1483">
      <contour>
        <pt x="1157" y="905" on="1"/>
        <pt x="1157" y="811" on="0"/>
        <pt x="1080" y="701" on="0"/>
        <pt x="1014" y="672" on="1"/>
        <pt x="1251" y="272" on="1"/>
        <pt x="997" y="272" on="1"/>
        <pt x="819" y="610" on="1"/>
        <pt x="772" y="610" on="1"/>
        <pt x="772" y="272" on="1"/>
        <pt x="543" y="272" on="1"/>
        <pt x="543" y="1188" on="1"/>
        <pt x="807" y="1188" on="1"/>
        <pt x="989" y="1188" on="0"/>
        <pt x="1157" y="1048" on="0"/>
      </contour>
      <contour>
        <pt x="772" y="778" on="1"/>
        <pt x="803" y="778" on="1"/>
        <pt x="869" y="778" on="0"/>
        <pt x="926" y="835" on="0"/>
        <pt x="926" y="901" on="1"/>
        <pt x="926" y="936" on="0"/>
        <pt x="911" y="982" on="0"/>
        <pt x="880" y="1009" on="0"/>
        <pt x="833" y="1020" on="0"/>
        <pt x="801" y="1020" on="1"/>
        <pt x="772" y="1020" on="1"/>
      </contour>
      <contour>
        <pt x="100" y="731" on="1"/>
        <pt x="100" y="835" on="0"/>
        <pt x="154" y="1027" on="0"/>
        <pt x="251" y="1194" on="0"/>
        <pt x="389" y="1332" on="0"/>
        <pt x="556" y="1429" on="0"/>
        <pt x="748" y="1483" on="0"/>
        <pt x="852" y="1483" on="1"/>
        <pt x="956" y="1483" on="0"/>
        <pt x="1148" y="1429" on="0"/>
        <pt x="1315" y="1332" on="0"/>
        <pt x="1453" y="1194" on="0"/>
        <pt x="1550" y="1027" on="0"/>
        <pt x="1604" y="835" on="0"/>
        <pt x="1604" y="731" on="1"/>
        <pt x="1604" y="627" on="0"/>
        <pt x="1550" y="435" on="0"/>
        <pt x="1453" y="268" on="0"/>
        <pt x="1315" y="131" on="0"/>
        <pt x="1148" y="33" on="0"/>
        <pt x="956" y="-20" on="0"/>
        <pt x="852" y="-20" on="1"/>
        <pt x="748" y="-20" on="0"/>
        <pt x="556" y="33" on="0"/>
        <pt x="389" y="131" on="0"/>
        <pt x="251" y="268" on="0"/>
        <pt x="154" y="435" on="0"/>
        <pt x="100" y="627" on="0"/>
      </contour>
      <contour>
        <pt x="242" y="731" on="1"/>
        <pt x="242" y="604" on="0"/>
        <pt x="338" y="382" on="0"/>
        <pt x="503" y="217" on="0"/>
        <pt x="725" y="121" on="0"/>
        <pt x="852" y="121" on="1"/>
        <pt x="979" y="121" on="0"/>
        <pt x="1201" y="217" on="0"/>
        <pt x="1366" y="382" on="0"/>
        <pt x="1462" y="604" on="0"/>
        <pt x="1462" y="731" on="1"/>
        <pt x="1462" y="858" on="0"/>
        <pt x="1366" y="1080" on="0"/>
        <pt x="1201" y="1245" on="0"/>
        <pt x="979" y="1341" on="0"/>
        <pt x="852" y="1341" on="1"/>
        <pt x="725" y="1341" on="0"/>
        <pt x="503" y="1245" on="0"/>
        <pt x="338" y="1080" on="0"/>
        <pt x="242" y="858" on="0"/>
      </contour>
    </TTGlyph>
    <TTGlyph name="ring" xMin="340" yMin="1239" xMax="842" yMax="1714">
      <contour>
        <pt x="842" y="1479" on="1"/>
        <pt x="842" y="1423" on="0"/>
        <pt x="803" y="1334" on="0"/>
        <pt x="734" y="1272" on="0"/>
        <pt x="642" y="1239" on="0"/>
        <pt x="588" y="1239" on="1"/>
        <pt x="533" y="1239" on="0"/>
        <pt x="441" y="1272" on="0"/>
        <pt x="376" y="1333" on="0"/>
        <pt x="340" y="1422" on="0"/>
        <pt x="340" y="1477" on="1"/>
        <pt x="340" y="1532" on="0"/>
        <pt x="376" y="1620" on="0"/>
        <pt x="441" y="1681" on="0"/>
        <pt x="533" y="1714" on="0"/>
        <pt x="588" y="1714" on="1"/>
        <pt x="641" y="1714" on="0"/>
        <pt x="733" y="1681" on="0"/>
        <pt x="802" y="1620" on="0"/>
        <pt x="842" y="1533" on="0"/>
      </contour>
      <contour>
        <pt x="684" y="1477" on="1"/>
        <pt x="684" y="1522" on="0"/>
        <pt x="630" y="1573" on="0"/>
        <pt x="588" y="1573" on="1"/>
        <pt x="546" y="1573" on="0"/>
        <pt x="492" y="1522" on="0"/>
        <pt x="492" y="1477" on="1"/>
        <pt x="492" y="1432" on="0"/>
        <pt x="540" y="1380" on="0"/>
        <pt x="588" y="1380" on="1"/>
        <pt x="630" y="1380" on="0"/>
        <pt x="684" y="1432" on="0"/>
      </contour>
    </TTGlyph>
    <TTGlyph name="s" xMin="98" yMin="-20" xMax="905" yMax="1139">
      <contour>
        <pt x="905" y="332" on="1"/>
        <pt x="905" y="244" on="0"/>
        <pt x="841" y="112" on="0"/>
        <pt x="723" y="24" on="0"/>
        <pt x="555" y="-20" on="0"/>
        <pt x="451" y="-20" on="1"/>
        <pt x="396" y="-20" on="0"/>
        <pt x="302" y="-13" on="0"/>
        <pt x="218" y="3" on="0"/>
        <pt x="140" y="27" on="0"/>
        <pt x="100" y="45" on="1"/>
        <pt x="100" y="297" on="1"/>
        <pt x="142" y="276" on="0"/>
        <pt x="235" y="242" on="0"/>
        <pt x="327" y="217" on="0"/>
        <pt x="414" y="203" on="0"/>
        <pt x="451" y="203" on="1"/>
        <pt x="492" y="203" on="0"/>
        <pt x="550" y="218" on="0"/>
        <pt x="587" y="245" on="0"/>
        <pt x="604" y="282" on="0"/>
        <pt x="604" y="303" on="1"/>
        <pt x="604" y="324" on="0"/>
        <pt x="591" y="357" on="0"/>
        <pt x="545" y="394" on="0"/>
        <pt x="456" y="441" on="0"/>
        <pt x="381" y="475" on="1"/>
        <pt x="308" y="508" on="0"/>
        <pt x="201" y="573" on="0"/>
        <pt x="132" y="653" on="0"/>
        <pt x="98" y="756" on="0"/>
        <pt x="98" y="827" on="1"/>
        <pt x="98" y="905" on="0"/>
        <pt x="158" y="1022" on="0"/>
        <pt x="268" y="1100" on="0"/>
        <pt x="423" y="1139" on="0"/>
        <pt x="518" y="1139" on="1"/>
        <pt x="618" y="1139" on="0"/>
        <pt x="798" y="1093" on="0"/>
        <pt x="893" y="1047" on="1"/>
        <pt x="801" y="831" on="1"/>
        <pt x="725" y="867" on="0"/>
        <pt x="587" y="913" on="0"/>
        <pt x="518" y="913" on="1"/>
        <pt x="456" y="913" on="0"/>
        <pt x="401" y="869" on="0"/>
        <pt x="401" y="831" on="1"/>
        <pt x="401" y="811" on="0"/>
        <pt x="415" y="780" on="0"/>
        <pt x="457" y="747" on="0"/>
        <pt x="533" y="708" on="0"/>
        <pt x="594" y="680" on="1"/>
        <pt x="665" y="649" on="0"/>
        <pt x="779" y="588" on="0"/>
        <pt x="861" y="510" on="0"/>
        <pt x="905" y="406" on="0"/>
      </contour>
    </TTGlyph>
    <TTGlyph name="section" xMin="106" yMin="-20" xMax="895" yMax="1577">
      <contour>
        <pt x="121" y="805" on="1"/>
        <pt x="121" y="849" on="0"/>
        <pt x="142" y="924" on="0"/>
        <pt x="179" y="987" on="0"/>
        <pt x="227" y="1037" on="0"/>
        <pt x="254" y="1055" on="1"/>
        <pt x="191" y="1095" on="0"/>
        <pt x="121" y="1213" on="0"/>
        <pt x="121" y="1288" on="1"/>
        <pt x="121" y="1353" on="0"/>
        <pt x="179" y="1460" on="0"/>
        <pt x="286" y="1536" on="0"/>
        <pt x="435" y="1577" on="0"/>
        <pt x="526" y="1577" on="1"/>
        <pt x="628" y="1577" on="0"/>
        <pt x="804" y="1530" on="0"/>
        <pt x="889" y="1493" on="1"/>
        <pt x="807" y="1303" on="1"/>
        <pt x="739" y="1335" on="0"/>
        <pt x="598" y="1386" on="0"/>
        <pt x="520" y="1386" on="1"/>
        <pt x="439" y="1386" on="0"/>
        <pt x="365" y="1340" on="0"/>
        <pt x="365" y="1292" on="1"/>
        <pt x="365" y="1267" on="0"/>
        <pt x="389" y="1225" on="0"/>
        <pt x="441" y="1186" on="0"/>
        <pt x="522" y="1147" on="0"/>
        <pt x="578" y="1124" on="1"/>
        <pt x="649" y="1096" on="0"/>
        <pt x="766" y="1028" on="0"/>
        <pt x="849" y="945" on="0"/>
        <pt x="895" y="844" on="0"/>
        <pt x="895" y="782" on="1"/>
        <pt x="895" y="682" on="0"/>
        <pt x="826" y="559" on="0"/>
        <pt x="770" y="522" on="1"/>
        <pt x="832" y="482" on="0"/>
        <pt x="895" y="377" on="0"/>
        <pt x="895" y="303" on="1"/>
        <pt x="895" y="229" on="0"/>
        <pt x="833" y="110" on="0"/>
        <pt x="719" y="26" on="0"/>
        <pt x="556" y="-20" on="0"/>
        <pt x="455" y="-20" on="1"/>
        <pt x="345" y="-20" on="0"/>
        <pt x="176" y="21" on="0"/>
        <pt x="106" y="59" on="1"/>
        <pt x="106" y="266" on="1"/>
        <pt x="145" y="246" on="0"/>
        <pt x="235" y="211" on="0"/>
        <pt x="327" y="184" on="0"/>
        <pt x="416" y="168" on="0"/>
        <pt x="455" y="168" on="1"/>
        <pt x="511" y="168" on="0"/>
        <pt x="585" y="186" on="0"/>
        <pt x="630" y="218" on="0"/>
        <pt x="649" y="260" on="0"/>
        <pt x="649" y="285" on="1"/>
        <pt x="649" y="310" on="0"/>
        <pt x="634" y="349" on="0"/>
        <pt x="589" y="387" on="0"/>
        <pt x="508" y="429" on="0"/>
        <pt x="442" y="457" on="1"/>
        <pt x="366" y="489" on="0"/>
        <pt x="246" y="553" on="0"/>
        <pt x="164" y="634" on="0"/>
        <pt x="121" y="736" on="0"/>
      </contour>
      <contour>
        <pt x="344" y="827" on="1"/>
        <pt x="344" y="764" on="0"/>
        <pt x="457" y="667" on="0"/>
        <pt x="575" y="616" on="1"/>
        <pt x="590" y="610" on="1"/>
        <pt x="605" y="621" on="0"/>
        <pt x="633" y="650" on="0"/>
        <pt x="655" y="686" on="0"/>
        <pt x="668" y="730" on="0"/>
        <pt x="668" y="756" on="1"/>
        <pt x="668" y="788" on="0"/>
        <pt x="647" y="842" on="0"/>
        <pt x="595" y="893" on="0"/>
        <pt x="504" y="942" on="0"/>
        <pt x="434" y="967" on="1"/>
        <pt x="416" y="960" on="0"/>
        <pt x="384" y="933" on="0"/>
        <pt x="359" y="897" on="0"/>
        <pt x="344" y="853" on="0"/>
      </contour>
    </TTGlyph>
    <TTGlyph name="semicolon" xMin="63" yMin="-264" xMax="467" yMax="1139">
      <contour>
        <pt x="444" y="238" on="1"/>
        <pt x="459" y="215" on="1"/>
        <pt x="445" y="161" on="0"/>
        <pt x="406" y="39" on="0"/>
        <pt x="359" y="-85" on="0"/>
        <pt x="308" y="-208" on="0"/>
        <pt x="283" y="-264" on="1"/>
        <pt x="63" y="-264" on="1"/>
        <pt x="78" y="-203" on="0"/>
        <pt x="107" y="-71" on="0"/>
        <pt x="134" y="60" on="0"/>
        <pt x="156" y="185" on="0"/>
        <pt x="164" y="238" on="1"/>
      </contour>
      <contour>
        <pt x="117" y="969" on="1"/>
        <pt x="117" y="1016" on="0"/>
        <pt x="144" y="1081" on="0"/>
        <pt x="192" y="1121" on="0"/>
        <pt x="256" y="1139" on="0"/>
        <pt x="293" y="1139" on="1"/>
        <pt x="328" y="1139" on="0"/>
        <pt x="391" y="1121" on="0"/>
        <pt x="439" y="1081" on="0"/>
        <pt x="467" y="1016" on="0"/>
        <pt x="467" y="969" on="1"/>
        <pt x="467" y="924" on="0"/>
        <pt x="439" y="859" on="0"/>
        <pt x="391" y="818" on="0"/>
        <pt x="328" y="799" on="0"/>
        <pt x="293" y="799" on="1"/>
        <pt x="256" y="799" on="0"/>
        <pt x="192" y="818" on="0"/>
        <pt x="144" y="859" on="0"/>
        <pt x="117" y="924" on="0"/>
      </contour>
    </TTGlyph>
    <TTGlyph name="seven" xMin="55" yMin="0" xMax="1063" yMax="1460">
      <contour>
        <pt x="207" y="0" on="1"/>
        <pt x="727" y="1200" on="1"/>
        <pt x="55" y="1200" on="1"/>
        <pt x="55" y="1460" on="1"/>
        <pt x="1063" y="1460" on="1"/>
        <pt x="1063" y="1266" on="1"/>
        <pt x="530" y="0" on="1"/>
      </contour>
    </TTGlyph>
    <TTGlyph name="six" xMin="76" yMin="-20" xMax="1067" yMax="1479">
      <contour>
        <pt x="76" y="621" on="1"/>
        <pt x="76" y="726" on="0"/>
        <pt x="99" y="934" on="0"/>
        <pt x="158" y="1125" on="0"/>
        <pt x="259" y="1289" on="0"/>
        <pt x="414" y="1410" on="0"/>
        <pt x="631" y="1479" on="0"/>
        <pt x="776" y="1479" on="1"/>
        <pt x="797" y="1479" on="0"/>
        <pt x="847" y="1477" on="0"/>
        <pt x="898" y="1474" on="0"/>
        <pt x="946" y="1468" on="0"/>
        <pt x="965" y="1464" on="1"/>
        <pt x="965" y="1217" on="1"/>
        <pt x="927" y="1226" on="0"/>
        <pt x="842" y="1237" on="0"/>
        <pt x="799" y="1237" on="1"/>
        <pt x="664" y="1237" on="0"/>
        <pt x="490" y="1170" on="0"/>
        <pt x="388" y="1050" on="0"/>
        <pt x="345" y="882" on="0"/>
        <pt x="340" y="780" on="1"/>
        <pt x="352" y="780" on="1"/>
        <pt x="372" y="816" on="0"/>
        <pt x="429" y="879" on="0"/>
        <pt x="505" y="924" on="0"/>
        <pt x="600" y="950" on="0"/>
        <pt x="659" y="950" on="1"/>
        <pt x="754" y="950" on="0"/>
        <pt x="906" y="888" on="0"/>
        <pt x="1011" y="770" on="0"/>
        <pt x="1067" y="598" on="0"/>
        <pt x="1067" y="487" on="1"/>
        <pt x="1067" y="368" on="0"/>
        <pt x="1000" y="180" on="0"/>
        <pt x="876" y="49" on="0"/>
        <pt x="700" y="-20" on="0"/>
        <pt x="590" y="-20" on="1"/>
        <pt x="482" y="-20" on="0"/>
        <pt x="294" y="57" on="0"/>
        <pt x="155" y="215" on="0"/>
        <pt x="76" y="456" on="0"/>
      </contour>
      <contour>
        <pt x="584" y="227" on="1"/>
        <pt x="625" y="227" on="0"/>
        <pt x="692" y="258" on="0"/>
        <pt x="741" y="321" on="0"/>
        <pt x="768" y="417" on="0"/>
        <pt x="768" y="483" on="1"/>
        <pt x="768" y="590" on="0"/>
        <pt x="679" y="713" on="0"/>
        <pt x="588" y="713" on="1"/>
        <pt x="542" y="713" on="0"/>
        <pt x="466" y="677" on="0"/>
        <pt x="412" y="619" on="0"/>
        <pt x="383" y="547" on="0"/>
        <pt x="383" y="510" on="1"/>
        <pt x="383" y="459" on="0"/>
        <pt x="408" y="358" on="0"/>
        <pt x="459" y="277" on="0"/>
        <pt x="534" y="227" on="0"/>
      </contour>
    </TTGlyph>
    <TTGlyph name="slash" xMin="14" yMin="0" xMax="836" yMax="1462">
      <contour>
        <pt x="836" y="1462" on="1"/>
        <pt x="291" y="0" on="1"/>
        <pt x="14" y="0" on="1"/>
        <pt x="559" y="1462" on="1"/>
      </contour>
    </TTGlyph>
    <TTGlyph name="sterling" xMin="82" yMin="0" xMax="1090" yMax="1483">
      <contour>
        <pt x="680" y="1483" on="1"/>
        <pt x="790" y="1483" on="0"/>
        <pt x="969" y="1435" on="0"/>
        <pt x="1049" y="1401" on="1"/>
        <pt x="956" y="1171" on="1"/>
        <pt x="885" y="1200" on="0"/>
        <pt x="768" y="1235" on="0"/>
        <pt x="705" y="1235" on="1"/>
        <pt x="638" y="1235" on="0"/>
        <pt x="563" y="1158" on="0"/>
        <pt x="563" y="1063" on="1"/>
        <pt x="563" y="870" on="1"/>
        <pt x="897" y="870" on="1"/>
        <pt x="897" y="651" on="1"/>
        <pt x="563" y="651" on="1"/>
        <pt x="563" y="508" on="1"/>
        <pt x="563" y="453" on="0"/>
        <pt x="536" y="372" on="0"/>
        <pt x="492" y="314" on="0"/>
        <pt x="439" y="274" on="0"/>
        <pt x="412" y="260" on="1"/>
        <pt x="1090" y="260" on="1"/>
        <pt x="1090" y="0" on="1"/>
        <pt x="82" y="0" on="1"/>
        <pt x="82" y="248" on="1"/>
        <pt x="124" y="266" on="0"/>
        <pt x="191" y="308" on="0"/>
        <pt x="238" y="366" on="0"/>
        <pt x="262" y="448" on="0"/>
        <pt x="262" y="506" on="1"/>
        <pt x="262" y="651" on="1"/>
        <pt x="84" y="651" on="1"/>
        <pt x="84" y="870" on="1"/>
        <pt x="262" y="870" on="1"/>
        <pt x="262" y="1065" on="1"/>
        <pt x="262" y="1178" on="0"/>
        <pt x="325" y="1337" on="0"/>
        <pt x="436" y="1437" on="0"/>
        <pt x="589" y="1483" on="0"/>
      </contour>
    </TTGlyph>
    <TTGlyph name="t" xMin="47" yMin="-20" xMax="782" yMax="1356">
      <contour>
        <pt x="614" y="223" on="1"/>
        <pt x="659" y="223" on="0"/>
        <pt x="740" y="243" on="0"/>
        <pt x="782" y="258" on="1"/>
        <pt x="782" y="31" on="1"/>
        <pt x="739" y="9" on="0"/>
        <pt x="612" y="-20" on="0"/>
        <pt x="537" y="-20" on="1"/>
        <pt x="464" y="-20" on="0"/>
        <pt x="338" y="14" on="0"/>
        <pt x="246" y="99" on="0"/>
        <pt x="193" y="242" on="0"/>
        <pt x="193" y="350" on="1"/>
        <pt x="193" y="889" on="1"/>
        <pt x="47" y="889" on="1"/>
        <pt x="47" y="1018" on="1"/>
        <pt x="215" y="1120" on="1"/>
        <pt x="303" y="1356" on="1"/>
        <pt x="498" y="1356" on="1"/>
        <pt x="498" y="1118" on="1"/>
        <pt x="770" y="1118" on="1"/>
        <pt x="770" y="889" on="1"/>
        <pt x="498" y="889" on="1"/>
        <pt x="498" y="350" on="1"/>
        <pt x="498" y="285" on="0"/>
        <pt x="562" y="223" on="0"/>
      </contour>
    </TTGlyph>
    <TTGlyph name="thorn" xMin="160" yMin="-492" xMax="1143" yMax="1556">
      <contour>
        <pt x="465" y="973" on="1"/>
        <pt x="485" y="1008" on="0"/>
        <pt x="540" y="1068" on="0"/>
        <pt x="612" y="1113" on="0"/>
        <pt x="701" y="1139" on="0"/>
        <pt x="756" y="1139" on="1"/>
        <pt x="842" y="1139" on="0"/>
        <pt x="984" y="1065" on="0"/>
        <pt x="1086" y="919" on="0"/>
        <pt x="1143" y="703" on="0"/>
        <pt x="1143" y="561" on="1"/>
        <pt x="1143" y="418" on="0"/>
        <pt x="1087" y="201" on="0"/>
        <pt x="985" y="54" on="0"/>
        <pt x="843" y="-20" on="0"/>
        <pt x="756" y="-20" on="1"/>
        <pt x="701" y="-20" on="0"/>
        <pt x="611" y="1" on="0"/>
        <pt x="540" y="39" on="0"/>
        <pt x="486" y="89" on="0"/>
        <pt x="465" y="117" on="1"/>
        <pt x="451" y="117" on="1"/>
        <pt x="454" y="85" on="0"/>
        <pt x="458" y="55" on="1"/>
        <pt x="461" y="29" on="0"/>
        <pt x="465" y="-23" on="0"/>
        <pt x="465" y="-39" on="1"/>
        <pt x="465" y="-492" on="1"/>
        <pt x="160" y="-492" on="1"/>
        <pt x="160" y="1556" on="1"/>
        <pt x="465" y="1556" on="1"/>
        <pt x="465" y="1165" on="1"/>
        <pt x="465" y="1141" on="0"/>
        <pt x="461" y="1075" on="0"/>
        <pt x="458" y="1045" on="1"/>
        <pt x="454" y="1010" on="0"/>
        <pt x="451" y="973" on="1"/>
      </contour>
      <contour>
        <pt x="653" y="895" on="1"/>
        <pt x="602" y="895" on="0"/>
        <pt x="531" y="858" on="0"/>
        <pt x="487" y="784" on="0"/>
        <pt x="467" y="671" on="0"/>
        <pt x="465" y="596" on="1"/>
        <pt x="465" y="563" on="1"/>
        <pt x="465" y="482" on="0"/>
        <pt x="484" y="356" on="0"/>
        <pt x="528" y="271" on="0"/>
        <pt x="601" y="227" on="0"/>
        <pt x="655" y="227" on="1"/>
        <pt x="746" y="227" on="0"/>
        <pt x="831" y="400" on="0"/>
        <pt x="831" y="565" on="1"/>
        <pt x="831" y="730" on="0"/>
        <pt x="746" y="895" on="0"/>
      </contour>
    </TTGlyph>
    <TTGlyph name="three" xMin="57" yMin="-20" xMax="1049" yMax="1483">
      <contour>
        <pt x="1006" y="1135" on="1"/>
        <pt x="1006" y="1059" on="0"/>
        <pt x="957" y="938" on="0"/>
        <pt x="872" y="847" on="0"/>
        <pt x="757" y="786" on="0"/>
        <pt x="690" y="770" on="1"/>
        <pt x="690" y="764" on="1"/>
        <pt x="867" y="742" on="0"/>
        <pt x="1049" y="571" on="0"/>
        <pt x="1049" y="426" on="1"/>
        <pt x="1049" y="330" on="0"/>
        <pt x="980" y="167" on="0"/>
        <pt x="837" y="47" on="0"/>
        <pt x="620" y="-20" on="0"/>
        <pt x="473" y="-20" on="1"/>
        <pt x="355" y="-20" on="0"/>
        <pt x="147" y="19" on="0"/>
        <pt x="57" y="59" on="1"/>
        <pt x="57" y="322" on="1"/>
        <pt x="102" y="298" on="0"/>
        <pt x="202" y="262" on="0"/>
        <pt x="302" y="237" on="0"/>
        <pt x="399" y="225" on="0"/>
        <pt x="442" y="225" on="1"/>
        <pt x="528" y="225" on="0"/>
        <pt x="642" y="257" on="0"/>
        <pt x="710" y="315" on="0"/>
        <pt x="739" y="396" on="0"/>
        <pt x="739" y="444" on="1"/>
        <pt x="739" y="489" on="0"/>
        <pt x="702" y="562" on="0"/>
        <pt x="619" y="613" on="0"/>
        <pt x="485" y="641" on="0"/>
        <pt x="387" y="641" on="1"/>
        <pt x="283" y="641" on="1"/>
        <pt x="283" y="858" on="1"/>
        <pt x="385" y="858" on="1"/>
        <pt x="477" y="858" on="0"/>
        <pt x="599" y="891" on="0"/>
        <pt x="672" y="948" on="0"/>
        <pt x="702" y="1024" on="0"/>
        <pt x="702" y="1067" on="1"/>
        <pt x="702" y="1145" on="0"/>
        <pt x="605" y="1233" on="0"/>
        <pt x="500" y="1233" on="1"/>
        <pt x="452" y="1233" on="0"/>
        <pt x="369" y="1214" on="0"/>
        <pt x="298" y="1185" on="0"/>
        <pt x="239" y="1150" on="0"/>
        <pt x="215" y="1133" on="1"/>
        <pt x="59" y="1339" on="1"/>
        <pt x="101" y="1370" on="0"/>
        <pt x="200" y="1422" on="0"/>
        <pt x="316" y="1461" on="0"/>
        <pt x="450" y="1483" on="0"/>
        <pt x="526" y="1483" on="1"/>
        <pt x="634" y="1483" on="0"/>
        <pt x="811" y="1436" on="0"/>
        <pt x="937" y="1347" on="0"/>
        <pt x="1006" y="1218" on="0"/>
      </contour>
    </TTGlyph>
    <TTGlyph name="threequarters" xMin="90" yMin="0" xMax="1712" yMax="1481">
      <component glyphName="fraction" x="784" y="0" flags="0x1004"/>
      <component glyphName="foursuperior" x="954" y="-585" flags="0x1004"/>
      <component glyphName="threesuperior" x="31" y="0" flags="0x1004"/>
    </TTGlyph>
    <TTGlyph name="threesuperior" xMin="59" yMin="569" xMax="694" yMax="1481">
      <contour>
        <pt x="666" y="1249" on="1"/>
        <pt x="666" y="1180" on="0"/>
        <pt x="585" y="1080" on="0"/>
        <pt x="496" y="1051" on="1"/>
        <pt x="496" y="1038" on="1"/>
        <pt x="547" y="1028" on="0"/>
        <pt x="621" y="986" on="0"/>
        <pt x="670" y="931" on="0"/>
        <pt x="694" y="865" on="0"/>
        <pt x="694" y="829" on="1"/>
        <pt x="694" y="708" on="0"/>
        <pt x="518" y="569" on="0"/>
        <pt x="332" y="569" on="1"/>
        <pt x="256" y="569" on="0"/>
        <pt x="124" y="604" on="0"/>
        <pt x="59" y="639" on="1"/>
        <pt x="59" y="829" on="1"/>
        <pt x="125" y="789" on="0"/>
        <pt x="257" y="739" on="0"/>
        <pt x="330" y="739" on="1"/>
        <pt x="404" y="739" on="0"/>
        <pt x="473" y="793" on="0"/>
        <pt x="473" y="846" on="1"/>
        <pt x="473" y="867" on="0"/>
        <pt x="457" y="905" on="0"/>
        <pt x="419" y="934" on="0"/>
        <pt x="355" y="952" on="0"/>
        <pt x="307" y="952" on="1"/>
        <pt x="195" y="952" on="1"/>
        <pt x="195" y="1112" on="1"/>
        <pt x="287" y="1112" on="1"/>
        <pt x="339" y="1112" on="0"/>
        <pt x="403" y="1130" on="0"/>
        <pt x="439" y="1161" on="0"/>
        <pt x="451" y="1200" on="0"/>
        <pt x="451" y="1221" on="1"/>
        <pt x="451" y="1259" on="0"/>
        <pt x="401" y="1309" on="0"/>
        <pt x="350" y="1309" on="1"/>
        <pt x="303" y="1309" on="0"/>
        <pt x="219" y="1271" on="0"/>
        <pt x="162" y="1231" on="1"/>
        <pt x="61" y="1372" on="1"/>
        <pt x="123" y="1419" on="0"/>
        <pt x="274" y="1481" on="0"/>
        <pt x="377" y="1481" on="1"/>
        <pt x="439" y="1481" on="0"/>
        <pt x="545" y="1448" on="0"/>
        <pt x="622" y="1388" on="0"/>
        <pt x="666" y="1302" on="0"/>
      </contour>
    </TTGlyph>
    <TTGlyph name="tilde" xMin="197" yMin="1239" xMax="985" yMax="1550">
      <contour>
        <pt x="426" y="1346" on="1"/>
        <pt x="395" y="1346" on="0"/>
        <pt x="358" y="1293" on="0"/>
        <pt x="346" y="1239" on="1"/>
        <pt x="197" y="1239" on="1"/>
        <pt x="203" y="1319" on="0"/>
        <pt x="243" y="1435" on="0"/>
        <pt x="308" y="1511" on="0"/>
        <pt x="396" y="1548" on="0"/>
        <pt x="449" y="1548" on="1"/>
        <pt x="490" y="1548" on="0"/>
        <pt x="568" y="1516" on="0"/>
        <pt x="645" y="1477" on="0"/>
        <pt x="720" y="1444" on="0"/>
        <pt x="756" y="1444" on="1"/>
        <pt x="787" y="1444" on="0"/>
        <pt x="823" y="1496" on="0"/>
        <pt x="836" y="1550" on="1"/>
        <pt x="985" y="1550" on="1"/>
        <pt x="979" y="1471" on="0"/>
        <pt x="938" y="1355" on="0"/>
        <pt x="872" y="1278" on="0"/>
        <pt x="785" y="1241" on="0"/>
        <pt x="733" y="1241" on="1"/>
        <pt x="693" y="1241" on="0"/>
        <pt x="613" y="1274" on="0"/>
        <pt x="537" y="1313" on="0"/>
        <pt x="462" y="1346" on="0"/>
      </contour>
    </TTGlyph>
    <TTGlyph name="two" xMin="78" yMin="0" xMax="1063" yMax="1483">
      <contour>
        <pt x="1063" y="0" on="1"/>
        <pt x="82" y="0" on="1"/>
        <pt x="82" y="215" on="1"/>
        <pt x="426" y="586" on="1"/>
        <pt x="491" y="656" on="0"/>
        <pt x="597" y="774" on="0"/>
        <pt x="673" y="886" on="0"/>
        <pt x="715" y="1002" on="0"/>
        <pt x="715" y="1069" on="1"/>
        <pt x="715" y="1143" on="0"/>
        <pt x="626" y="1225" on="0"/>
        <pt x="551" y="1225" on="1"/>
        <pt x="472" y="1225" on="0"/>
        <pt x="326" y="1147" on="0"/>
        <pt x="246" y="1075" on="1"/>
        <pt x="78" y="1274" on="1"/>
        <pt x="123" y="1315" on="0"/>
        <pt x="221" y="1390" on="0"/>
        <pt x="339" y="1448" on="0"/>
        <pt x="481" y="1483" on="0"/>
        <pt x="569" y="1483" on="1"/>
        <pt x="674" y="1483" on="0"/>
        <pt x="841" y="1425" on="0"/>
        <pt x="959" y="1318" on="0"/>
        <pt x="1022" y="1166" on="0"/>
        <pt x="1022" y="1071" on="1"/>
        <pt x="1022" y="985" on="0"/>
        <pt x="962" y="828" on="0"/>
        <pt x="858" y="677" on="0"/>
        <pt x="721" y="528" on="0"/>
        <pt x="643" y="451" on="1"/>
        <pt x="467" y="274" on="1"/>
        <pt x="467" y="260" on="1"/>
        <pt x="1063" y="260" on="1"/>
      </contour>
    </TTGlyph>
    <TTGlyph name="twosuperior" xMin="47" yMin="586" xMax="702" yMax="1483">
      <contour>
        <pt x="702" y="586" on="1"/>
        <pt x="55" y="586" on="1"/>
        <pt x="55" y="754" on="1"/>
        <pt x="279" y="973" on="1"/>
        <pt x="325" y="1018" on="0"/>
        <pt x="386" y="1084" on="0"/>
        <pt x="423" y="1138" on="0"/>
        <pt x="438" y="1185" on="0"/>
        <pt x="438" y="1212" on="1"/>
        <pt x="438" y="1250" on="0"/>
        <pt x="390" y="1290" on="0"/>
        <pt x="350" y="1290" on="1"/>
        <pt x="310" y="1290" on="0"/>
        <pt x="223" y="1249" on="0"/>
        <pt x="170" y="1202" on="1"/>
        <pt x="47" y="1354" on="1"/>
        <pt x="112" y="1411" on="0"/>
        <pt x="274" y="1483" on="0"/>
        <pt x="383" y="1483" on="1"/>
        <pt x="449" y="1483" on="0"/>
        <pt x="558" y="1450" on="0"/>
        <pt x="635" y="1387" on="0"/>
        <pt x="678" y="1294" on="0"/>
        <pt x="678" y="1233" on="1"/>
        <pt x="678" y="1187" on="0"/>
        <pt x="653" y="1106" on="0"/>
        <pt x="599" y="1024" on="0"/>
        <pt x="515" y="935" on="0"/>
        <pt x="455" y="881" on="1"/>
        <pt x="350" y="786" on="1"/>
        <pt x="702" y="786" on="1"/>
      </contour>
    </TTGlyph>
    <TTGlyph name="u" xMin="154" yMin="-20" xMax="1124" yMax="1118">
      <contour>
        <pt x="891" y="0" on="1"/>
        <pt x="850" y="143" on="1"/>
        <pt x="834" y="143" on="1"/>
        <pt x="809" y="100" on="0"/>
        <pt x="740" y="39" on="0"/>
        <pt x="658" y="-1" on="0"/>
        <pt x="566" y="-20" on="0"/>
        <pt x="518" y="-20" on="1"/>
        <pt x="436" y="-20" on="0"/>
        <pt x="302" y="27" on="0"/>
        <pt x="206" y="127" on="0"/>
        <pt x="154" y="281" on="0"/>
        <pt x="154" y="389" on="1"/>
        <pt x="154" y="1118" on="1"/>
        <pt x="459" y="1118" on="1"/>
        <pt x="459" y="465" on="1"/>
        <pt x="459" y="344" on="0"/>
        <pt x="532" y="223" on="0"/>
        <pt x="612" y="223" on="1"/>
        <pt x="672" y="223" on="0"/>
        <pt x="752" y="271" on="0"/>
        <pt x="799" y="365" on="0"/>
        <pt x="819" y="503" on="0"/>
        <pt x="819" y="592" on="1"/>
        <pt x="819" y="1118" on="1"/>
        <pt x="1124" y="1118" on="1"/>
        <pt x="1124" y="0" on="1"/>
      </contour>
    </TTGlyph>
    <TTGlyph name="uacute" xMin="154" yMin="-20" xMax="1124" yMax="1569">
      <component glyphName="u" x="0" y="0" flags="0x1204"/>
      <component glyphName="acute" x="129" y="0" flags="0x1004"/>
    </TTGlyph>
    <TTGlyph name="ucircumflex" xMin="154" yMin="-20" xMax="1124" yMax="1569">
      <component glyphName="u" x="0" y="0" flags="0x1204"/>
      <component glyphName="circumflex" x="41" y="0" flags="0x1004"/>
    </TTGlyph>
    <TTGlyph name="udieresis" xMin="154" yMin="-20" xMax="1124" yMax="1540">
      <component glyphName="u" x="0" y="0" flags="0x1204"/>
      <component glyphName="dieresis" x="47" y="0" flags="0x1004"/>
    </TTGlyph>
    <TTGlyph name="ugrave" xMin="154" yMin="-20" xMax="1124" yMax="1569">
      <component glyphName="u" x="0" y="0" flags="0x1204"/>
      <component glyphName="grave" x="-62" y="0" flags="0x1004"/>
    </TTGlyph>
    <TTGlyph name="underscore" xMin="-4" yMin="-324" xMax="846" yMax="-184">
      <contour>
        <pt x="846" y="-324" on="1"/>
        <pt x="-4" y="-324" on="1"/>
        <pt x="-4" y="-184" on="1"/>
        <pt x="846" y="-184" on="1"/>
      </contour>
    </TTGlyph>
    <TTGlyph name="uni00AD" xMin="61" yMin="424" xMax="598" yMax="674">
      <component glyphName="hyphen" x="0" y="0" flags="0x1204"/>
    </TTGlyph>
    <TTGlyph name="v" xMin="0" yMin="0" xMax="1104" yMax="1118">
      <contour>
        <pt x="395" y="0" on="1"/>
        <pt x="0" y="1118" on="1"/>
        <pt x="319" y="1118" on="1"/>
        <pt x="504" y="481" on="1"/>
        <pt x="521" y="424" on="0"/>
        <pt x="546" y="301" on="0"/>
        <pt x="549" y="252" on="1"/>
        <pt x="555" y="252" on="1"/>
        <pt x="558" y="305" on="0"/>
        <pt x="583" y="424" on="0"/>
        <pt x="600" y="481" on="1"/>
        <pt x="784" y="1118" on="1"/>
        <pt x="1104" y="1118" on="1"/>
        <pt x="709" y="0" on="1"/>
      </contour>
    </TTGlyph>
    <TTGlyph name="w" xMin="0" yMin="0" xMax="1651" yMax="1118">
      <contour>
        <pt x="1014" y="0" on="1"/>
        <pt x="928" y="391" on="1"/>
        <pt x="924" y="408" on="0"/>
        <pt x="911" y="471" on="0"/>
        <pt x="895" y="550" on="0"/>
        <pt x="878" y="639" on="0"/>
        <pt x="869" y="683" on="1"/>
        <pt x="849" y="786" on="0"/>
        <pt x="825" y="905" on="1"/>
        <pt x="819" y="905" on="1"/>
        <pt x="796" y="786" on="0"/>
        <pt x="777" y="682" on="1"/>
        <pt x="769" y="638" on="0"/>
        <pt x="752" y="548" on="0"/>
        <pt x="736" y="469" on="0"/>
        <pt x="723" y="405" on="0"/>
        <pt x="719" y="387" on="1"/>
        <pt x="629" y="0" on="1"/>
        <pt x="301" y="0" on="1"/>
        <pt x="0" y="1118" on="1"/>
        <pt x="303" y="1118" on="1"/>
        <pt x="416" y="623" on="1"/>
        <pt x="425" y="584" on="0"/>
        <pt x="444" y="475" on="0"/>
        <pt x="461" y="364" on="0"/>
        <pt x="475" y="265" on="0"/>
        <pt x="479" y="236" on="1"/>
        <pt x="485" y="236" on="1"/>
        <pt x="486" y="255" on="0"/>
        <pt x="493" y="316" on="0"/>
        <pt x="503" y="386" on="0"/>
        <pt x="514" y="459" on="0"/>
        <pt x="525" y="523" on="0"/>
        <pt x="534" y="572" on="0"/>
        <pt x="537" y="582" on="1"/>
        <pt x="659" y="1118" on="1"/>
        <pt x="995" y="1118" on="1"/>
        <pt x="1112" y="582" on="1"/>
        <pt x="1117" y="560" on="0"/>
        <pt x="1133" y="468" on="0"/>
        <pt x="1150" y="363" on="0"/>
        <pt x="1162" y="264" on="0"/>
        <pt x="1163" y="236" on="1"/>
        <pt x="1169" y="236" on="1"/>
        <pt x="1172" y="261" on="0"/>
        <pt x="1187" y="359" on="0"/>
        <pt x="1205" y="472" on="0"/>
        <pt x="1226" y="584" on="0"/>
        <pt x="1235" y="623" on="1"/>
        <pt x="1352" y="1118" on="1"/>
        <pt x="1651" y="1118" on="1"/>
        <pt x="1346" y="0" on="1"/>
      </contour>
    </TTGlyph>
    <TTGlyph name="x" xMin="10" yMin="0" xMax="1112" yMax="1118">
      <contour>
        <pt x="389" y="571" on="1"/>
        <pt x="29" y="1118" on="1"/>
        <pt x="375" y="1118" on="1"/>
        <pt x="561" y="782" on="1"/>
        <pt x="750" y="1118" on="1"/>
        <pt x="1096" y="1118" on="1"/>
        <pt x="731" y="571" on="1"/>
        <pt x="1112" y="0" on="1"/>
        <pt x="766" y="0" on="1"/>
        <pt x="561" y="362" on="1"/>
        <pt x="356" y="0" on="1"/>
        <pt x="10" y="0" on="1"/>
      </contour>
    </TTGlyph>
    <TTGlyph name="y" xMin="0" yMin="-492" xMax="1104" yMax="1118">
      <contour>
        <pt x="0" y="1118" on="1"/>
        <pt x="334" y="1118" on="1"/>
        <pt x="514" y="489" on="1"/>
        <pt x="530" y="437" on="0"/>
        <pt x="545" y="319" on="0"/>
        <pt x="547" y="272" on="1"/>
        <pt x="553" y="272" on="1"/>
        <pt x="555" y="295" on="0"/>
        <pt x="562" y="351" on="0"/>
        <pt x="572" y="409" on="0"/>
        <pt x="585" y="466" on="0"/>
        <pt x="592" y="489" on="1"/>
        <pt x="768" y="1118" on="1"/>
        <pt x="1104" y="1118" on="1"/>
        <pt x="662" y="-143" on="1"/>
        <pt x="600" y="-320" on="0"/>
        <pt x="386" y="-492" on="0"/>
        <pt x="225" y="-492" on="1"/>
        <pt x="173" y="-492" on="0"/>
        <pt x="97" y="-481" on="0"/>
        <pt x="70" y="-475" on="1"/>
        <pt x="70" y="-233" on="1"/>
        <pt x="91" y="-238" on="0"/>
        <pt x="155" y="-246" on="0"/>
        <pt x="190" y="-246" on="1"/>
        <pt x="238" y="-246" on="0"/>
        <pt x="306" y="-220" on="0"/>
        <pt x="355" y="-173" on="0"/>
        <pt x="390" y="-107" on="0"/>
        <pt x="403" y="-66" on="1"/>
        <pt x="422" y="-10" on="1"/>
      </contour>
    </TTGlyph>
    <TTGlyph name="yacute" xMin="0" yMin="-492" xMax="1104" yMax="1569">
      <component glyphName="y" x="0" y="0" flags="0x1204"/>
      <component glyphName="acute" x="61" y="0" flags="0x1004"/>
    </TTGlyph>
    <TTGlyph name="ydieresis" xMin="0" yMin="-492" xMax="1104" yMax="1540">
      <component glyphName="y" x="0" y="0" flags="0x1204"/>
      <component glyphName="dieresis" x="-38" y="0" flags="0x1004"/>
    </TTGlyph>
    <TTGlyph name="yen" xMin="8" yMin="0" xMax="1122" yMax="1462">
      <contour>
        <pt x="565" y="860" on="1"/>
        <pt x="809" y="1462" on="1"/>
        <pt x="1122" y="1462" on="1"/>
        <pt x="760" y="715" on="1"/>
        <pt x="954" y="715" on="1"/>
        <pt x="954" y="537" on="1"/>
        <pt x="709" y="537" on="1"/>
        <pt x="709" y="399" on="1"/>
        <pt x="954" y="399" on="1"/>
        <pt x="954" y="221" on="1"/>
        <pt x="709" y="221" on="1"/>
        <pt x="709" y="0" on="1"/>
        <pt x="422" y="0" on="1"/>
        <pt x="422" y="221" on="1"/>
        <pt x="174" y="221" on="1"/>
        <pt x="174" y="399" on="1"/>
        <pt x="422" y="399" on="1"/>
        <pt x="422" y="537" on="1"/>
        <pt x="174" y="537" on="1"/>
        <pt x="174" y="715" on="1"/>
        <pt x="365" y="715" on="1"/>
        <pt x="8" y="1462" on="1"/>
        <pt x="324" y="1462" on="1"/>
      </contour>
    </TTGlyph>
    <TTGlyph name="z" xMin="55" yMin="0" xMax="877" yMax="1118">
      <contour>
        <pt x="877" y="0" on="1"/>
        <pt x="55" y="0" on="1"/>
        <pt x="55" y="180" on="1"/>
        <pt x="512" y="885" on="1"/>
        <pt x="86" y="885" on="1"/>
        <pt x="86" y="1118" on="1"/>
        <pt x="858" y="1118" on="1"/>
        <pt x="858" y="920" on="1"/>
        <pt x="416" y="233" on="1"/>
        <pt x="877" y="233" on="1"/>
      </contour>
    </TTGlyph>
    <TTGlyph name="zero" xMin="63" yMin="-20" xMax="1065" yMax="1485">
      <contour>
        <pt x="1065" y="731" on="1"/>
        <pt x="1065" y="554" on="0"/>
        <pt x="1010" y="276" on="0"/>
        <pt x="889" y="82" on="0"/>
        <pt x="698" y="-20" on="0"/>
        <pt x="563" y="-20" on="1"/>
        <pt x="436" y="-20" on="0"/>
        <pt x="248" y="82" on="0"/>
        <pt x="124" y="276" on="0"/>
        <pt x="63" y="554" on="0"/>
        <pt x="63" y="731" on="1"/>
        <pt x="63" y="908" on="0"/>
        <pt x="118" y="1188" on="0"/>
        <pt x="238" y="1382" on="0"/>
        <pt x="428" y="1485" on="0"/>
        <pt x="563" y="1485" on="1"/>
        <pt x="689" y="1485" on="0"/>
        <pt x="877" y="1383" on="0"/>
        <pt x="1003" y="1189" on="0"/>
        <pt x="1065" y="909" on="0"/>
      </contour>
      <contour>
        <pt x="371" y="731" on="1"/>
        <pt x="371" y="481" on="0"/>
        <pt x="457" y="229" on="0"/>
        <pt x="563" y="229" on="1"/>
        <pt x="667" y="229" on="0"/>
        <pt x="758" y="479" on="0"/>
        <pt x="758" y="731" on="1"/>
        <pt x="758" y="982" on="0"/>
        <pt x="667" y="1235" on="0"/>
        <pt x="563" y="1235" on="1"/>
        <pt x="510" y="1235" on="0"/>
        <pt x="437" y="1171" on="0"/>
        <pt x="391" y="1045" on="0"/>
        <pt x="371" y="856" on="0"/>
      </contour>
    </TTGlyph>
</ttFont>
